<svg width="348" height="685" viewBox="0 0 348 685" fill="none" xmlns="http://www.w3.org/2000/svg">
<path d="M301.973 356.553L351.482 287.62L386.426 364.963L301.973 356.553Z" stroke="#FEF3F7"/>
<path d="M269.257 371.133L355.646 250.851L416.619 385.807L269.257 371.133Z" stroke="#FEF3F7"/>
<path d="M236.606 386.474L368.462 202.885L461.526 408.87L236.606 386.474Z" stroke="#FEF3F7"/>
<path d="M200.099 404.696L350.647 195.082L456.904 430.268L200.099 404.696Z" stroke="#FEF3F7"/>
<path d="M165.637 421.363L356.601 155.477L491.383 453.8L165.637 421.363Z" stroke="#FEF3F7"/>
<path d="M131.175 438.031L362.555 115.872L525.862 477.332L131.175 438.031Z" stroke="#FEF3F7"/>
<path d="M94.2575 456.463L364.032 80.8456L554.439 502.286L94.2575 456.463Z" stroke="#FEF3F7"/>
<path d="M58.6281 470.753L373.365 32.5328L595.507 524.214L58.6281 470.753Z" stroke="#FEF3F7"/>
</svg>
