<svg width="29" height="29" viewBox="0 0 29 29" fill="none" xmlns="http://www.w3.org/2000/svg">
<g clip-path="url(#clip0)">
<path d="M27.7114 19.0132C27.0806 18.2572 26.368 17.5823 25.6787 16.9295C25.4365 16.7 25.1859 16.4627 24.9446 16.2272C24.9446 16.2271 24.9445 16.2271 24.9445 16.227C24.6199 15.9104 24.461 15.6857 24.4445 15.5198C24.4281 15.3567 24.5396 15.1146 24.796 14.7569C25.1794 14.2188 25.5881 13.6798 25.9834 13.1586C26.3348 12.6953 26.6981 12.2162 27.0464 11.7343L27.1245 11.6261C27.8039 10.6858 28.5064 9.71342 28.8828 8.5285C28.9903 8.18876 29.102 7.68602 28.8327 7.24467C28.5633 6.80322 28.0639 6.67238 27.712 6.61245C27.54 6.583 27.3769 6.58056 27.2251 6.58056L22.8181 6.57665C22.0562 6.56396 21.5276 6.92511 21.2395 7.65034C21.009 8.22955 20.7367 8.9008 20.4213 9.53755C19.8178 10.7668 19.0509 12.1827 17.9394 13.3623L17.89 13.4149C17.8144 13.4957 17.6907 13.6278 17.6272 13.6581C17.5068 13.5824 17.3679 13.1496 17.3742 12.9229C17.3744 12.9173 17.3744 12.9117 17.3744 12.9062L17.3705 7.81397C17.3705 7.78809 17.3687 7.7622 17.3653 7.73654C17.2664 7.01007 17.0737 6.28178 15.9239 6.05488C15.887 6.04757 15.8495 6.04395 15.812 6.04395H11.2278C10.3653 6.04395 9.90916 6.4389 9.54343 6.86711C9.43757 6.99194 9.15629 7.32341 9.29959 7.72861C9.4446 8.13864 9.87665 8.22048 10.0185 8.24733C10.5181 8.34215 10.7764 8.6245 10.8564 9.16429C11.0145 10.2131 11.0338 11.3351 10.9174 12.6935C10.885 13.0582 10.8246 13.3354 10.7272 13.566C10.7002 13.6298 10.6765 13.6693 10.66 13.6926C10.6336 13.682 10.5925 13.6616 10.5357 13.6227C10.1846 13.3824 9.92004 13.009 9.66419 12.648C8.64228 11.2052 7.7827 9.61164 7.036 7.77563C6.7285 7.02327 6.15042 6.60305 5.40933 6.59217C3.99739 6.56867 2.69153 6.56923 1.41847 6.59398C0.818023 6.60441 0.396955 6.79342 0.166767 7.15586C-0.0637048 7.51899 -0.0552654 7.98197 0.191915 8.53218C1.95888 12.4614 3.56329 15.3197 5.39392 17.8002C6.6829 19.5466 7.98043 20.7588 9.47728 21.6152C11.05 22.5149 12.8236 22.9559 14.8813 22.9558C15.1153 22.9558 15.3533 22.9501 15.5945 22.9386C16.864 22.8808 17.3805 22.3758 17.4369 21.1394C17.4685 20.4859 17.5412 19.9566 17.7936 19.4967C17.8641 19.3679 17.9438 19.2816 18.0065 19.2658C18.0733 19.2491 18.1916 19.29 18.3232 19.3754C18.5637 19.5317 18.7709 19.7435 18.9412 19.9294C19.1138 20.1185 19.2883 20.3137 19.4571 20.5025C19.8164 20.9045 20.1879 21.3202 20.5771 21.7166C21.4575 22.6141 22.4724 23.0256 23.5948 22.9394L27.628 22.9413C27.6281 22.9413 27.6281 22.9413 27.6282 22.9413C27.641 22.9413 27.6538 22.9409 27.6666 22.94C28.1318 22.909 28.534 22.6515 28.7702 22.2333C29.0546 21.7296 29.0503 21.0917 28.7584 20.5261C28.4539 19.9381 28.0589 19.432 27.7114 19.0132ZM27.7642 21.6652C27.7086 21.7637 27.64 21.7817 27.6046 21.786L23.5723 21.7841C23.5722 21.7841 23.5721 21.7841 23.5719 21.7841C23.556 21.7841 23.5401 21.7847 23.5243 21.7861C22.7299 21.8522 22.0547 21.573 21.4017 20.9075C21.0313 20.5301 20.6689 20.1247 20.3185 19.7327C20.1477 19.5416 19.9712 19.344 19.7938 19.1498C19.5738 18.9096 19.3019 18.6335 18.9524 18.4065C18.4293 18.067 17.9958 18.0772 17.7243 18.1457C17.4557 18.2133 17.0738 18.4065 16.7807 18.9414C16.4009 19.6335 16.3172 20.3801 16.2831 21.0855C16.2634 21.5169 16.1904 21.6308 16.1599 21.6598C16.12 21.6977 15.9866 21.7644 15.5413 21.7848C13.4016 21.8854 11.606 21.5022 10.051 20.6125C8.69835 19.8386 7.51388 18.7269 6.32357 17.1143C4.54363 14.7026 2.97751 11.9097 1.24572 8.05872C1.18296 7.91921 1.16359 7.83215 1.15798 7.78554C1.20216 7.77104 1.28848 7.75195 1.43983 7.74917C2.69997 7.72476 3.99218 7.72408 5.39138 7.74742C5.58293 7.75025 5.80106 7.80774 5.96622 8.21187C6.74639 10.1302 7.64761 11.7997 8.72152 13.3159C9.00665 13.7183 9.36156 14.2193 9.88317 14.5762C10.3609 14.9033 10.7486 14.8877 10.9898 14.817C11.2311 14.7462 11.566 14.5497 11.7915 14.0157C11.937 13.6715 12.025 13.2839 12.0685 12.7942C12.193 11.3412 12.1709 10.1331 11.9992 8.99369C11.8781 8.17732 11.4566 7.58758 10.7926 7.28642C10.9105 7.22502 11.0434 7.19942 11.2279 7.19942H15.7522C16.0068 7.25651 16.0572 7.32358 16.0745 7.34651C16.1478 7.44399 16.1897 7.67458 16.2153 7.85475L16.2191 12.9C16.2089 13.3836 16.444 14.4563 17.2443 14.7504C17.2509 14.7529 17.2575 14.7551 17.2641 14.7573C17.9928 14.9954 18.4747 14.4811 18.7335 14.2047L18.7796 14.1557C19.9971 12.8634 20.817 11.3535 21.4576 10.0487C21.7914 9.37499 22.0741 8.67808 22.3132 8.07735C22.4329 7.77608 22.5417 7.72646 22.8015 7.73196C22.805 7.73207 22.8085 7.73207 22.8122 7.73207L27.2248 7.73598C27.3274 7.73598 27.4345 7.73717 27.5176 7.75138C27.7279 7.78718 27.8145 7.83079 27.843 7.84886C27.846 7.88234 27.8453 7.97863 27.7817 8.17959C27.4617 9.18717 26.8431 10.0432 26.1883 10.9496L26.11 11.058C25.7698 11.5288 25.4105 12.0024 25.0631 12.4606C24.6627 12.9886 24.2488 13.5344 23.8563 14.0853C23.0172 15.256 23.091 16.0329 24.1381 17.0542C24.3855 17.2958 24.6392 17.5361 24.8846 17.7684C25.5802 18.4273 26.2372 19.0496 26.8237 19.7523C27.1306 20.1224 27.4786 20.5669 27.7323 21.0567C27.8646 21.3131 27.8321 21.5448 27.7642 21.6652Z" fill="#FA6297"/>
</g>
<defs>
<clipPath id="clip0">
<rect width="29" height="29" fill="white"/>
</clipPath>
</defs>
</svg>
