<svg width="32" height="32" viewBox="0 0 32 32" fill="none" xmlns="http://www.w3.org/2000/svg">
<g clip-path="url(#clip0)">
<path d="M15.2242 0.0187501C6.77299 0.421146 0.103831 7.45933 0.129468 15.9201C0.137274 18.497 0.759389 20.9293 1.85683 23.0784L0.171866 31.2574C0.0807184 31.6998 0.479747 32.0872 0.919261 31.9832L8.93375 30.0844C10.9928 31.11 13.3055 31.7024 15.7532 31.7398C24.3911 31.8717 31.5936 25.013 31.8628 16.3783C32.1514 7.12252 24.5123 -0.423595 15.2242 0.0187501ZM24.7872 24.6581C22.44 27.0052 19.3194 28.2978 16.0001 28.2978C14.0565 28.2978 12.1958 27.8617 10.4693 27.0017L9.35321 26.4457L4.4395 27.6099L5.47381 22.589L4.92394 21.5122C4.02769 19.757 3.57326 17.859 3.57326 15.8709C3.57326 12.5516 4.86585 9.43098 7.21296 7.0838C9.5391 4.75766 12.7107 3.44402 16.0003 3.44402C19.3196 3.44409 22.4401 4.73669 24.7872 7.08372C27.1343 9.43083 28.4269 12.5514 28.427 15.8707C28.4269 19.1604 27.1133 22.332 24.7872 24.6581Z" fill="white"/>
<path d="M23.7024 19.3123L20.6283 18.4296C20.2241 18.3136 19.7889 18.4282 19.4944 18.7283L18.7427 19.4942C18.4257 19.8172 17.9447 19.9209 17.5251 19.7512C16.0709 19.1627 13.0119 16.4428 12.2306 15.0823C12.0052 14.6899 12.0425 14.1992 12.3193 13.8411L12.9756 12.992C13.2327 12.6594 13.287 12.2126 13.1169 11.828L11.8236 8.90279C11.5138 8.20216 10.6184 7.99821 10.0335 8.4929C9.17554 9.21856 8.15753 10.3213 8.03378 11.5429C7.8156 13.6968 8.73932 16.4119 12.2324 19.6721C16.2678 23.4386 19.4994 23.9362 21.6034 23.4265C22.7969 23.1374 23.7506 21.9786 24.3525 21.0298C24.7628 20.3829 24.4388 19.5237 23.7024 19.3123Z" fill="white"/>
</g>
<defs>
<clipPath id="clip0">
<rect width="32" height="32" fill="white"/>
</clipPath>
</defs>
</svg>
