<svg width="426" height="426" viewBox="0 0 426 426" fill="none" xmlns="http://www.w3.org/2000/svg">
<mask id="mask0" mask-type="alpha" maskUnits="userSpaceOnUse" x="0" y="0" width="426" height="426">
<circle cx="213" cy="213" r="213" fill="#C4C4C4" fill-opacity="0.3"/>
</mask>
<g mask="url(#mask0)">
<path d="M-98.0701 46.5251L487.37 407.042" stroke="#EED7DF"/>
<path d="M-99.743 56.3842L485.697 416.901" stroke="#EED7DF"/>
<path d="M-104.858 62.6164L480.583 423.133" stroke="#EED7DF"/>
<path d="M-108.596 70.2995L476.845 430.816" stroke="#EED7DF"/>
<path d="M-113.059 78.6708L472.381 439.188" stroke="#EED7DF"/>
<path d="M-116.797 86.3537L468.643 446.87" stroke="#EED7DF"/>
<path d="M-121.949 93.9997L463.492 454.516" stroke="#EED7DF"/>
<path d="M-125.686 101.683L459.754 462.199" stroke="#EED7DF"/>
<path d="M-130.113 108.64L455.327 469.157" stroke="#EED7DF"/>
<path d="M-135.264 116.286L450.176 476.803" stroke="#EED7DF"/>
<path d="M-140.416 123.932L445.024 484.449" stroke="#EED7DF"/>
<path d="M-146.293 132.266L439.147 492.783" stroke="#EED7DF"/>
<path d="M-150.756 140.638L434.684 501.154" stroke="#EED7DF"/>
<path d="M-154.494 148.321L430.946 508.837" stroke="#EED7DF"/>
<path d="M-158.921 155.278L426.52 515.795" stroke="#EED7DF"/>
<path d="M-163.384 163.65L422.056 524.166" stroke="#EED7DF"/>
<path d="M-167.81 170.607L417.63 531.124" stroke="#EED7DF"/>
<path d="M-170.86 179.016L414.58 539.532" stroke="#EED7DF"/>
<path d="M-175.323 187.387L410.117 547.903" stroke="#EED7DF"/>
<path d="M-180.475 195.033L404.965 555.549" stroke="#EED7DF"/>
<path d="M-185.589 201.265L399.851 561.782" stroke="#EED7DF"/>
<path d="M-190.741 208.911L394.699 569.428" stroke="#EED7DF"/>
<path d="M-197.269 215.106L388.171 575.623" stroke="#EED7DF"/>
<path d="M-91.5048 38.9162L493.935 399.433" stroke="#EED7DF"/>
<path d="M-85.6648 31.9958L499.775 392.513" stroke="#EED7DF"/>
<path d="M-79.8247 25.0751L505.615 385.592" stroke="#EED7DF"/>
<path d="M25.4355 -151.055L610.876 209.461" stroke="#EED7DF"/>
<path d="M23.7626 -141.196L609.203 219.32" stroke="#EED7DF"/>
<path d="M18.6479 -134.964L604.088 225.553" stroke="#EED7DF"/>
<path d="M14.91 -127.281L600.35 233.236" stroke="#EED7DF"/>
<path d="M10.4468 -118.91L595.887 241.607" stroke="#EED7DF"/>
<path d="M6.70885 -111.227L592.149 249.29" stroke="#EED7DF"/>
<path d="M1.55711 -103.581L586.997 256.936" stroke="#EED7DF"/>
<path d="M-2.1808 -95.898L583.259 264.619" stroke="#EED7DF"/>
<path d="M-6.60707 -88.9405L578.833 271.576" stroke="#EED7DF"/>
<path d="M-11.7587 -81.2945L573.681 279.222" stroke="#EED7DF"/>
<path d="M-16.9104 -73.6485L568.53 286.868" stroke="#EED7DF"/>
<path d="M-22.7875 -65.3143L562.653 295.202" stroke="#EED7DF"/>
<path d="M-27.2507 -56.9429L558.189 303.574" stroke="#EED7DF"/>
<path d="M-30.9887 -49.2598L554.452 311.257" stroke="#EED7DF"/>
<path d="M-35.4149 -42.3023L550.025 318.214" stroke="#EED7DF"/>
<path d="M-39.8783 -33.931L545.562 326.586" stroke="#EED7DF"/>
<path d="M-44.3046 -26.9734L541.136 333.543" stroke="#EED7DF"/>
<path d="M-47.3541 -18.565L538.086 341.952" stroke="#EED7DF"/>
<path d="M-51.8174 -10.1939L533.623 350.323" stroke="#EED7DF"/>
<path d="M-56.9691 -2.5479L528.471 357.969" stroke="#EED7DF"/>
<path d="M-62.0838 3.68428L523.356 364.201" stroke="#EED7DF"/>
<path d="M-67.2354 11.3303L518.205 371.847" stroke="#EED7DF"/>
<path d="M-73.7638 17.5256L511.676 378.042" stroke="#EED7DF"/>
<path d="M32.0008 -158.664L617.441 201.852" stroke="#EED7DF"/>
<path d="M37.8409 -165.585L623.281 194.932" stroke="#EED7DF"/>
<path d="M43.6809 -172.505L629.121 188.011" stroke="#EED7DF"/>
</g>
</svg>
