<svg width="50" height="50" viewBox="0 0 50 50" fill="none" xmlns="http://www.w3.org/2000/svg">
<g clip-path="url(#clip0)">
<path d="M48.0205 11.0324L25.3185 0.0728027C25.1172 -0.0242676 24.8829 -0.0242676 24.6817 0.0728027L1.97964 11.0324C1.72651 11.1545 1.56567 11.4109 1.56567 11.6919V38.3081C1.56567 38.5891 1.72651 38.8455 1.97964 38.9676L24.6816 49.9272C24.7822 49.9757 24.8912 50 25 50C25.1089 50 25.2178 49.9757 25.3185 49.9272L48.0205 38.9676C48.2736 38.8455 48.4344 38.5891 48.4344 38.3081V11.692C48.4344 11.4108 48.2735 11.1546 48.0205 11.0324ZM25 1.54575L46.0173 11.6919L39.9249 14.6332C39.8863 14.6038 39.8456 14.5766 39.8008 14.555L18.9263 4.47788L25 1.54575ZM17.2722 5.30601L38.2589 15.4375L33.9606 17.5126L12.9826 7.38521L17.2722 5.30601ZM38.75 16.8269V24.4974L34.735 26.4357V18.7652L38.75 16.8269ZM46.9696 37.8485L25.7325 48.1006V23.1112L30.7982 20.6657C31.1624 20.4898 31.3152 20.052 31.1393 19.6876C30.9634 19.3235 30.5256 19.1706 30.1613 19.3465L25 21.8382L22.9692 20.8578C22.6048 20.6817 22.167 20.8346 21.9912 21.1989C21.8153 21.5631 21.968 22.001 22.3323 22.1769L24.2676 23.1112V48.1006L3.03052 37.8483V12.8588L19.2024 20.666C19.305 20.7156 19.4135 20.739 19.5203 20.739C19.7925 20.739 20.0541 20.5865 20.1803 20.3249C20.3562 19.9606 20.2035 19.5227 19.8392 19.3468L3.98276 11.6919L11.2586 8.17944L33.26 18.8008C33.2632 18.8053 33.2668 18.8093 33.2702 18.8137V27.6027C33.2702 27.8547 33.3998 28.089 33.6132 28.2231C33.7318 28.2975 33.867 28.3351 34.0027 28.3351C34.1113 28.3351 34.2202 28.311 34.321 28.2623L39.8008 25.6168C40.054 25.4947 40.2148 25.2384 40.2148 24.9573V16.1199L46.9696 12.8589V37.8485Z" fill="white"/>
<path d="M9.07473 35.0076L5.74319 33.3993C5.37873 33.2232 4.94104 33.3761 4.76516 33.7404C4.58928 34.1046 4.74202 34.5425 5.10627 34.7184L8.43782 36.3267C8.54046 36.3763 8.64895 36.3998 8.75569 36.3998C9.02796 36.3998 9.28948 36.2472 9.41575 35.9856C9.59173 35.6212 9.43899 35.1835 9.07473 35.0076Z" fill="white"/>
<path d="M12.1408 33.0119L5.74776 29.9256C5.38341 29.7497 4.94562 29.9024 4.76974 30.2668C4.59396 30.631 4.74669 31.0689 5.11095 31.2448L11.504 34.3311C11.6067 34.3806 11.7151 34.4042 11.8219 34.4042C12.0942 34.4042 12.3557 34.2516 12.4819 33.99C12.6578 33.6256 12.5051 33.1877 12.1408 33.0119Z" fill="white"/>
</g>
<defs>
<clipPath id="clip0">
<rect width="50" height="50" fill="white"/>
</clipPath>
</defs>
</svg>
