<svg width="50" height="50" viewBox="0 0 50 50" fill="none" xmlns="http://www.w3.org/2000/svg">
<path d="M9.34761 17.4139C11.9268 17.4139 14.0251 15.3156 14.0251 12.7364C14.0251 10.1572 11.9268 8.05884 9.34761 8.05884C6.76841 8.05884 4.67017 10.1572 4.67017 12.7364C4.67017 15.3156 6.76831 17.4139 9.34761 17.4139ZM9.34761 9.52368C11.1192 9.52368 12.5603 10.9649 12.5603 12.7364C12.5603 14.5079 11.1191 15.9491 9.34761 15.9491C7.57612 15.9491 6.13501 14.5079 6.13501 12.7364C6.13491 10.9649 7.57612 9.52368 9.34761 9.52368Z" fill="white"/>
<path d="M15.1013 12.7364C15.1013 15.3156 17.1997 17.4139 19.7789 17.4139C22.3581 17.4139 24.4563 15.3156 24.4563 12.7364C24.4563 10.1572 22.3581 8.05884 19.7789 8.05884C17.1997 8.05884 15.1013 10.1572 15.1013 12.7364ZM22.9915 12.7364C22.9915 14.5079 21.5502 15.9491 19.7789 15.9491C18.0073 15.9491 16.5662 14.5079 16.5662 12.7364C16.5662 10.9649 18.0074 9.52368 19.7789 9.52368C21.5503 9.52368 22.9915 10.9649 22.9915 12.7364Z" fill="white"/>
<path d="M30.21 17.4139C32.7892 17.4139 34.8876 15.3156 34.8876 12.7364C34.8876 10.1572 32.7892 8.05884 30.21 8.05884C27.6308 8.05884 25.5325 10.1572 25.5325 12.7364C25.5325 15.3156 27.6308 17.4139 30.21 17.4139ZM30.21 9.52368C31.9816 9.52368 33.4227 10.9649 33.4227 12.7364C33.4227 14.5079 31.9815 15.9491 30.21 15.9491C28.4385 15.9491 26.9973 14.5079 26.9973 12.7364C26.9973 10.9649 28.4385 9.52368 30.21 9.52368Z" fill="white"/>
<path d="M25.951 4.99316H5.40259C4.998 4.99316 4.67017 5.32109 4.67017 5.72558C4.67017 6.13008 4.998 6.458 5.40259 6.458H25.951C26.3556 6.458 26.6834 6.13008 26.6834 5.72558C26.6834 5.32109 26.3556 4.99316 25.951 4.99316Z" fill="white"/>
<path d="M9.34761 32.0174C11.9268 32.0174 14.0251 29.9191 14.0251 27.3399C14.0251 24.7607 11.9268 22.6624 9.34761 22.6624C6.76841 22.6624 4.67017 24.7607 4.67017 27.3399C4.67017 29.9191 6.76831 32.0174 9.34761 32.0174ZM9.34761 24.1272C11.1192 24.1272 12.5603 25.5684 12.5603 27.3399C12.5603 29.1114 11.1191 30.5526 9.34761 30.5526C7.57612 30.5526 6.13501 29.1114 6.13501 27.3399C6.13501 25.5684 7.57612 24.1272 9.34761 24.1272Z" fill="white"/>
<path d="M15.1013 27.3399C15.1013 29.9191 17.1997 32.0174 19.7789 32.0174C22.3581 32.0174 24.4563 29.9191 24.4563 27.3399C24.4563 24.7607 22.3581 22.6624 19.7789 22.6624C17.1997 22.6624 15.1013 24.7607 15.1013 27.3399ZM22.9915 27.3399C22.9915 29.1114 21.5502 30.5526 19.7789 30.5526C18.0073 30.5526 16.5662 29.1114 16.5662 27.3399C16.5662 25.5684 18.0074 24.1272 19.7789 24.1272C21.5503 24.1272 22.9915 25.5684 22.9915 27.3399Z" fill="white"/>
<path d="M5.40259 21.0615H25.951C26.3556 21.0615 26.6834 20.7336 26.6834 20.3291C26.6834 19.9246 26.3556 19.5967 25.951 19.5967H5.40259C4.998 19.5967 4.67017 19.9246 4.67017 20.3291C4.67017 20.7336 4.9981 21.0615 5.40259 21.0615Z" fill="white"/>
<path d="M9.34761 47.1454C11.9268 47.1454 14.0251 45.047 14.0251 42.4678C14.0251 39.8886 11.9268 37.7903 9.34761 37.7903C6.76841 37.7903 4.67017 39.8886 4.67017 42.4678C4.67017 45.047 6.76831 47.1454 9.34761 47.1454ZM9.34761 39.2551C11.1192 39.2551 12.5603 40.6963 12.5603 42.4678C12.5603 44.2393 11.1191 45.6805 9.34761 45.6805C7.57612 45.6805 6.13501 44.2393 6.13501 42.4678C6.13501 40.6963 7.57612 39.2551 9.34761 39.2551Z" fill="white"/>
<path d="M15.1013 42.4678C15.1013 45.047 17.1997 47.1454 19.7789 47.1454C22.3581 47.1454 24.4563 45.047 24.4563 42.4678C24.4563 39.8886 22.3581 37.7903 19.7789 37.7903C17.1997 37.7903 15.1013 39.8886 15.1013 42.4678ZM22.9915 42.4678C22.9915 44.2393 21.5502 45.6805 19.7789 45.6805C18.0073 45.6805 16.5662 44.2393 16.5662 42.4678C16.5662 40.6963 18.0074 39.2551 19.7789 39.2551C21.5503 39.2551 22.9915 40.6963 22.9915 42.4678Z" fill="white"/>
<path d="M30.21 47.1454C32.7892 47.1454 34.8876 45.047 34.8876 42.4678C34.8876 39.8886 32.7892 37.7903 30.21 37.7903C27.6308 37.7903 25.5325 39.8886 25.5325 42.4678C25.5325 45.047 27.6308 47.1454 30.21 47.1454ZM30.21 39.2551C31.9816 39.2551 33.4227 40.6963 33.4227 42.4678C33.4227 44.2393 31.9815 45.6805 30.21 45.6805C28.4385 45.6805 26.9973 44.2393 26.9973 42.4678C26.9973 40.6963 28.4385 39.2551 30.21 39.2551Z" fill="white"/>
<path d="M5.40259 36.1897H25.951C26.3556 36.1897 26.6834 35.8618 26.6834 35.4573C26.6834 35.0528 26.3556 34.7249 25.951 34.7249H5.40259C4.998 34.7249 4.67017 35.0528 4.67017 35.4573C4.67017 35.8618 4.9981 36.1897 5.40259 36.1897Z" fill="white"/>
<path d="M47.249 9.00303L47.704 7.86191C48.1112 6.84053 47.6116 5.67832 46.5901 5.271L44.6054 4.47959C44.1105 4.28223 43.5683 4.28945 43.0789 4.5001C42.5897 4.71055 42.2117 5.09883 42.0145 5.59336L41.1074 7.86846C40.7389 8.05283 40.4099 8.32441 40.1558 8.67637C39.9502 8.96064 39.7439 9.25811 39.5374 9.5665V3.00586C39.5374 1.34844 38.1884 0 36.5305 0H3.02651C1.36909 0 0.020752 1.34844 0.020752 3.00586V39.5746C0.020752 39.9791 0.348584 40.307 0.753174 40.307C1.15776 40.307 1.4856 39.9791 1.4856 39.5746V3.00586C1.4856 2.15615 2.17681 1.46484 3.02651 1.46484H36.5304C37.3807 1.46484 38.0724 2.15615 38.0724 3.00586V11.9402C36.7783 14.2022 35.5134 16.851 34.3824 19.6877C33.8614 20.9941 33.3887 22.2925 32.9692 23.5613C32.1776 22.9815 31.219 22.6621 30.2101 22.6621C27.6308 22.6621 25.5324 24.7605 25.5324 27.3398C25.5324 29.9191 27.6308 32.0176 30.2101 32.0176C30.4623 32.0176 30.7111 31.9979 30.9556 31.9588C30.53 35.4456 31.0067 37.4898 32.3755 38.0358C32.5955 38.1234 32.8251 38.1672 33.0647 38.1672C34.3782 38.1671 35.9839 36.8513 37.8505 34.2412C37.9245 34.1379 37.9984 34.0324 38.0724 33.926V46.9941C38.0724 47.8438 37.3807 48.5352 36.5304 48.5352H3.02651C2.17681 48.5352 1.4856 47.8438 1.4856 46.9941V42.5043C1.4856 42.0998 1.15776 41.7719 0.753174 41.7719C0.348584 41.7719 0.020752 42.0998 0.020752 42.5043V46.9941C0.020752 48.6516 1.36919 50 3.02651 50H36.5304C38.1884 50 39.5373 48.6516 39.5373 46.9941V31.6316C40.9423 29.2522 42.3231 26.4021 43.5438 23.3404C44.4194 21.1438 45.16 18.974 45.7454 16.8914C45.8547 16.502 45.6278 16.0976 45.2384 15.9882C44.8491 15.8788 44.4446 16.1057 44.3351 16.4951C43.7637 18.5284 43.0396 20.649 42.1832 22.798C41.5 24.5113 40.7671 26.1543 40.0093 27.6797L33.9625 25.2688C34.4624 23.64 35.0596 21.944 35.743 20.2302C37.4349 15.9867 39.4235 12.1884 41.3429 9.53428C41.6542 9.10332 42.2179 8.94043 42.7142 9.13828L44.7565 9.95283C45.2527 10.1505 45.5499 10.6567 45.4792 11.1841C45.3753 11.9609 45.2252 12.8057 45.0333 13.6949C44.9479 14.0903 45.1992 14.4801 45.5946 14.5654C45.9891 14.6509 46.3796 14.3996 46.4651 14.0042C46.6654 13.0771 46.8221 12.1936 46.9311 11.3784C46.974 11.0582 46.9553 10.742 46.886 10.4413C48.0221 10.9684 48.5689 11.9094 48.5102 13.2507C48.427 15.1424 46.6529 18.6042 45.0876 21.6585C43.1709 25.3984 42.0113 27.7562 42.3065 29.0491C42.384 29.3887 42.6858 29.6187 43.0199 29.6187C43.0739 29.6187 43.1287 29.6126 43.1836 29.6001C43.578 29.5101 43.8246 29.1174 43.7346 28.723C43.7001 28.5719 43.6938 28.0476 44.3789 26.4481C44.8865 25.2628 45.6175 23.8365 46.3913 22.3265C48.1047 18.9831 49.8764 15.526 49.9738 13.3148C50.0628 11.2812 49.0794 9.74678 47.249 9.00303ZM26.9972 27.3398C26.9972 25.5683 28.4385 24.127 30.2101 24.127C31.0757 24.127 31.8883 24.4686 32.4902 25.075C31.9187 26.9657 31.4787 28.7657 31.1908 30.4C30.8761 30.5011 30.5478 30.5527 30.2101 30.5527C28.4385 30.5527 26.9972 29.1114 26.9972 27.3398ZM39.3376 28.9889C38.4553 30.6526 37.5499 32.1434 36.659 33.3892C34.5562 36.3296 33.2913 36.8246 32.918 36.6752C32.5435 36.5258 31.9667 35.2972 32.4641 31.7162C32.6748 30.1998 33.0451 28.4944 33.5493 26.681L39.3376 28.9889ZM43.2569 7.77773C43.099 7.71475 42.9379 7.66973 42.7759 7.63867L43.375 6.13594C43.4274 6.00469 43.5277 5.90166 43.6577 5.8458C43.7874 5.78994 43.9314 5.78799 44.0628 5.84033L46.0474 6.63174C46.3186 6.73984 46.4513 7.04834 46.3431 7.31943L45.7439 8.82236C45.6048 8.7334 45.4569 8.65527 45.2988 8.59229L43.2569 7.77773Z" fill="white"/>
</svg>
