<svg width="50" height="50" viewBox="0 0 50 50" fill="none" xmlns="http://www.w3.org/2000/svg">
<path d="M28.3333 24.8992C28.3333 23.35 27.2667 22.0567 25.8333 21.6842V13.2325C25.8333 12.7717 25.46 12.3992 25 12.3992C24.54 12.3992 24.1667 12.7717 24.1667 13.2325V21.6842C23.0008 21.9875 22.0883 22.9 21.785 24.0658H15.8333C15.3733 24.0658 15 24.4383 15 24.8992C15 25.36 15.3733 25.7325 15.8333 25.7325H21.785C22.1575 27.1667 23.4517 28.2325 25 28.2325C26.8383 28.2325 28.3333 26.7375 28.3333 24.8992ZM25 26.5658C24.0808 26.5658 23.3333 25.8183 23.3333 24.8992C23.3333 23.98 24.0808 23.2325 25 23.2325C25.9192 23.2325 26.6667 23.98 26.6667 24.8992C26.6667 25.8183 25.9192 26.5658 25 26.5658Z" fill="white"/>
<path d="M25.0001 8.23254C25.4601 8.23254 25.8334 7.86004 25.8334 7.39921V6.56588C25.8334 6.10504 25.4601 5.73254 25.0001 5.73254C24.5401 5.73254 24.1667 6.10504 24.1667 6.56588V7.39921C24.1667 7.86004 24.5401 8.23254 25.0001 8.23254Z" fill="white"/>
<path d="M24.1667 42.3991V43.2325C24.1667 43.6933 24.5401 44.0658 25.0001 44.0658C25.4601 44.0658 25.8334 43.6933 25.8334 43.2325V42.3991C25.8334 41.9383 25.4601 41.5658 25.0001 41.5658C24.5401 41.5658 24.1667 41.9383 24.1667 42.3991Z" fill="white"/>
<path d="M43.3334 25.7325C43.7934 25.7325 44.1668 25.36 44.1668 24.8991C44.1668 24.4383 43.7934 24.0658 43.3334 24.0658H42.5001C42.0401 24.0658 41.6667 24.4383 41.6667 24.8991C41.6667 25.36 42.0401 25.7325 42.5001 25.7325H43.3334Z" fill="white"/>
<path d="M6.66659 24.0658C6.20659 24.0658 5.83325 24.4383 5.83325 24.8991C5.83325 25.36 6.20659 25.7325 6.66659 25.7325H7.49992C7.95992 25.7325 8.33325 25.36 8.33325 24.8991C8.33325 24.4383 7.95992 24.0658 7.49992 24.0658H6.66659Z" fill="white"/>
<path d="M37.3741 13.3575C37.5874 13.3575 37.8007 13.2758 37.9632 13.1133L38.5524 12.5241C38.8782 12.1983 38.8782 11.6716 38.5524 11.3458C38.2266 11.02 37.6999 11.02 37.3741 11.3458L36.7849 11.935C36.4591 12.2608 36.4591 12.7875 36.7849 13.1133C36.9474 13.2766 37.1607 13.3575 37.3741 13.3575Z" fill="white"/>
<path d="M12.0367 36.6842L11.4475 37.2734C11.1217 37.5992 11.1217 38.1259 11.4475 38.4517C11.61 38.6142 11.8233 38.6959 12.0367 38.6959C12.25 38.6959 12.4633 38.6142 12.6258 38.4517L13.215 37.8625C13.5408 37.5367 13.5408 37.01 13.215 36.6842C12.8892 36.3584 12.3617 36.3584 12.0367 36.6842Z" fill="white"/>
<path d="M13.215 11.935L12.6258 11.3458C12.3 11.02 11.7733 11.02 11.4475 11.3458C11.1217 11.6716 11.1217 12.1983 11.4475 12.5241L12.0367 13.1133C12.1992 13.2758 12.4125 13.3575 12.6258 13.3575C12.8392 13.3575 13.0525 13.2758 13.215 13.1133C13.5408 12.7883 13.5408 12.2608 13.215 11.935Z" fill="white"/>
<path d="M25 0C11.215 0 0 11.215 0 25C0 38.785 11.215 50 25 50C27.98 50 30.8992 49.4792 33.6783 48.4508C34.11 48.2917 34.33 47.8117 34.1708 47.3808C34.0108 46.9475 33.5325 46.7275 33.1 46.8883C30.5067 47.8467 27.7817 48.3333 25 48.3333C12.1342 48.3333 1.66667 37.8658 1.66667 25C1.66667 12.1342 12.1342 1.66667 25 1.66667C37.8658 1.66667 48.3333 12.1342 48.3333 25C48.3333 27.7833 47.8467 30.5075 46.8875 33.0992C46.7283 33.5317 46.9483 34.0108 47.38 34.17C47.8117 34.3325 48.2908 34.11 48.4508 33.6783C49.4792 30.9008 50 27.9817 50 25C50 11.215 38.785 0 25 0Z" fill="white"/>
<path d="M41.6667 34.2508V33.3333C41.6667 32.8725 41.2934 32.5 40.8334 32.5C40.3734 32.5 40.0001 32.8725 40.0001 33.3333V34.2542C39.0909 34.4392 38.2626 34.9217 37.6517 35.6442C37.1426 36.2458 36.9067 37.0158 36.9901 37.8133C37.0751 38.6292 37.4951 39.3858 38.1426 39.8892L40.0001 41.3333V45.865C39.0326 45.52 38.3334 44.6033 38.3334 43.5183C38.3334 43.0575 37.9601 42.685 37.5001 42.685C37.0401 42.685 36.6667 43.0575 36.6667 43.5183C36.6667 45.53 38.1009 47.2133 40.0001 47.6008V48.3333C40.0001 48.7942 40.3734 49.1667 40.8334 49.1667C41.2934 49.1667 41.6667 48.7942 41.6667 48.3333V47.5983C42.5759 47.4133 43.4042 46.9308 44.0159 46.2083C44.5251 45.605 44.7601 44.835 44.6767 44.0375C44.5909 43.2225 44.1717 42.4667 43.5242 41.9642L41.6667 40.5183V35.9867C42.6342 36.3317 43.3334 37.2483 43.3334 38.3333C43.3334 38.7942 43.7067 39.1667 44.1667 39.1667C44.6267 39.1667 45.0001 38.7942 45.0001 38.3333C45.0001 36.3217 43.5659 34.6383 41.6667 34.2508ZM42.5009 43.2792C42.7917 43.505 42.9809 43.8458 43.0192 44.2108C43.0551 44.5525 42.9567 44.88 42.7434 45.1317C42.4534 45.4742 42.0784 45.7142 41.6667 45.8608V42.6292L42.5009 43.2792ZM39.1659 38.5733C38.8742 38.3467 38.6859 38.0058 38.6476 37.64C38.6126 37.2992 38.7101 36.9725 38.9234 36.72C39.2134 36.3775 39.5884 36.1375 40.0001 35.9908V39.2217L39.1659 38.5733Z" fill="white"/>
</svg>
