<svg width="50" height="50" viewBox="0 0 50 50" fill="none" xmlns="http://www.w3.org/2000/svg">
<g clip-path="url(#clip0)">
<path d="M41.9356 37.0968C37.4887 37.0968 33.8711 33.4792 33.8711 29.0323C33.8711 24.5854 37.4887 20.9678 41.9356 20.9678C46.3825 20.9678 50.0001 24.5854 50.0001 29.0323C50.0001 33.4792 46.3825 37.0968 41.9356 37.0968ZM41.9356 22.5807C38.3782 22.5807 35.484 25.4749 35.484 29.0323C35.484 32.5897 38.3782 35.4839 41.9356 35.4839C45.493 35.4839 48.3872 32.5897 48.3872 29.0323C48.3872 25.4749 45.493 22.5807 41.9356 22.5807Z" fill="white"/>
<path d="M41.9355 32.258C40.1564 32.258 38.7097 30.8113 38.7097 29.0322C38.7097 27.2531 40.1564 25.8064 41.9355 25.8064C43.7146 25.8064 45.1613 27.2531 45.1613 29.0322C45.1613 30.8113 43.7146 32.258 41.9355 32.258ZM41.9355 27.4193C41.046 27.4193 40.3226 28.1427 40.3226 29.0322C40.3226 29.9217 41.046 30.6451 41.9355 30.6451C42.8251 30.6451 43.5484 29.9217 43.5484 29.0322C43.5484 28.1427 42.8251 27.4193 41.9355 27.4193Z" fill="white"/>
<path d="M44.3551 40.3226H39.5164V35.8687H41.1293V38.7097H42.7422V35.8687H44.3551V40.3226Z" fill="white"/>
<path d="M13.7096 8.06452H8.06445V0H13.7096C15.9329 0 17.7419 1.809 17.7419 4.03226C17.7419 6.25551 15.9329 8.06452 13.7096 8.06452ZM9.67736 6.45161H13.7096C15.0433 6.45161 16.129 5.36597 16.129 4.03226C16.129 2.69854 15.0433 1.6129 13.7096 1.6129H9.67736V6.45161Z" fill="white"/>
<path d="M29.0322 8.06452H23.387C21.1637 8.06452 19.3547 6.25551 19.3547 4.03226C19.3547 1.809 21.1637 0 23.387 0H29.0322V8.06452ZM23.387 1.6129C22.0533 1.6129 20.9676 2.69854 20.9676 4.03226C20.9676 5.36597 22.0533 6.45161 23.387 6.45161H27.4193V1.6129H23.387Z" fill="white"/>
<path d="M25.1902 26.6129H24.1936V25H24.8099L31.4718 21.6687C33.947 20.4314 35.4839 17.9443 35.4839 15.1765V10.4839C35.4839 6.48155 32.2274 3.22582 28.2259 3.22582V1.61292C33.1169 1.61292 37.0968 5.5928 37.0968 10.4839V15.1765C37.0968 18.559 35.2177 21.5994 32.1928 23.1115L25.1902 26.6129Z" fill="white"/>
<path d="M25.1902 22.5807H24.1936V20.9678H24.8099L30.029 18.3582C31.404 17.6703 32.2581 16.2878 32.2581 14.7516V10.4839C32.2581 8.26065 30.4491 6.45165 28.2259 6.45165V4.83875C31.3387 4.83875 33.871 7.3719 33.871 10.4839V14.7516C33.871 16.9032 32.6751 18.8371 30.75 19.801L25.1902 22.5807Z" fill="white"/>
<path d="M12.9032 26.6129H11.9066L4.90329 23.1115C1.8791 21.5994 0 18.5598 0 15.1765V10.4839C0 5.5928 3.97989 1.61292 8.87097 1.61292V3.22582C4.86942 3.22582 1.6129 6.48155 1.6129 10.4839V15.1765C1.6129 17.9443 3.14981 20.4314 5.62508 21.6687L12.287 25H12.9032V26.6129Z" fill="white"/>
<path d="M12.9032 22.5807H11.9066L6.34689 19.801C4.42173 18.8371 3.22583 16.9032 3.22583 14.7516V10.4839C3.22583 7.3719 5.7582 4.83875 8.87099 4.83875V6.45165C6.64774 6.45165 4.83873 8.26065 4.83873 10.4839V14.7516C4.83873 16.2878 5.69283 17.6703 7.06789 18.3582L12.287 20.9678H12.9032V22.5807Z" fill="white"/>
<path d="M20.9677 33.871H16.1289V29.2571C16.1289 28.1073 15.3111 27.1099 14.1837 26.8846L12.0967 26.4676V20.9678H24.9999V26.4676L22.9121 26.8846C21.7855 27.1099 20.9677 28.1081 20.9677 29.2571V33.871ZM17.7418 32.2581H19.3548V29.2571C19.3548 27.3418 20.7176 25.6781 22.5959 25.3032L23.387 25.1453V22.5807H13.7096V25.1453L14.4999 25.3032C16.379 25.6789 17.7418 27.3418 17.7418 29.2571V32.2581Z" fill="white"/>
<path d="M37.0968 50H23.3871C20.2743 50 17.7419 47.4668 17.7419 44.3548V33.0645H19.3548V44.3548C19.3548 46.578 21.1639 48.387 23.3871 48.387H37.0968C39.32 48.387 41.129 46.578 41.129 44.3548V39.5161H42.7419V44.3548C42.7419 47.4668 40.2096 50 37.0968 50Z" fill="white"/>
</g>
<defs>
<clipPath id="clip0">
<rect width="50" height="50" fill="white"/>
</clipPath>
</defs>
</svg>
