<svg width="50" height="50" viewBox="0 0 50 50" fill="none" xmlns="http://www.w3.org/2000/svg">
<g clip-path="url(#clip0)">
<path d="M38.3132 22.0772C38.3132 20.4943 37.0255 19.2067 35.4426 19.2067H30.167C31.4488 17.766 32.2865 16.1254 32.4483 14.6537C32.5471 13.7547 32.2694 12.8625 31.6861 12.2055C31.153 11.605 30.424 11.2704 29.6334 11.263C29.6242 11.2629 29.615 11.2629 29.6059 11.2629C28.8412 11.2629 28.1234 11.5575 27.5817 12.0942C27.0399 12.631 26.7401 13.3461 26.7366 14.1093C26.7087 14.2764 26.4148 14.8525 25.6956 15.5365C25.1067 16.0966 24.0895 16.8667 22.5876 17.3542C21.9988 17.5455 21.4606 17.8975 20.9881 18.4006C20.7402 18.6645 20.3689 19.029 19.9092 19.3948C19.6836 19.2752 19.4271 19.2069 19.1545 19.2069H14.1441C13.2519 19.2069 12.5261 19.9327 12.5261 20.8249V34.186C12.5261 35.0782 13.2519 35.804 14.1441 35.804H19.1545C19.7627 35.804 20.2931 35.4663 20.5695 34.9689H33.3549C34.7076 34.9689 35.808 33.8685 35.808 32.5159C35.808 32.0611 35.6836 31.6349 35.467 31.2693C36.1718 30.8378 36.643 30.0607 36.643 29.1755C36.643 28.7208 36.5187 28.2946 36.3021 27.929C37.0069 27.4975 37.4781 26.7204 37.4781 25.8352C37.4781 25.3233 37.3205 24.8475 37.0512 24.4538C37.8123 23.9369 38.3132 23.0644 38.3132 22.0772ZM35.4426 23.382H35.0251C34.5927 23.382 34.2421 23.7325 34.2421 24.1649C34.2421 24.5972 34.5926 24.9478 35.0251 24.9478C35.5143 24.9478 35.9124 25.3459 35.9124 25.8351C35.9124 26.3244 35.5143 26.7224 35.0251 26.7224H34.19C33.7577 26.7224 33.4071 27.0729 33.4071 27.5053C33.4071 27.9376 33.7576 28.2882 34.19 28.2882C34.6793 28.2882 35.0773 28.6863 35.0773 29.1755C35.0773 29.6648 34.6793 30.0628 34.19 30.0628H33.3549C32.9226 30.0628 32.572 30.4133 32.572 30.8458C32.572 31.2781 32.9225 31.6287 33.3549 31.6287C33.8442 31.6287 34.2422 32.0267 34.2422 32.516C34.2422 33.0052 33.8442 33.4033 33.3549 33.4033H20.7725V25.8354C20.7725 25.4031 20.422 25.0525 19.9896 25.0525C19.5572 25.0525 19.2067 25.403 19.2067 25.8354V34.1861C19.2067 34.2149 19.1834 34.2382 19.1545 34.2382H14.1441C14.1153 34.2382 14.0919 34.2149 14.0919 34.1861V20.8246C14.0919 20.7958 14.1153 20.7724 14.1441 20.7724H19.1545C19.1834 20.7724 19.2067 20.7958 19.2067 20.8246V22.4948C19.2067 22.9271 19.5572 23.2777 19.9896 23.2777C20.422 23.2777 20.7725 22.9272 20.7725 22.4948V20.8246C20.7725 20.7866 20.7694 20.7494 20.7668 20.7121C21.3538 20.2577 21.8232 19.7983 22.1294 19.4723C22.4192 19.1636 22.736 18.9521 23.071 18.8434C24.9138 18.2452 26.154 17.2819 26.8697 16.5792C27.7668 15.6984 28.3022 14.7802 28.3022 14.1229C28.3022 13.7756 28.4377 13.4501 28.6836 13.2064C28.9327 12.9596 29.2625 12.8292 29.6188 12.8288C30.0577 12.8329 30.3483 13.0574 30.515 13.2451C30.8007 13.5668 30.9414 14.0295 30.8917 14.4826C30.7207 16.0381 29.4766 17.961 27.7223 19.3811C27.4646 19.5898 27.3663 19.9382 27.4769 20.2508C27.5876 20.5634 27.8833 20.7724 28.2149 20.7724H35.4424C36.162 20.7724 36.7472 21.3577 36.7472 22.0772C36.7472 22.7967 36.1621 23.382 35.4426 23.382Z" fill="white"/>
<path d="M16.6493 30.8894C16.217 30.8894 15.8623 31.2441 15.8623 31.6764C15.8623 32.1087 16.217 32.4634 16.6493 32.4634C17.0816 32.4634 17.4363 32.1087 17.4363 31.6764C17.4364 31.2442 17.0817 30.8894 16.6493 30.8894Z" fill="white"/>
<path d="M48.6043 25.0005L49.9492 21.4416C50.0471 21.1827 50.001 20.8914 49.8278 20.6753L47.449 17.7061L47.6283 13.9058C47.6414 13.6295 47.5074 13.3665 47.2761 13.2146L44.0963 11.1258L43.0926 7.45612C43.0195 7.18912 42.8109 6.98053 42.544 6.90758L38.8743 5.90387L36.7855 2.72408C36.6336 2.49274 36.3707 2.35934 36.0943 2.37194L32.294 2.55123L29.3249 0.172424C29.1089 -0.000622461 28.8176 -0.0468139 28.5586 0.0510377L24.9997 1.39596L21.441 0.0511353C21.1819 -0.0468139 20.8907 -0.000622472 20.6747 0.172522L17.7055 2.55133L13.9053 2.37203C13.6275 2.35895 13.3659 2.49293 13.214 2.72418L11.1254 5.90407L7.45565 6.90778C7.18865 6.98082 6.98006 7.18942 6.90711 7.45631L5.9034 11.126L2.72352 13.2147C2.49217 13.3667 2.35828 13.6296 2.37137 13.9059L2.55066 17.7062L0.171856 20.6754C-0.00119086 20.8914 -0.0473823 21.1827 0.0504693 21.4417L1.39529 25.0005L0.0503716 28.5592C-0.0475776 28.8181 -0.00138617 29.1094 0.171758 29.3256L2.55057 32.2947L2.37127 36.095C2.35818 36.3713 2.49217 36.6343 2.72342 36.7862L5.9033 38.875L6.90701 42.5447C6.98006 42.8117 7.18865 43.0203 7.45555 43.0932L11.1253 44.0969L13.2139 47.2768C13.3659 47.5082 13.6293 47.6412 13.9052 47.629L17.7055 47.4497L20.6746 49.8285C20.8906 50.0016 21.182 50.0478 21.4409 49.9499L24.9998 48.6049L28.5587 49.9499C28.6485 49.9838 28.7422 50.0004 28.8353 50.0004C29.0107 50.0004 29.1839 49.9415 29.3249 49.8285L32.294 47.4497L36.0943 47.629C36.3716 47.6413 36.6336 47.5081 36.7855 47.2768L38.8743 44.0969L42.544 43.0932C42.811 43.0202 43.0196 42.8116 43.0926 42.5447L44.0963 38.875L47.2761 36.7862C47.5075 36.6342 47.6414 36.3713 47.6283 36.095L47.449 32.2947L49.8278 29.3256C50.0009 29.1095 50.0471 28.8182 49.9492 28.5592L48.6043 25.0005ZM47.035 25.2772L48.3266 28.6951L46.0421 31.5465C45.9228 31.6953 45.862 31.8825 45.871 32.0729L46.0432 35.7226L42.9894 37.7286C42.8302 37.8332 42.7143 37.9924 42.664 38.1764L41.7001 41.7007L38.1758 42.6647C37.9919 42.715 37.8327 42.8307 37.7279 42.9901L35.722 46.0439L32.0722 45.8716C31.8817 45.8629 31.6946 45.9235 31.5459 46.0427L28.6944 48.3273L25.2765 47.0357C25.1874 47.002 25.0935 46.9852 24.9998 46.9852C24.906 46.9852 24.8122 47.0021 24.723 47.0357L21.3052 48.3273L18.4537 46.0427C18.305 45.9235 18.1175 45.8629 17.9273 45.8716L14.2776 46.0439L12.2717 42.9901C12.1671 42.8308 12.0078 42.715 11.8238 42.6647L8.29949 41.7007L7.33553 38.1764C7.28523 37.9925 7.16951 37.8334 7.01014 37.7286L3.95633 35.7226L4.12859 32.0729C4.13758 31.8824 4.07674 31.6953 3.9575 31.5465L1.67293 28.6951L2.96463 25.2772C3.03201 25.0989 3.03201 24.902 2.96463 24.7237L1.67293 21.3058L3.9575 18.4544C4.07674 18.3056 4.13758 18.1184 4.12859 17.928L3.95633 14.2783L7.01014 12.2723C7.16941 12.1677 7.28523 12.0085 7.33553 11.8245L8.29949 8.30016L11.8238 7.33619C12.0077 7.2859 12.1669 7.17018 12.2717 7.0108L14.2776 3.95699L17.9273 4.12926C18.1176 4.13815 18.305 4.0774 18.4537 3.95817L21.3052 1.6736L24.723 2.9653C24.9014 3.03268 25.0982 3.03268 25.2765 2.9653L28.6944 1.6736L31.5459 3.95817C31.6946 4.0775 31.8819 4.13824 32.0722 4.12926L35.722 3.95699L37.7279 7.0108C37.8325 7.17008 37.9918 7.2859 38.1758 7.33619L41.7001 8.30016L42.664 11.8245C42.7143 12.0084 42.8301 12.1675 42.9894 12.2723L46.0432 14.2783L45.871 17.928C45.862 18.1185 45.9228 18.3056 46.0421 18.4544L48.3266 21.3058L47.0349 24.7237C46.9677 24.9021 46.9677 25.0989 47.035 25.2772Z" fill="white"/>
<path d="M39.7103 11.4819C39.5155 11.2698 39.3135 11.0588 39.1095 10.8549C38.9055 10.651 38.6946 10.4489 38.4825 10.254C38.164 9.96165 37.6688 9.98275 37.3764 10.3013C37.084 10.6198 37.1051 11.1151 37.4236 11.4075C37.6192 11.5871 37.8139 11.7737 38.0022 11.9619C38.1904 12.1501 38.377 12.345 38.5568 12.5407C38.7112 12.7088 38.9222 12.7941 39.1338 12.7941C39.3229 12.7941 39.5127 12.7259 39.663 12.5879C39.9815 12.2956 40.0027 11.8003 39.7103 11.4819Z" fill="white"/>
<path d="M35.7024 8.11772C31.927 5.71245 27.3815 4.64351 22.9037 5.10708C18.3602 5.57778 14.076 7.61899 10.8401 10.8548C7.27885 14.4161 5.20541 19.1469 5.0017 24.1759C4.79926 29.1753 6.45512 34.0293 9.66439 37.8433C9.81918 38.0273 10.0407 38.1221 10.2639 38.1221C10.4418 38.1221 10.6207 38.0618 10.7675 37.9383C11.0983 37.6599 11.1409 37.1661 10.8625 36.8353C7.90541 33.3208 6.37963 28.8475 6.56615 24.2394C6.75385 19.6044 8.66478 15.2443 11.9471 11.9621C14.9295 8.97954 18.878 7.09819 23.0649 6.6645C27.1933 6.23677 31.3824 7.22202 34.861 9.43823C35.2257 9.67056 35.7095 9.56333 35.9418 9.19868C36.1743 8.83394 36.0669 8.35005 35.7024 8.11772Z" fill="white"/>
<path d="M41.8469 14.262C41.6146 13.8973 41.1304 13.7901 40.766 14.0224C40.4012 14.2547 40.2941 14.7387 40.5264 15.1032C42.7426 18.582 43.7277 22.7712 43.3001 26.8993C42.8664 31.0863 40.9851 35.0346 38.0027 38.0172C34.7203 41.2994 30.3602 43.2105 25.7253 43.3982C21.118 43.5855 16.6439 42.059 13.1294 39.102C12.7987 38.8236 12.3048 38.8661 12.0264 39.197C11.748 39.5278 11.7906 40.0216 12.1214 40.3C15.727 43.3337 20.2612 44.9794 24.9697 44.9793C25.242 44.9793 25.5155 44.9738 25.7889 44.9627C30.8179 44.7591 35.5487 42.6857 39.11 39.1244C42.3459 35.8885 44.3872 31.6042 44.8577 27.0608C45.3214 22.5826 44.2522 18.0373 41.8469 14.262Z" fill="white"/>
</g>
<defs>
<clipPath id="clip0">
<rect width="50" height="50" fill="white"/>
</clipPath>
</defs>
</svg>
