<svg width="50" height="50" viewBox="0 0 50 50" fill="none" xmlns="http://www.w3.org/2000/svg">
<g clip-path="url(#clip0)">
<path d="M43.0577 17.6146L40.4097 14.1551L40.9753 9.83465C41.0402 9.34015 40.7647 8.86362 40.3039 8.67288L36.2784 7.00624L34.6119 2.98076C34.4212 2.51989 33.9451 2.2448 33.4501 2.3093L29.1296 2.87492L25.6702 0.226991C25.2745 -0.0756637 24.7255 -0.0756637 24.3299 0.226991L20.8703 2.87503L16.5499 2.30941C16.0555 2.2448 15.5789 2.52 15.3882 2.98087L13.7215 7.00635L9.69604 8.67288C9.23517 8.86373 8.95975 9.34015 9.02458 9.83476L9.5902 14.1553L6.94216 17.6146C6.6394 18.0101 6.6394 18.5594 6.94216 18.9549L9.5902 22.4144L9.02458 26.7348C8.95975 27.2293 9.23517 27.7058 9.69604 27.8966L13.7215 29.5631L15.388 33.5887C15.5357 33.9456 15.8547 34.1906 16.2209 34.2531V48.8973C16.2209 49.2994 16.4398 49.6696 16.7923 49.8635C17.1444 50.0572 17.5745 50.0437 17.9141 49.8284L25.0001 45.3339L32.0861 49.8284C32.266 49.9425 32.4711 50 32.6766 50C32.8592 50 33.0421 49.9547 33.2079 49.8636C33.5602 49.6698 33.7792 49.2995 33.7792 48.8974V34.253C34.1448 34.1901 34.4643 33.9454 34.612 33.5888L36.2786 29.5633L40.3041 27.8968C40.765 27.7059 41.0404 27.2295 40.9755 26.7349L40.4099 22.4144L43.058 18.9549C43.3605 18.5595 43.3605 18.0101 43.0577 17.6146ZM25.5905 43.0974C25.23 42.8687 24.7699 42.8687 24.4094 43.0974L18.426 46.8925V34.0146L20.8702 33.6947L24.3298 36.3427C24.5276 36.4941 24.7637 36.5697 24.9999 36.5697C25.2361 36.5697 25.4722 36.494 25.67 36.3427L29.1296 33.6947L31.5738 34.0147V46.8925L25.5905 43.0974ZM38.382 21.4359C38.2047 21.6675 38.1264 21.9599 38.1642 22.2491L38.6791 26.1828L35.0128 27.7007C34.7425 27.8126 34.5277 28.0272 34.4158 28.2976L32.8978 31.964L28.9642 31.4489C28.6751 31.4112 28.3826 31.4894 28.1509 31.6667L24.9999 34.0786L21.8489 31.6667C21.6555 31.5186 21.4196 31.4397 21.1787 31.4397C21.1311 31.4397 21.0834 31.4428 21.0356 31.4489L17.1019 31.964L15.584 28.2975C15.4721 28.0271 15.2573 27.8125 14.987 27.7004L11.3207 26.1825L11.8356 22.249C11.8735 21.9598 11.7952 21.6674 11.6178 21.4358L9.20595 18.2846L11.6178 15.1336C11.7951 14.9019 11.8734 14.6095 11.8356 14.3203L11.3207 10.3867L14.9872 8.86903C15.2574 8.75711 15.4722 8.54244 15.5841 8.27209L17.1021 4.60573L21.0357 5.12074C21.325 5.15866 21.6173 5.08027 21.849 4.90298L25 2.49111L28.151 4.90298C28.3827 5.08027 28.6753 5.15866 28.9643 5.12074L32.898 4.60573L34.4159 8.27209C34.5278 8.54244 34.7425 8.75711 35.0129 8.86903L38.6792 10.387L38.1643 14.3206C38.1264 14.6098 38.2047 14.9022 38.3821 15.1338L40.794 18.2848L38.382 21.4359Z" fill="white"/>
<path d="M18.2652 11.1714C18.5113 11.1714 18.759 11.0894 18.9641 10.921C20.6591 9.52978 22.8026 8.7636 25 8.7636C25.6088 8.7636 26.1026 8.26999 26.1026 7.66104C26.1026 7.05209 25.6088 6.55847 25 6.55847C22.2938 6.55847 19.6534 7.50249 17.5649 9.21643C17.0942 9.60277 17.0259 10.2975 17.4122 10.7682C17.6302 11.0339 17.9464 11.1714 18.2652 11.1714Z" fill="white"/>
<path d="M28.9316 7.23419C28.3578 7.03021 27.7274 7.32978 27.5232 7.90334C27.3191 8.477 27.6186 9.10756 28.1923 9.31165C31.9778 10.6584 34.5211 14.2645 34.5211 18.2847C34.5211 23.5346 30.2499 27.8058 24.9999 27.8058C19.7499 27.8058 15.4788 23.5346 15.4788 18.2847C15.4788 16.4171 16.019 14.6095 17.0409 13.057C17.3758 12.5483 17.2349 11.8646 16.7263 11.5298C16.2178 11.195 15.5339 11.3357 15.1991 11.8445C13.9394 13.758 13.2737 15.9849 13.2737 18.2847C13.2737 24.7506 18.534 30.0109 24.9999 30.0109C31.4658 30.0109 36.7262 24.7506 36.7262 18.2847C36.7262 13.3339 33.5938 8.893 28.9316 7.23419Z" fill="white"/>
</g>
<defs>
<clipPath id="clip0">
<rect width="50" height="50" fill="white"/>
</clipPath>
</defs>
</svg>
