<svg width="18" height="16" viewBox="0 0 18 16" fill="none" xmlns="http://www.w3.org/2000/svg">
<path d="M1.72764 5.28807C1.95534 5.44874 2.64171 5.92595 3.78677 6.71944C4.93188 7.51294 5.8091 8.12391 6.41849 8.55239C6.48544 8.59935 6.62768 8.70145 6.84528 8.85882C7.06292 9.01629 7.24375 9.14355 7.38765 9.24061C7.53165 9.33765 7.70573 9.4465 7.91006 9.567C8.11433 9.68739 8.30688 9.77795 8.48768 9.8379C8.66852 9.89834 8.83591 9.92828 8.9899 9.92828H9H9.01013C9.16412 9.92828 9.33159 9.8983 9.51242 9.8379C9.69315 9.77795 9.88588 9.68728 10.09 9.567C10.2942 9.44636 10.4682 9.33761 10.6122 9.24061C10.7562 9.14355 10.9369 9.01629 11.1546 8.85882C11.3722 8.70131 11.5146 8.59935 11.5816 8.55239C12.1975 8.12391 13.7647 7.03569 16.2824 5.28786C16.7712 4.94649 17.1796 4.53458 17.5077 4.05241C17.836 3.57045 18 3.06485 18 2.53589C18 2.09387 17.8409 1.71548 17.5228 1.40078C17.2047 1.08601 16.8279 0.928711 16.3928 0.928711H1.60708C1.09148 0.928711 0.694703 1.10279 0.416801 1.45095C0.138934 1.79918 0 2.23445 0 2.75673C0 3.17859 0.184213 3.63575 0.552462 4.12791C0.920676 4.6201 1.31253 5.00686 1.72764 5.28807Z" fill="#FF6600"/>
<path d="M16.9954 6.36274C14.7992 7.84921 13.1316 9.00444 11.9933 9.82819C11.6116 10.1093 11.302 10.3288 11.0642 10.4861C10.8264 10.6434 10.5102 10.8041 10.115 10.9681C9.71998 11.1323 9.35184 11.2142 9.01026 11.2142H9.00002H8.98992C8.64841 11.2142 8.28006 11.1323 7.88504 10.9681C7.49001 10.8041 7.17355 10.6434 6.93583 10.4861C6.69817 10.3288 6.38843 10.1093 6.00678 9.82819C5.10271 9.16529 3.43868 8.00999 1.01461 6.36274C0.632817 6.10844 0.294648 5.81696 0 5.48889V13.4641C0 13.9063 0.157298 14.2845 0.472071 14.5992C0.786773 14.9141 1.16519 15.0715 1.60718 15.0715H16.3929C16.8348 15.0715 17.2132 14.9141 17.5279 14.5992C17.8428 14.2844 18 13.9064 18 13.4641V5.48889C17.712 5.81017 17.3773 6.10165 16.9954 6.36274Z" fill="#FF6600"/>
</svg>
