<svg width="51" height="51" viewBox="0 0 51 51" fill="none" xmlns="http://www.w3.org/2000/svg">
<g clip-path="url(#clip0)">
<path d="M50.9017 27.8557C50.4438 23.2499 48.3861 18.9078 45.1075 15.6291C42.3057 12.8273 38.8763 11.0269 35.2677 10.2263V7.69539C36.7416 7.32872 37.8371 5.99463 37.8371 4.40893C37.8371 2.54142 36.3178 1.02216 34.4503 1.02216H27.2784C25.4108 1.02216 23.8916 2.54142 23.8916 4.40893C23.8916 5.99453 24.9871 7.32862 26.4608 7.69539V10.2334C22.8634 11.0373 19.4453 12.8353 16.6515 15.6292C16.04 16.2406 15.4763 16.882 14.9602 17.5486C14.9352 17.5467 14.9102 17.5448 14.8847 17.5448H7.78629C7.23624 17.5448 6.79018 17.9908 6.79018 18.5409C6.79018 19.0911 7.23624 19.537 7.78629 19.537H13.6048C12.8744 20.7598 12.2855 22.0438 11.8373 23.3657H0.996109C0.446058 23.3657 0 23.8116 0 24.3618C0 24.9119 0.446058 25.3579 0.996109 25.3579H11.2744C10.9873 26.6181 10.8225 27.9006 10.78 29.1866H6.3751C5.82505 29.1866 5.37899 29.6326 5.37899 30.1828C5.37899 30.7329 5.82505 31.1789 6.3751 31.1789H10.8118C10.8958 32.4682 11.1031 33.7508 11.4337 35.0076H4.98055C4.4305 35.0076 3.98444 35.4536 3.98444 36.0037C3.98444 36.5539 4.4305 36.9998 4.98055 36.9998H12.0695C13.0466 39.5848 14.5738 42.0077 16.6515 44.0854C19.9332 47.3671 24.2799 49.4253 28.8905 49.8808C29.5485 49.9458 30.207 49.9779 30.8646 49.9779C34.7517 49.9779 38.5893 48.853 41.8456 46.7325C42.3066 46.4323 42.4369 45.8152 42.1367 45.3542C41.8365 44.8932 41.2194 44.7628 40.7584 45.063C33.6305 49.7046 24.0845 48.701 18.0602 42.6767C10.9916 35.6081 10.9916 24.1067 18.0602 17.038C25.1287 9.96951 36.63 9.96951 43.6987 17.038C49.7151 23.0545 50.7242 32.5923 46.0979 39.7167C45.7983 40.1781 45.9295 40.7951 46.3908 41.0946C46.8524 41.3943 47.4692 41.2631 47.7687 40.8017C50.2405 36.995 51.3531 32.3975 50.9017 27.8557ZM25.8838 4.40903C25.8838 3.64003 26.5094 3.01447 27.2784 3.01447H34.4503C35.2193 3.01447 35.8449 3.64003 35.8449 4.40903C35.8449 5.17802 35.2193 5.80358 34.4503 5.80358H34.2716H27.457H27.2784C26.5094 5.80358 25.8838 5.17792 25.8838 4.40903ZM28.4531 9.89091V7.7958H33.2755V9.88733C31.6742 9.69687 30.0541 9.69807 28.4531 9.89091Z" fill="#FF6600"/>
<path d="M44.4033 42.3844C44.1404 42.3844 43.8844 42.491 43.6992 42.6763C43.5129 42.8615 43.4072 43.1185 43.4072 43.3805C43.4072 43.6425 43.5129 43.8995 43.6992 44.0847C43.8844 44.271 44.1405 44.3766 44.4033 44.3766C44.6653 44.3766 44.9213 44.271 45.1076 44.0847C45.2928 43.8995 45.3994 43.6425 45.3994 43.3805C45.3994 43.1185 45.2929 42.8615 45.1076 42.6763C44.9213 42.491 44.6652 42.3844 44.4033 42.3844Z" fill="#FF6600"/>
<path d="M30.8793 14.4046C22.3588 14.4046 15.4268 21.3365 15.4268 29.8571C15.4268 38.3778 22.3588 45.3097 30.8793 45.3097C39.3998 45.3097 46.3318 38.3778 46.3318 29.8571C46.3318 21.3365 39.3998 14.4046 30.8793 14.4046ZM30.8793 43.3175C23.4572 43.3175 17.419 37.2792 17.419 29.8571C17.419 22.4351 23.4572 16.3968 30.8793 16.3968C38.3014 16.3968 44.3396 22.4351 44.3396 29.8571C44.3396 37.2792 38.3014 43.3175 30.8793 43.3175Z" fill="#FF6600"/>
<path d="M37.1804 22.1475L32.2466 27.0811C31.834 26.8771 31.37 26.7619 30.8794 26.7619C30.3887 26.7619 29.9247 26.8771 29.5121 27.0811L27.304 24.8731C26.915 24.4841 26.2844 24.4841 25.8953 24.8731C25.5063 25.262 25.5063 25.8928 25.8953 26.2818L28.1033 28.4898C27.8992 28.9024 27.7841 29.3665 27.7841 29.8571C27.7841 31.5638 29.1725 32.9524 30.8794 32.9524C32.5862 32.9524 33.9747 31.5638 33.9747 29.8571C33.9747 29.3665 33.8594 28.9024 33.6554 28.4898L38.4443 23.7009L38.5891 23.5562C38.978 23.1672 38.978 22.5365 38.5891 22.1475C38.2001 21.7585 37.5695 21.7585 37.1804 22.1475ZM30.8794 30.9603C30.2712 30.9603 29.7763 30.4654 29.7763 29.8572C29.7763 29.249 30.2712 28.7541 30.8794 28.7541C31.4876 28.7541 31.9825 29.249 31.9825 29.8572C31.9825 30.4654 31.4876 30.9603 30.8794 30.9603Z" fill="#FF6600"/>
<path d="M41.5298 28.8732H40.6069C40.0569 28.8732 39.6108 29.3192 39.6108 29.8693C39.6108 30.4195 40.0569 30.8654 40.6069 30.8654H41.5298C42.0799 30.8654 42.5259 30.4195 42.5259 29.8693C42.5259 29.3192 42.0799 28.8732 41.5298 28.8732Z" fill="#FF6600"/>
<path d="M21.1518 28.8489H20.229C19.679 28.8489 19.2329 29.2948 19.2329 29.845C19.2329 30.3951 19.679 30.8411 20.229 30.8411H21.1518C21.7018 30.8411 22.1479 30.3951 22.1479 29.845C22.1479 29.2948 21.7018 28.8489 21.1518 28.8489Z" fill="#FF6600"/>
<path d="M30.8916 21.1257C31.4416 21.1257 31.8877 20.6797 31.8877 20.1296V19.2068C31.8877 18.6566 31.4416 18.2107 30.8916 18.2107C30.3416 18.2107 29.8955 18.6566 29.8955 19.2068V20.1296C29.8955 20.6797 30.3416 21.1257 30.8916 21.1257Z" fill="#FF6600"/>
<path d="M30.8672 38.5886C30.3171 38.5886 29.8711 39.0345 29.8711 39.5847V40.5074C29.8711 41.0576 30.3171 41.5035 30.8672 41.5035C31.4172 41.5035 31.8633 41.0576 31.8633 40.5074V39.5847C31.8633 39.0345 31.4172 38.5886 30.8672 38.5886Z" fill="#FF6600"/>
<path d="M0.996094 35.0072C0.734121 35.0072 0.477129 35.1138 0.291855 35.2991C0.106582 35.4843 0 35.7413 0 36.0033C0 36.2663 0.106482 36.5223 0.291855 36.7075C0.477229 36.8928 0.734121 36.9994 0.996094 36.9994C1.25807 36.9994 1.51506 36.8928 1.70023 36.7075C1.88551 36.5223 1.99219 36.2653 1.99219 36.0033C1.99219 35.7413 1.88561 35.4843 1.70023 35.2991C1.51506 35.1138 1.25807 35.0072 0.996094 35.0072Z" fill="#FF6600"/>
</g>
<defs>
<clipPath id="clip0">
<rect width="51" height="51" fill="white"/>
</clipPath>
</defs>
</svg>
