<svg width="55" height="55" viewBox="0 0 55 55" fill="none" xmlns="http://www.w3.org/2000/svg">
<path d="M51.1727 25.9284H52.8852C54.0513 25.9284 54.9999 24.9797 54.9999 23.8137V22.0852C54.9999 20.9192 54.0513 19.9705 52.8852 19.9705H48.0549V19.8029C48.0549 17.8993 46.5063 16.3506 44.6026 16.3506H43.0042L43.4886 11.5427C43.5488 11.0141 43.3801 10.4834 43.0258 10.0866C42.6716 9.68974 42.1634 9.46211 41.6315 9.46211H41.3651V8.09699C41.3651 7.65205 41.0044 7.29133 40.5594 7.29133C40.1143 7.29133 39.7537 7.65205 39.7537 8.09699V9.46211H38.5638V6.56494C38.5638 6.12 38.2032 5.75928 37.7581 5.75928C37.3131 5.75928 36.9525 6.12 36.9525 6.56494V9.462H36.5543C36.0223 9.462 35.514 9.68963 35.1599 10.0864C34.8057 10.4833 34.637 11.014 34.6962 11.5322L35.1816 16.3506H34.6732C32.7696 16.3506 31.2209 17.8993 31.2209 19.8029V19.9705H22.0414C22.0806 19.7973 22.1023 19.62 22.1023 19.4395V18.9724C22.1023 18.0371 21.5657 17.2253 20.7845 16.8271V13.0743C20.7845 12.6293 20.4238 12.2686 19.9789 12.2686H14.6424C14.1974 12.2686 13.8367 12.6293 13.8367 13.0743C13.8367 13.5192 14.1974 13.8799 14.6424 13.8799H19.1732V16.5655H8.23528C7.49482 16.5655 6.89251 15.9632 6.89251 15.2227C6.89251 14.4823 7.49482 13.8799 8.23528 13.8799H11.4197C11.8646 13.8799 12.2254 13.5192 12.2254 13.0743C12.2254 12.6293 11.8646 12.2686 11.4197 12.2686H8.23528C6.60634 12.2686 5.28118 13.5938 5.28118 15.2227C5.28118 15.7061 5.39859 16.1623 5.60538 16.5655H4.69036C4.24542 16.5655 3.8847 16.9262 3.8847 17.3712V19.9705H2.11471C0.948643 19.9705 0 20.9193 0 22.0852V23.8137C0 24.9797 0.948643 25.9284 2.11471 25.9284H3.82723V47.1258C3.82723 47.2995 3.85064 47.4675 3.89028 47.6292H0.805664C0.360723 47.6292 0 47.9899 0 48.4349C0 48.8798 0.360723 49.2405 0.805664 49.2405H54.1943C54.6394 49.2405 55 48.8798 55 48.4349C55 47.9899 54.6394 47.6292 54.1943 47.6292H51.1096C51.1494 47.4675 51.1727 47.2995 51.1727 47.1258V25.9284ZM44.6027 17.9621C45.6178 17.9621 46.4436 18.7879 46.4436 19.803V19.9706H42.6396L42.842 17.9621H44.6027ZM36.362 11.1595C36.3907 11.1274 36.4538 11.0733 36.5543 11.0733H41.6316C41.732 11.0733 41.7951 11.1273 41.8238 11.1595C41.8526 11.1916 41.899 11.2605 41.8866 11.3708L41.0201 19.9705H37.1656L36.8738 17.0743C36.874 17.0747 36.8738 17.0741 36.8738 17.0743L36.2982 11.3603C36.2868 11.2606 36.3332 11.1917 36.362 11.1595ZM32.8322 19.8029C32.8322 18.7878 33.6581 17.962 34.6732 17.962H35.3439L35.5463 19.9705H32.8323L32.8322 19.8029ZM5.49603 18.1769H19.6954C20.134 18.1769 20.4909 18.5338 20.4909 18.9725V19.4396C20.4909 19.5473 20.47 19.6514 20.4287 19.7488C20.398 19.8214 20.3793 19.896 20.3707 19.9705H5.49603V18.1769ZM1.61133 23.8137V22.0852C1.61133 21.8077 1.83713 21.5819 2.11471 21.5819H52.8853C53.1629 21.5819 53.3887 21.8077 53.3887 22.0852V23.8137C53.3887 24.0912 53.1628 24.317 52.8853 24.317H18.7703C18.3253 24.317 17.9646 24.6778 17.9646 25.1227C17.9646 25.5676 18.3253 25.9284 18.7703 25.9284H24.6512V31.7094H9.58687V25.9284H15.5476C15.9925 25.9284 16.3533 25.5676 16.3533 25.1227C16.3533 24.6778 15.9925 24.317 15.5476 24.317H2.11471C1.83713 24.317 1.61133 24.0912 1.61133 23.8137ZM9.58687 47.1258V33.3208H24.6512V34.1112C24.6512 35.5882 25.8528 36.7898 27.3296 36.7898H27.67C29.147 36.7898 30.3485 35.5882 30.3485 34.1112V33.3208H33.4191C33.8641 33.3208 34.2247 32.9601 34.2247 32.5152C34.2247 32.0702 33.8641 31.7095 33.4191 31.7095H30.3485V25.9284H45.4128V31.7094H36.6417C36.1967 31.7094 35.836 32.0701 35.836 32.5151C35.836 32.96 36.1967 33.3207 36.6417 33.3207H45.4128V47.1257C45.4128 47.2994 45.4362 47.4674 45.4759 47.6291H9.52381C9.56345 47.4675 9.58687 47.2995 9.58687 47.1258ZM26.2625 25.9284H28.7373V34.1111C28.7373 34.6996 28.2585 35.1784 27.6702 35.1784H27.3297C26.7413 35.1784 26.2626 34.6996 26.2626 34.1111L26.2625 25.9284ZM5.94193 47.6292C5.66436 47.6292 5.43845 47.4033 5.43845 47.1258V25.9284H7.97543V47.1258C7.97543 47.4034 7.74963 47.6292 7.47205 47.6292H5.94193ZM47.5277 47.6292C47.2502 47.6292 47.0244 47.4033 47.0244 47.1258V25.9284H49.5613V47.1258C49.5613 47.4034 49.3355 47.6292 49.058 47.6292H47.5277Z" fill="#FF6600"/>
</svg>
