<svg width="50" height="50" viewBox="0 0 50 50" fill="none" xmlns="http://www.w3.org/2000/svg">
<path d="M15.2215 34.8326L15.1928 34.804C14.8106 34.4236 14.1923 34.425 13.8117 34.8073C13.4313 35.1896 13.4327 35.8079 13.8151 36.1884L13.847 36.2201C14.0374 36.4088 14.2859 36.5029 14.5342 36.5029C14.7857 36.5029 15.0371 36.4063 15.228 36.2137C15.6076 35.8305 15.6047 35.2122 15.2215 34.8326Z" fill="#FF6600"/>
<path d="M36.1867 13.8134C30.0183 7.64504 19.9816 7.64504 13.8133 13.8134C8.76366 18.863 7.72293 26.707 11.2823 32.8884C11.5515 33.3558 12.1486 33.5164 12.6159 33.2474C13.0833 32.9782 13.244 32.3812 12.9749 31.9138C9.85526 26.4961 10.768 19.6209 15.1943 15.1945C20.6012 9.78762 29.3988 9.78762 34.8056 15.1945C40.2124 20.6013 40.2124 29.3989 34.8056 34.8057C30.3522 39.259 23.4483 40.155 18.0166 36.9847C17.5507 36.7127 16.9527 36.8699 16.6808 37.3359C16.409 37.8017 16.5662 38.3997 17.032 38.6716C19.5104 40.1182 22.2569 40.8227 24.9862 40.8227C29.0817 40.8227 33.138 39.2355 36.1867 36.1867C42.355 30.0184 42.355 19.9818 36.1867 13.8134Z" fill="#FF6600"/>
<path d="M49.9966 20.7092C49.9964 20.229 49.6471 19.8201 49.1729 19.745L45.5681 19.1738L43.6557 14.5618L45.7985 11.6073C46.0805 11.2187 46.038 10.6826 45.6983 10.3433L39.6416 4.29063C39.3019 3.95117 38.7658 3.90898 38.3773 4.19131L35.4257 6.33555L30.8104 4.42588L30.2368 0.822949C30.1612 0.348926 29.7524 0 29.2724 0C29.2723 0 29.2721 0 29.272 0L20.7092 0.00351562C20.229 0.00371094 19.8202 0.353027 19.745 0.827246L19.1739 4.43203L14.5619 6.34443L11.6074 4.20156C11.2188 3.91963 10.6828 3.96211 10.3434 4.30176L4.29072 10.3585C3.95127 10.6982 3.90918 11.2343 4.19141 11.6228L6.33564 14.5744L4.42598 19.1896L0.823047 19.7633C0.348828 19.8388 -0.000195231 20.2479 8.19313e-08 20.728L0.00351571 29.2907C0.00371102 29.7709 0.353027 30.1798 0.827246 30.2549L4.43203 30.8261L6.34443 35.4381L4.20156 38.3926C3.91963 38.7812 3.96211 39.3173 4.30176 39.6566L10.3585 45.7093C10.6982 46.0487 11.2344 46.0909 11.6228 45.8086L14.5744 43.6644L19.1896 45.574L19.7633 49.177C19.8388 49.6511 20.2476 50 20.7276 50C20.7277 50 20.7279 50 20.728 50L29.2907 49.9964C29.7709 49.9962 30.1797 49.6469 30.2549 49.1727L30.8261 45.5679L35.4381 43.6555L38.3926 45.7983C38.7812 46.0804 39.3173 46.0378 39.6566 45.6981L45.7093 39.6414C46.0487 39.3017 46.0908 38.7656 45.8086 38.3771L43.6644 35.4255L45.574 30.8103L49.177 30.2366C49.6512 30.1611 50.0002 29.7521 50 29.2719L49.9966 20.7092ZM44.7272 28.9674C44.3918 29.0208 44.1083 29.2445 43.9784 29.5584L41.6508 35.1838C41.5209 35.4976 41.5635 35.8563 41.7631 36.1312L43.7386 38.8505L38.8646 43.7278L36.1424 41.7535C35.8676 41.5541 35.5088 41.512 35.1949 41.6419L29.573 43.9731C29.2594 44.1032 29.0357 44.3869 28.9826 44.7224L28.4563 48.0436L21.5611 48.0465L21.0326 44.7271C20.9792 44.3917 20.7555 44.1082 20.4416 43.9783L14.8162 41.6507C14.696 41.6009 14.5691 41.5765 14.443 41.5765C14.2398 41.5765 14.0384 41.6398 13.8689 41.763L11.1496 43.7385L6.27227 38.8645L8.24658 36.1423C8.446 35.8674 8.48818 35.5086 8.35811 35.1948L6.02695 29.5729C5.89687 29.2593 5.61318 29.0356 5.27773 28.9825L1.95645 28.4562L1.95361 21.561L5.27295 21.0325C5.6084 20.9791 5.89189 20.7554 6.02178 20.4415L8.34941 14.8161C8.4793 14.5023 8.43672 14.1436 8.23711 13.8688L6.26162 11.1494L11.1356 6.27207L13.8578 8.24639C14.1328 8.4458 14.4915 8.48818 14.8053 8.35801L20.4271 6.02676C20.7408 5.89668 20.9645 5.61289 21.0176 5.27754L21.5438 1.95625L28.4391 1.95342L28.9676 5.27275C29.021 5.6082 29.2447 5.8917 29.5586 6.02158L35.184 8.34922C35.4978 8.47891 35.8565 8.43652 36.1313 8.23691L38.8507 6.26143L43.728 11.1354L41.7537 13.8576C41.5543 14.1325 41.5121 14.4913 41.6422 14.8051L43.9733 20.427C44.1034 20.7406 44.3871 20.9643 44.7226 21.0174L48.0438 21.5437L48.0467 28.4389L44.7272 28.9674Z" fill="#FF6600"/>
<path d="M33.8967 26.2166C32.6753 25.1069 31.0339 24.625 29.4136 24.8771L25.1248 20.5884C25.3857 18.8895 24.8254 17.1413 23.5974 15.9132C22.0578 14.3735 19.7558 13.9019 17.7329 14.7116C17.4282 14.8336 17.2051 15.1005 17.1392 15.422C17.0732 15.7434 17.1732 16.0766 17.4053 16.3088L18.8213 17.7248C19.121 18.0245 19.121 18.5122 18.8213 18.812C18.5216 19.1118 18.0339 19.1118 17.7341 18.812L16.3132 17.391C16.0816 17.1594 15.7495 17.0592 15.4284 17.1245C15.1074 17.1896 14.8404 17.4114 14.7175 17.715C13.8661 19.8178 14.4232 22.2563 16.1037 23.7832C17.3264 24.8942 18.9691 25.3761 20.5912 25.1222L24.876 29.4071C24.6135 31.1073 25.1735 32.8572 26.4029 34.0867C27.4432 35.127 28.8293 35.6796 30.243 35.6795C30.9286 35.6795 31.621 35.5494 32.2831 35.2819C32.587 35.1593 32.809 34.8923 32.8744 34.5712C32.9397 34.2501 32.8397 33.9177 32.6079 33.6859L31.1984 32.2763C30.8987 31.9765 30.8987 31.4888 31.1984 31.189C31.4981 30.8892 31.9858 30.8892 32.2856 31.189L33.6923 32.5958C33.9243 32.8277 34.2573 32.9279 34.5787 32.862C34.9002 32.7962 35.167 32.5734 35.2892 32.2689C36.1312 30.1705 35.5716 27.7383 33.8967 26.2166ZM33.6665 29.8081C32.6052 28.7469 30.8784 28.7468 29.8171 29.8081C28.7559 30.8694 28.7559 32.5962 29.8171 33.6574L29.8648 33.7052C29.0937 33.6206 28.3568 33.2786 27.7838 32.7056C26.9078 31.8296 26.5623 30.5404 26.8826 29.3412C26.9725 29.0044 26.8761 28.6453 26.6296 28.3988L21.5992 23.3683C21.4136 23.1828 21.1642 23.0823 20.9085 23.0823C20.8251 23.0823 20.741 23.093 20.6582 23.1149C19.5017 23.4221 18.29 23.1312 17.4168 22.3379C16.7755 21.755 16.3893 20.9651 16.2968 20.137L16.353 20.1932C17.4143 21.2544 19.1411 21.2545 20.2024 20.1932C21.2636 19.1318 21.2636 17.4051 20.2024 16.3438L20.1562 16.2976C20.9199 16.3861 21.6491 16.727 22.2162 17.2944C23.0913 18.1695 23.437 19.4575 23.1183 20.6557C23.0287 20.9923 23.1252 21.3511 23.3715 21.5973L28.4049 26.6307C28.6508 26.8765 29.0086 26.9732 29.345 26.8844C30.5003 26.5791 31.711 26.8699 32.5832 27.6623C33.2187 28.2396 33.6038 29.0214 33.7005 29.8421L33.6665 29.8081Z" fill="#FF6600"/>
<path d="M33.9201 18.0263C32.3106 15.9703 30.029 14.5241 27.4953 13.954C26.9693 13.8355 26.4466 14.1661 26.3282 14.6924C26.2099 15.2186 26.5403 15.7411 27.0666 15.8595C29.162 16.3309 31.0498 17.528 32.3822 19.2303C32.5749 19.4764 32.8619 19.6049 33.1519 19.6049C33.3624 19.6049 33.5745 19.5371 33.7531 19.3973C34.1778 19.0648 34.2526 18.451 33.9201 18.0263Z" fill="#FF6600"/>
<path d="M35.7861 21.5477L35.7719 21.5036C35.6061 20.9903 35.0559 20.7089 34.5425 20.8744C34.0292 21.0401 33.7475 21.5905 33.9133 22.1038L33.9257 22.1421C34.0582 22.557 34.4423 22.8218 34.8557 22.8218C34.9541 22.8218 35.0543 22.8067 35.153 22.7752C35.6668 22.611 35.9503 22.0615 35.7861 21.5477Z" fill="#FF6600"/>
</svg>
