<svg width="50" height="50" viewBox="0 0 50 50" fill="none" xmlns="http://www.w3.org/2000/svg">
<g clip-path="url(#clip0)">
<path d="M49.1143 21.4199C48.5958 20.6372 47.81 20.0978 46.8964 19.8933C47.4858 18.7661 47.4617 17.3596 46.711 16.2262C46.1769 15.4194 45.3713 14.8983 44.4943 14.7011C44.6507 14.4028 44.7663 14.0808 44.8353 13.7413C45.0268 12.7972 44.8399 11.8351 44.3077 11.0321C43.7893 10.249 43.0035 9.70958 42.0899 9.50549C42.6792 8.37825 42.6552 6.97177 41.9045 5.83804C40.807 4.18055 38.5647 3.7247 36.9068 4.82257L33.3172 7.19989C31.4038 6.22943 29.3686 5.54088 27.2564 5.14873C26.5888 4.13516 25.8125 3.19293 24.9436 2.35064L23.4585 0.911357C22.3709 -0.143026 20.6654 -0.301336 19.4027 0.535228C17.9089 1.52438 17.4984 3.54464 18.4876 5.03848C18.5265 5.09761 18.5646 5.15712 18.6024 5.21663C13.7344 6.20158 9.29795 8.7849 6.01426 12.5702C2.45094 16.6783 0.488281 21.9395 0.488281 27.3846C0.488281 28.4283 0.559616 29.4739 0.70076 30.4917C1.78833 38.4038 7.05872 45.2221 14.4547 48.2865C17.1974 49.4233 20.1077 50.0001 23.1033 50.0001C27.8477 50.0001 32.3891 48.547 36.237 45.7985C40.0013 43.1092 42.8177 39.3979 44.3821 35.0659C44.5282 34.6623 44.3188 34.2164 43.9152 34.0706C43.5112 33.9249 43.0657 34.134 42.92 34.5379C41.4631 38.572 38.8398 42.0281 35.3329 44.5332C31.7505 47.0925 27.5215 48.4452 23.1033 48.4452C20.8191 48.4452 18.5887 48.0847 16.4539 47.3736L22.7795 43.1847C22.7799 43.1843 22.7802 43.1843 22.7806 43.184C22.781 43.184 22.781 43.1836 22.7814 43.1832L28.0384 39.7019H28.0388C28.5107 39.3891 28.833 38.9115 28.9459 38.3564C29.0589 37.8014 28.949 37.2353 28.6362 36.7634L28.5668 36.6581L29.588 35.9818C30.3166 35.4992 31.1928 35.31 32.0557 35.4485C33.305 35.6492 34.5738 35.3745 35.6282 34.676L44.0983 29.0669C44.0403 29.8016 43.945 30.5321 43.8118 31.2504C43.7332 31.6727 44.0121 32.0786 44.4344 32.1568C44.4821 32.166 44.5301 32.1702 44.5771 32.1702C44.9444 32.1702 45.271 31.9085 45.3404 31.5342C45.5559 30.375 45.6799 29.1874 45.7119 27.9984L48.0988 26.4176C48.9018 25.8858 49.45 25.0729 49.6415 24.1291C49.8333 23.185 49.646 22.2229 49.1143 21.4199ZM31.8077 8.19934L29.4323 9.77252L28.9646 8.51253C28.7693 7.98686 28.5454 7.4715 28.2974 6.96719C29.5025 7.27275 30.6759 7.68474 31.8077 8.19934ZM7.1888 13.5891C10.3447 9.95105 14.6435 7.50545 19.3463 6.65744C20.1008 8.48544 20.2816 10.5278 19.8307 12.4745L17.9352 20.6635C17.6373 20.3453 17.2505 20.126 16.8148 20.0375C16.2594 19.9242 15.6937 20.0344 15.2218 20.3473L9.85261 23.9026C9.85223 23.9026 9.85223 23.9026 9.85184 23.9029C9.85184 23.9029 9.85146 23.9029 9.85146 23.9033L2.10762 29.0314C2.06528 28.4851 2.04315 27.9347 2.04315 27.3846C2.04315 22.3141 3.87078 17.4145 7.1888 13.5891ZM27.4224 38.0463C27.3922 38.1943 27.306 38.3221 27.1797 38.4057H27.1801L22.5628 41.4631L13.9931 28.6828C13.7539 28.3261 13.271 28.2311 12.9143 28.4703C12.558 28.7095 12.4626 29.192 12.7018 29.5487L21.2662 42.3218L14.6748 46.687C8.12493 43.8222 3.43781 37.772 2.31095 30.732L10.0639 25.6146L10.9562 26.9459C11.1065 27.1695 11.3522 27.2904 11.6028 27.2904C11.7516 27.2904 11.9022 27.248 12.035 27.1588C12.3917 26.9196 12.487 26.4367 12.2479 26.08L11.3617 24.7582L16.0805 21.6435C16.206 21.5599 16.3567 21.531 16.5047 21.5611C16.6527 21.5912 16.7805 21.6774 16.864 21.8033L27.34 37.6221C27.4231 37.7476 27.4525 37.8983 27.4224 38.0463ZM48.1179 23.8194C48.0088 24.3565 47.6971 24.8188 47.2401 25.1213L44.5114 26.9284C44.5107 26.9288 44.5099 26.9295 44.5088 26.9299L34.7695 33.3798C34.0409 33.8624 33.1646 34.0519 32.3017 33.9131C31.0528 33.7128 29.784 33.9871 28.7293 34.6856L27.7081 35.3619L19.128 22.406L21.3459 12.8254C21.917 10.3573 21.616 7.7576 20.528 5.49281C20.5181 5.46916 20.5074 5.44627 20.4952 5.42377C20.2862 4.99576 20.0489 4.58034 19.7838 4.17979C19.2681 3.40083 19.4821 2.34759 20.2614 1.83146C20.9198 1.39544 21.8094 1.47784 22.3763 2.02754L23.8613 3.46721C25.4677 5.02475 26.7285 6.95651 27.5067 9.05383L28.3154 11.2324C28.3169 11.2366 28.3184 11.24 28.32 11.2439C28.3219 11.2488 28.3241 11.2542 28.3261 11.2591C28.3318 11.2725 28.3371 11.2847 28.3428 11.295C28.3585 11.3278 28.3756 11.3602 28.3962 11.3911C28.6335 11.7493 29.1157 11.8473 29.4735 11.6101L37.7655 6.11918C38.7085 5.49472 39.9838 5.75374 40.6082 6.69673C41.2327 7.63972 40.9737 8.91498 40.0307 9.53944L39.3109 10.0163C39.3109 10.0163 39.3105 10.0163 39.3101 10.0167L37.7045 11.0802C37.7022 11.0817 37.7007 11.0833 37.6984 11.0844C37.6892 11.0909 37.6805 11.097 37.6732 11.1031C37.3413 11.3468 37.2555 11.8103 37.4855 12.1575C37.7224 12.5157 38.205 12.6137 38.5632 12.3764L40.1699 11.3121C40.6266 11.0104 41.1732 10.904 41.7099 11.0131C42.2467 11.1222 42.7094 11.4338 43.0115 11.8908C43.314 12.3474 43.4208 12.8949 43.3117 13.4316C43.2026 13.9687 42.891 14.431 42.434 14.7335L40.1078 16.2743C39.7496 16.5112 39.6515 16.9934 39.8888 17.3516C40.0383 17.5774 40.2855 17.6999 40.5377 17.6999C40.6849 17.6999 40.8341 17.6579 40.9661 17.5705L41.3262 17.3321L42.5721 16.507C43.5154 15.8825 44.7903 16.1415 45.4148 17.0845C46.0392 18.0279 45.7802 19.3028 44.8372 19.9276L43.6753 20.6971C43.6692 20.7009 43.6631 20.7051 43.657 20.7093L42.511 21.468C42.1528 21.7049 42.0548 22.1875 42.2921 22.5457C42.4416 22.7715 42.6888 22.8939 42.9409 22.8939C43.0882 22.8939 43.2373 22.852 43.3693 22.7646L43.7294 22.5262C43.7294 22.5262 43.7294 22.5258 43.7298 22.5258L44.9757 21.7011C45.4323 21.3986 45.9793 21.2918 46.5165 21.4013C47.0536 21.51 47.5159 21.822 47.8184 22.2786C48.1205 22.7353 48.227 23.2827 48.1179 23.8194Z" fill="#FF6600"/>
</g>
<defs>
<clipPath id="clip0">
<rect width="50" height="50" fill="white"/>
</clipPath>
</defs>
</svg>
