<svg width="18" height="18" viewBox="0 0 18 18" fill="none" xmlns="http://www.w3.org/2000/svg">
<path d="M9.09877 4.29723C12.1317 4.32699 14.0318 4.13828 14.2884 7.5H17.9869C17.9869 2.29217 13.445 1.59021 9.00249 1.59021C4.55964 1.59021 0.0180664 2.29217 0.0180664 7.5H3.68788C3.97181 4.07421 6.09101 4.26782 9.09877 4.29723Z" fill="#FF6600"/>
<path d="M1.85241 9.1742C2.75323 9.1742 3.50281 9.22812 3.66946 8.342C3.69187 8.22156 3.70482 8.08502 3.70482 7.92712H3.66211H0C0 9.24527 0.829401 9.1742 1.85241 9.1742Z" fill="#FF6600"/>
<path d="M14.3125 7.92712H14.2778C14.2778 8.08607 14.2915 8.22296 14.317 8.342C14.4928 9.15915 15.2413 9.10838 16.139 9.10838C17.1669 9.10838 18.0002 9.17595 18.0002 7.92712H14.3125Z" fill="#FF6600"/>
<path d="M12.5056 7.0294V6.50564C12.5056 6.27142 12.2356 6.25671 11.9023 6.25671H11.3579C11.025 6.25671 10.755 6.27142 10.755 6.50564V6.95693V7.30703H6.90388V6.95693V6.50564C6.90388 6.27142 6.63395 6.25671 6.30099 6.25671H5.75623C5.42328 6.25671 5.15335 6.27142 5.15335 6.50564V7.0294V7.48664C4.27598 8.39831 1.40511 12.2792 1.30078 12.7491L1.30218 15.8843C1.30218 16.1738 1.5378 16.4094 1.82734 16.4094H15.8316C16.1211 16.4094 16.3567 16.1738 16.3567 15.8843V12.7333C16.2535 12.2771 13.3833 8.39796 12.5056 7.48629V7.0294ZM6.71412 13.171C6.43228 13.171 6.20367 12.9427 6.20367 12.6605C6.20367 12.3783 6.43228 12.15 6.71412 12.15C6.99596 12.15 7.22458 12.3783 7.22458 12.6605C7.22458 12.9427 6.99596 13.171 6.71412 13.171ZM6.71412 11.4204C6.43228 11.4204 6.20367 11.1922 6.20367 10.91C6.20367 10.6278 6.43228 10.3995 6.71412 10.3995C6.99596 10.3995 7.22458 10.6278 7.22458 10.91C7.22458 11.1922 6.99596 11.4204 6.71412 11.4204ZM6.71412 9.67025C6.43228 9.67025 6.20367 9.44198 6.20367 9.15979C6.20367 8.87796 6.43228 8.64934 6.71412 8.64934C6.99596 8.64934 7.22458 8.87796 7.22458 9.15979C7.22458 9.44198 6.99596 9.67025 6.71412 9.67025ZM8.81476 13.171C8.53292 13.171 8.3043 12.9427 8.3043 12.6605C8.3043 12.3783 8.53292 12.15 8.81476 12.15C9.09694 12.15 9.32521 12.3783 9.32521 12.6605C9.32521 12.9427 9.09694 13.171 8.81476 13.171ZM8.81476 11.4204C8.53292 11.4204 8.3043 11.1922 8.3043 10.91C8.3043 10.6278 8.53292 10.3995 8.81476 10.3995C9.09694 10.3995 9.32521 10.6278 9.32521 10.91C9.32521 11.1922 9.09694 11.4204 8.81476 11.4204ZM8.81476 9.67025C8.53292 9.67025 8.3043 9.44198 8.3043 9.15979C8.3043 8.87796 8.53292 8.64934 8.81476 8.64934C9.09694 8.64934 9.32521 8.87796 9.32521 9.15979C9.32521 9.44198 9.09694 9.67025 8.81476 9.67025ZM10.9154 13.171C10.6332 13.171 10.4049 12.9427 10.4049 12.6605C10.4049 12.3783 10.6332 12.15 10.9154 12.15C11.1976 12.15 11.4258 12.3783 11.4258 12.6605C11.4258 12.9427 11.1976 13.171 10.9154 13.171ZM10.9154 11.4204C10.6332 11.4204 10.4049 11.1922 10.4049 10.91C10.4049 10.6278 10.6332 10.3995 10.9154 10.3995C11.1976 10.3995 11.4258 10.6278 11.4258 10.91C11.4258 11.1922 11.1976 11.4204 10.9154 11.4204ZM10.9154 9.67025C10.6332 9.67025 10.4049 9.44198 10.4049 9.15979C10.4049 8.87796 10.6332 8.64934 10.9154 8.64934C11.1976 8.64934 11.4258 8.87796 11.4258 9.15979C11.4258 9.44198 11.1976 9.67025 10.9154 9.67025Z" fill="#FF6600"/>
</svg>
