<svg width="88" height="81" viewBox="0 0 88 81" fill="none" xmlns="http://www.w3.org/2000/svg">
<path d="M87.5 40.5C87.5 62.5532 68.0642 80.5 44 80.5C19.9358 80.5 0.5 62.5532 0.5 40.5C0.5 18.4468 19.9358 0.5 44 0.5C68.0642 0.5 87.5 18.4468 87.5 40.5Z" stroke="#FFD7E7"/>
<ellipse cx="44" cy="40.5" rx="39" ry="35.5" fill="#FA508F"/>
<g clip-path="url(#clip0)">
<path d="M62.4727 21.1955C62.212 20.9348 61.7906 20.9348 61.5299 21.1955L59.0578 23.667H43.5357L24.0214 43.342C23.5767 43.786 23.332 44.3773 23.332 45.0054C23.332 45.6334 23.5767 46.2248 24.0214 46.6688L37.6661 60.3135C38.1241 60.7715 38.7248 61.0002 39.3268 61.0002C39.9309 61.0002 40.5362 60.7695 40.9989 60.3068L60.0005 40.7918V24.6097L62.472 22.1382C62.7327 21.8775 62.7327 21.4562 62.4727 21.1955ZM58.6678 40.2505L40.0502 59.3708C39.6535 59.7681 39.0068 59.7681 38.6088 59.3708L24.9641 45.7261C24.7714 45.5334 24.6654 45.2774 24.6654 45.0054C24.6654 44.7334 24.7714 44.4773 24.9661 44.2827L44.0911 25.0004H57.7251L54.5029 28.2225C53.9756 27.8732 53.3455 27.6672 52.6675 27.6672C50.8294 27.6672 49.334 29.1626 49.334 31.0007C49.334 32.8388 50.8294 34.3342 52.6675 34.3342C54.5056 34.3342 56.001 32.8388 56.001 31.0007C56.001 30.3226 55.795 29.6926 55.4456 29.1652L58.6678 25.9431V40.2505ZM54.6676 31.0007C54.6676 32.1034 53.7702 33.0008 52.6675 33.0008C51.5648 33.0008 50.6674 32.1034 50.6674 31.0007C50.6674 29.8979 51.5648 29.0006 52.6675 29.0006C52.9755 29.0006 53.2635 29.0766 53.5242 29.2012L52.1961 30.5293C51.9355 30.79 51.9355 31.2113 52.1961 31.472C52.3261 31.602 52.4968 31.6674 52.6675 31.6674C52.8382 31.6674 53.0088 31.602 53.1389 31.472L54.4669 30.144C54.5916 30.4046 54.6676 30.6927 54.6676 31.0007Z" fill="white"/>
<path d="M49.9427 35.0884C50.2034 34.8277 50.2034 34.4063 49.9427 34.1456C49.682 33.885 49.2606 33.885 49 34.1456L48.5026 34.643C47.3112 33.6896 45.7991 33.2209 44.2557 33.3516C43.1803 33.4416 42.207 33.961 41.5149 34.8137C40.8029 35.6917 40.4742 36.8398 40.6149 37.9632L41.1222 42.0234L35.1573 47.9883C33.7905 46.1616 33.9319 43.5568 35.5906 41.8974C35.8513 41.6367 35.8513 41.2153 35.5906 40.9546C35.3299 40.694 34.9086 40.694 34.6479 40.9546C32.4678 43.1348 32.3211 46.5876 34.2046 48.941L33.4432 49.7024C33.1825 49.9631 33.1825 50.3844 33.4432 50.6451C33.5732 50.7751 33.7439 50.8405 33.9145 50.8405C34.0852 50.8405 34.2559 50.7751 34.3859 50.6451L35.1479 49.8831C36.21 50.7318 37.5254 51.1978 38.8888 51.1978C39.0561 51.1978 39.2241 51.1905 39.3928 51.1765C40.4682 51.0872 41.4416 50.5685 42.1336 49.7151C42.8463 48.837 43.175 47.6883 43.0343 46.5649L42.527 42.5047L48.4919 36.5398C49.858 38.3665 49.7173 40.972 48.0579 42.6314C47.7972 42.8921 47.7972 43.3134 48.0579 43.5741C48.3186 43.8348 48.74 43.8348 49.0006 43.5741C51.1807 41.3933 51.3268 37.9405 49.444 35.587L49.9427 35.0884ZM41.7096 46.7309C41.8056 47.4956 41.5823 48.277 41.0969 48.8757C40.6355 49.4444 39.9908 49.7898 39.2808 49.8491C38.1354 49.9391 37.0087 49.6097 36.1 48.9317L41.3309 43.7001L41.7096 46.7309ZM41.9369 37.7978C41.8409 37.0338 42.0643 36.2517 42.549 35.6537C43.0103 35.085 43.6557 34.7397 44.3657 34.6797C45.5111 34.5857 46.6385 34.9183 47.5472 35.597L42.3156 40.8286L41.9369 37.7978Z" fill="white"/>
</g>
<defs>
<clipPath id="clip0">
<rect width="40" height="40" fill="white" transform="translate(23 21)"/>
</clipPath>
</defs>
</svg>
