<svg width="88" height="81" viewBox="0 0 88 81" fill="none" xmlns="http://www.w3.org/2000/svg">
<path d="M87.5 40.5C87.5 62.5532 68.0642 80.5 44 80.5C19.9358 80.5 0.5 62.5532 0.5 40.5C0.5 18.4468 19.9358 0.5 44 0.5C68.0642 0.5 87.5 18.4468 87.5 40.5Z" stroke="#FFD7E7"/>
<ellipse cx="44" cy="40.5" rx="39" ry="35.5" fill="#FA508F"/>
<path d="M44 21C32.972 21 24 29.972 24 41C24 52.028 32.972 61 44 61C55.028 61 64 52.028 64 41C64 29.972 55.028 21 44 21ZM44 59.6667C33.7073 59.6667 25.3333 51.2927 25.3333 41C25.3333 30.7073 33.7073 22.3333 44 22.3333C54.2927 22.3333 62.6667 30.7073 62.6667 41C62.6667 51.2927 54.2927 59.6667 44 59.6667Z" fill="white"/>
<path d="M44.6667 38.3474V31.5861C44.6667 31.2174 44.368 30.9194 44 30.9194C43.632 30.9194 43.3333 31.2174 43.3333 31.5861V38.3474C42.4007 38.5901 41.6707 39.3201 41.428 40.2528H36.6667C36.2987 40.2528 36 40.5508 36 40.9194C36 41.2881 36.2987 41.5861 36.6667 41.5861H41.428C41.726 42.7328 42.7613 43.5861 44 43.5861C45.4707 43.5861 46.6667 42.3901 46.6667 40.9194C46.6667 39.6801 45.8133 38.6454 44.6667 38.3474ZM44 42.2528C43.2647 42.2528 42.6667 41.6548 42.6667 40.9194C42.6667 40.1841 43.2647 39.5861 44 39.5861C44.7353 39.5861 45.3333 40.1841 45.3333 40.9194C45.3333 41.6548 44.7353 42.2528 44 42.2528Z" fill="white"/>
<path d="M44 27.5859C44.368 27.5859 44.6667 27.2879 44.6667 26.9193V26.2526C44.6667 25.8839 44.368 25.5859 44 25.5859C43.632 25.5859 43.3334 25.8839 43.3334 26.2526V26.9193C43.3334 27.2879 43.632 27.5859 44 27.5859Z" fill="white"/>
<path d="M44 54.2529C43.632 54.2529 43.3334 54.5509 43.3334 54.9196V55.5863C43.3334 55.9549 43.632 56.2529 44 56.2529C44.368 56.2529 44.6667 55.9549 44.6667 55.5863V54.9196C44.6667 54.5509 44.368 54.2529 44 54.2529Z" fill="white"/>
<path d="M58.6667 40.2529H58C57.632 40.2529 57.3334 40.5509 57.3334 40.9196C57.3334 41.2883 57.632 41.5863 58 41.5863H58.6667C59.0347 41.5863 59.3334 41.2883 59.3334 40.9196C59.3334 40.5509 59.0347 40.2529 58.6667 40.2529Z" fill="white"/>
<path d="M30 40.2529H29.3333C28.9653 40.2529 28.6666 40.5509 28.6666 40.9196C28.6666 41.2883 28.9653 41.5863 29.3333 41.5863H30C30.368 41.5863 30.6666 41.2883 30.6666 40.9196C30.6666 40.5509 30.368 40.2529 30 40.2529Z" fill="white"/>
<path d="M53.8994 30.0766L53.428 30.5479C53.1674 30.8086 53.1674 31.2299 53.428 31.4906C53.558 31.6206 53.7287 31.6859 53.8994 31.6859C54.07 31.6859 54.2407 31.6206 54.3707 31.4906L54.842 31.0193C55.1027 30.7586 55.1027 30.3373 54.842 30.0766C54.5814 29.8159 54.16 29.8166 53.8994 30.0766Z" fill="white"/>
<path d="M33.6294 50.3476L33.158 50.8189C32.8974 51.0796 32.8974 51.5009 33.158 51.7616C33.288 51.8916 33.4587 51.9569 33.6294 51.9569C33.8 51.9569 33.9707 51.8916 34.1007 51.7616L34.572 51.2903C34.8327 51.0296 34.8327 50.6083 34.572 50.3476C34.3114 50.0869 33.8894 50.0876 33.6294 50.3476Z" fill="white"/>
<path d="M54.3707 50.3474C54.11 50.0867 53.6887 50.0867 53.428 50.3474C53.1674 50.608 53.1674 51.0294 53.428 51.29L53.8994 51.7614C54.0294 51.8914 54.2 51.9567 54.3707 51.9567C54.5414 51.9567 54.712 51.8914 54.842 51.7614C55.1027 51.5007 55.1027 51.0794 54.842 50.8187L54.3707 50.3474Z" fill="white"/>
<path d="M34.1007 30.0768C33.84 29.8162 33.4187 29.8162 33.158 30.0768C32.8974 30.3375 32.8974 30.7588 33.158 31.0195L33.6294 31.4908C33.7594 31.6208 33.93 31.6862 34.1007 31.6862C34.2714 31.6862 34.442 31.6208 34.572 31.4908C34.8327 31.2302 34.8327 30.8088 34.572 30.5482L34.1007 30.0768Z" fill="white"/>
</svg>
