<svg width="190" height="50" viewBox="0 0 190 50" fill="none" xmlns="http://www.w3.org/2000/svg">
<path d="M12.7752 48.1784C8.67302 47.9304 5.81804 47.6164 4.60955 47.4697C4.97771 33.9726 7.22927 23.4396 9.0696 16.9421C9.17956 16.5536 8.9533 16.1496 8.56404 16.0398C8.17478 15.9301 7.77 16.156 7.66003 16.5444C5.76677 23.2286 3.44383 34.1282 3.12879 48.0946C3.12049 48.4652 3.39119 48.7832 3.75886 48.835C3.79168 48.8396 7.10369 49.3002 12.6867 49.6378C12.7017 49.6387 12.7168 49.6392 12.7316 49.6392C13.1159 49.6392 13.4384 49.3404 13.462 48.9524C13.4864 48.5493 13.1789 48.2028 12.7752 48.1784Z" fill="#84CD3A"/>
<path d="M46.8712 48.0945C46.7776 43.9435 46.4974 39.7827 46.0385 35.7275C45.9931 35.3264 45.6297 35.0384 45.2285 35.0832C44.8266 35.1285 44.5375 35.4905 44.5829 35.8916C45.0127 39.6891 45.2841 43.5808 45.3904 47.4694C43.2126 47.7329 35.6813 48.538 25 48.538C22.3799 48.538 19.7541 48.4894 17.1954 48.3938C16.791 48.377 16.4513 48.6935 16.4361 49.097C16.421 49.5004 16.7364 49.8397 17.1406 49.8548C19.7173 49.9512 22.3616 50 24.9999 50C37.8077 50 46.1583 48.8466 46.2411 48.8348C46.6089 48.7831 46.8796 48.465 46.8712 48.0945Z" fill="#84CD3A"/>
<path d="M9.20437 13.9363C9.58874 14.062 10.0025 13.8532 10.1286 13.4696C10.6436 11.9025 11.0568 10.8181 11.2731 10.2736C11.9122 10.2252 13.2102 10.1333 14.9882 10.0401C15.0904 11.9189 15.5122 13.3358 15.5485 13.4549C15.6664 13.8408 16.0752 14.0579 16.4619 13.9408C16.8486 13.8235 17.0671 13.4153 16.95 13.0293C16.942 13.0028 16.5545 11.6927 16.4594 9.96836C20.7578 9.77412 27.0319 9.62363 33.5428 9.92607C33.4525 11.6603 33.0631 12.9858 33.0503 13.0286C32.9324 13.4147 33.1504 13.8232 33.5373 13.9409C33.6085 13.9626 33.6803 13.9729 33.7511 13.9729C34.0649 13.9729 34.3552 13.77 34.4514 13.4548C34.4881 13.3349 34.9153 11.8997 35.0138 10.0021C36.2508 10.0727 37.4915 10.1604 38.7242 10.2685C39.4471 12.0955 42.408 20.083 44.1388 32.3899C44.1902 32.7553 44.5039 33.0194 44.8633 33.0194C44.8971 33.0194 44.9314 33.0171 44.966 33.0122C45.3666 32.9561 45.6457 32.5865 45.5895 32.1867C43.5876 17.9528 39.9443 9.37686 39.9078 9.29199C39.8018 9.0457 39.5693 8.87705 39.3018 8.85254C37.8798 8.72217 36.4454 8.61875 35.0166 8.53818C34.93 6.83496 34.5027 4.96055 33.3357 3.38789C31.6677 1.13984 28.8631 0 25 0C21.1369 0 18.3324 1.13984 16.6642 3.38789C15.4885 4.97246 15.0635 6.86338 14.9815 8.57676C12.3601 8.71309 10.7508 8.84805 10.7026 8.85215C10.4335 8.8752 10.1989 9.04424 10.0923 9.29199C10.0694 9.34502 9.524 10.6188 8.73669 13.014C8.61062 13.3976 8.81999 13.8104 9.20437 13.9363ZM17.845 4.25322C19.2221 2.40107 21.6295 1.46201 25 1.46201C28.3705 1.46201 30.7778 2.40107 32.155 4.25322C33.0851 5.5041 33.4488 7.0333 33.5381 8.4626C27.034 8.16396 20.7746 8.31182 16.4592 8.50527C16.5439 7.06367 16.9055 5.5166 17.845 4.25322Z" fill="#84CD3A"/>
<path d="M21.8412 42.1341C21.8292 42.5059 22.0988 42.8273 22.4676 42.881C22.5154 42.888 23.6557 43.0516 25 43.0516C26.3443 43.0516 27.4846 42.888 27.5324 42.881C27.9012 42.8274 28.1708 42.5059 28.1588 42.1341C28.1252 41.0941 27.9781 40.0387 27.8584 39.3254C32.3304 39.2439 35.745 39.0037 35.7859 39.0008C36.0438 38.9824 36.2728 38.8297 36.3886 38.599C36.5044 38.3684 36.4897 38.0939 36.3501 37.8768C34.6026 35.1602 32.607 32.6535 31.3397 31.1376C32.1884 31.3353 32.814 31.5676 32.824 31.5713C33.12 31.6829 33.4542 31.5919 33.6526 31.3462C33.8512 31.1004 33.8692 30.7553 33.6974 30.4901C31.9838 27.8472 30.164 25.5123 29.0001 24.0875C29.4304 24.1757 29.685 24.2512 29.6896 24.2526C29.9789 24.3404 30.2927 24.2417 30.4792 24.0041C30.6657 23.7665 30.6867 23.4389 30.5321 23.1795C28.3019 19.439 25.6496 16.5601 25.5378 16.4394C25.3992 16.2896 25.2042 16.2046 25 16.2046C24.7958 16.2046 24.6008 16.2896 24.4622 16.4394C24.3504 16.5601 21.698 19.439 19.4679 23.1795C19.3134 23.4387 19.3346 23.7656 19.5206 24.0033C19.7066 24.2408 20.0201 24.3397 20.3095 24.253C20.3145 24.2515 20.5693 24.1759 20.9998 24.0877C19.8359 25.5125 18.0162 27.8474 16.3026 30.4903C16.1309 30.7552 16.149 31.1001 16.3473 31.3458C16.5457 31.5916 16.8798 31.6826 17.1757 31.5715C17.1859 31.5677 17.8104 31.3357 18.6581 31.1382C18.4218 31.4207 18.1597 31.7383 17.8777 32.0863C17.6234 32.4003 17.6722 32.8606 17.9868 33.1144C18.3013 33.3681 18.7626 33.3194 19.0169 33.0055C20.1837 31.5649 21.0229 30.6362 21.0312 30.6271C21.2288 30.4089 21.2762 30.0938 21.1513 29.8272C21.0265 29.5608 20.7544 29.3942 20.4594 29.4064C19.8285 29.4309 19.1965 29.5274 18.6339 29.6453C21.026 26.2029 23.2997 23.6259 23.3259 23.5963C23.5225 23.3743 23.5654 23.0557 23.4345 22.7897C23.3035 22.5237 23.025 22.3637 22.7283 22.3827C22.3299 22.4093 21.9596 22.45 21.6268 22.4966C22.9425 20.5078 24.2806 18.878 25.0001 18.0411C25.7193 18.8773 27.0566 20.5059 28.3732 22.4967C28.0404 22.4501 27.6702 22.4094 27.2717 22.3828C26.9746 22.3624 26.6965 22.5237 26.5655 22.7897C26.4346 23.0558 26.4774 23.3743 26.6741 23.5964C26.7003 23.626 28.974 26.203 31.3661 29.6454C30.8035 29.5275 30.1715 29.4311 29.5406 29.4065C29.2446 29.3947 28.9735 29.5609 28.8487 29.8273C28.7239 30.0938 28.7712 30.4089 28.9687 30.6272C28.9997 30.6613 31.8393 33.8096 34.4252 37.6199C32.6039 37.7224 29.0071 37.8902 25 37.8902C20.9929 37.8902 17.396 37.7224 15.5746 37.6199C15.9907 37.0065 16.4351 36.378 16.9031 35.7412C17.1424 35.4156 17.0719 34.9582 16.7457 34.7194C16.4195 34.4808 15.9611 34.5509 15.722 34.8766C14.9657 35.9057 14.2686 36.9151 13.65 37.8769C13.5103 38.094 13.4957 38.3685 13.6115 38.5991C13.7273 38.8298 13.9563 38.9825 14.2141 39.0009C14.2551 39.0038 17.6696 39.2439 22.1416 39.3255C22.0219 40.0387 21.8748 41.0941 21.8412 42.1341ZM23.6252 39.3457C24.0766 39.3498 24.5356 39.3521 25 39.3521C25.4643 39.3521 25.9233 39.3498 26.3748 39.3457C26.4666 39.865 26.5916 40.669 26.657 41.509C26.229 41.5487 25.6353 41.5896 25 41.5896C24.3646 41.5896 23.771 41.5487 23.343 41.509C23.4084 40.669 23.5334 39.865 23.6252 39.3457Z" fill="#84CD3A"/>
<path d="M23.7387 27.9839C24.1432 27.9839 24.4711 27.656 24.4711 27.2515C24.4711 26.847 24.1432 26.519 23.7387 26.519C23.3342 26.519 23.0063 26.847 23.0063 27.2515C23.0063 27.656 23.3342 27.9839 23.7387 27.9839Z" fill="#84CD3A"/>
<path d="M21.8499 35.3806C22.2544 35.3806 22.5823 35.0527 22.5823 34.6481C22.5823 34.2436 22.2544 33.9157 21.8499 33.9157C21.4453 33.9157 21.1174 34.2436 21.1174 34.6481C21.1174 35.0527 21.4453 35.3806 21.8499 35.3806Z" fill="#84CD3A"/>
<path d="M27.6703 33.7305C28.0748 33.7305 28.4027 33.4026 28.4027 32.998C28.4027 32.5935 28.0748 32.2656 27.6703 32.2656C27.2658 32.2656 26.9379 32.5935 26.9379 32.998C26.9379 33.4026 27.2658 33.7305 27.6703 33.7305Z" fill="#84CD3A"/>
<path d="M65.046 33H74.462V31.108H67.224V26.114H72.79V24.222H67.224V19.36H74.088V17.468H65.046V33ZM77.068 29.942C77.068 32.758 78.828 33.11 80.06 33.11C80.368 33.11 80.61 33.066 80.764 33.044V31.152C80.632 31.174 80.478 31.174 80.39 31.174C79.73 31.174 79.18 30.91 79.18 29.59V17.468H77.068V29.942ZM82.9332 33H85.0672V27.786H86.6952L90.0172 33H92.5032L88.3892 26.818V26.774L92.0852 21.868H89.6652L86.6512 25.96H85.0672V17.468H82.9332V33ZM94.3833 19.624H96.5833V17.468H94.3833V19.624ZM94.4273 33H96.5613V21.868H94.4273V33ZM99.7314 27.676H106.155V25.784H99.7314V27.676ZM108.353 31.218C109.695 32.538 111.587 33.264 113.457 33.264C116.625 33.264 118.407 31.284 118.407 28.842C118.407 23.848 110.927 24.728 110.927 21.406C110.927 20.064 112.137 19.206 113.721 19.206C114.953 19.206 116.295 19.778 117.153 20.57L118.143 18.788C116.999 17.71 115.349 17.204 113.809 17.204C110.927 17.204 108.727 18.898 108.727 21.516C108.727 26.356 116.229 25.586 116.229 29.018C116.229 30.36 115.129 31.24 113.501 31.24C112.027 31.24 110.531 30.47 109.585 29.568L108.353 31.218ZM120.982 33H123.116V27.72C123.116 25.322 124.678 23.562 126.834 23.562C128.616 23.562 128.924 24.794 128.924 26.356V33H131.058V25.872C131.058 23.034 129.87 21.604 127.252 21.604C125.03 21.604 123.578 23.1 123.072 24.156H123.028C123.028 24.156 123.116 23.76 123.116 23.232V17.468H120.982V33ZM133.512 27.412C133.512 30.8 136.196 33.264 139.518 33.264C142.818 33.264 145.502 30.8 145.502 27.412C145.502 24.046 142.818 21.604 139.496 21.604C136.196 21.604 133.512 24.046 133.512 27.412ZM135.69 27.412C135.69 25.102 137.406 23.452 139.518 23.452C141.608 23.452 143.346 25.102 143.346 27.412C143.346 29.744 141.608 31.416 139.518 31.416C137.406 31.416 135.69 29.744 135.69 27.412ZM148.074 37.4H150.208V32.34C150.208 31.768 150.12 31.372 150.12 31.372H150.164C150.934 32.56 152.21 33.264 153.618 33.264C156.544 33.264 158.656 30.976 158.656 27.434C158.656 23.98 156.786 21.604 153.772 21.604C152.144 21.604 150.736 22.352 150.032 23.694H149.988C149.988 23.694 150.054 23.32 150.054 22.858V21.868H148.074V37.4ZM150.142 27.478C150.142 24.662 151.682 23.474 153.354 23.474C155.202 23.474 156.5 25.036 156.5 27.456C156.5 29.986 155.048 31.416 153.288 31.416C151.242 31.416 150.142 29.458 150.142 27.478ZM161.177 33H163.465V30.69H161.177V33ZM166.658 33H168.66V32.098C168.66 31.592 168.594 31.262 168.594 31.262H168.638C169.364 32.516 170.728 33.264 172.18 33.264C175.128 33.264 177.24 30.976 177.24 27.434C177.24 23.98 175.37 21.604 172.356 21.604C170.816 21.604 169.408 22.374 168.748 23.562H168.704C168.704 23.562 168.792 23.166 168.792 22.616V17.468H166.658V33ZM168.726 27.478C168.726 24.662 170.266 23.474 171.938 23.474C173.786 23.474 175.084 25.036 175.084 27.456C175.084 29.986 173.632 31.416 171.872 31.416C169.76 31.416 168.726 29.458 168.726 27.478ZM178.998 35.31L178.25 36.938C178.25 36.938 179.152 37.62 180.384 37.62C181.946 37.62 183.332 36.74 183.992 35.002L189.228 21.868H186.918L184.212 29.172C184.014 29.744 183.838 30.492 183.838 30.492H183.794C183.794 30.492 183.596 29.7 183.376 29.15L180.582 21.868H178.184L182.848 32.868L182.298 34.144C181.88 35.156 181.154 35.794 180.274 35.794C179.614 35.794 178.998 35.31 178.998 35.31Z" fill="#84CD3A"/>
</svg>
