<svg width="40" height="40" viewBox="0 0 40 40" fill="none" xmlns="http://www.w3.org/2000/svg">
<g clip-path="url(#clip0)">
<path d="M25.1062 4.98408C20.7063 2.76079 15.4063 3.61087 11.9179 7.09932C7.86358 11.1535 7.45779 17.6181 10.9741 22.1364C11.0983 22.2961 11.2841 22.3797 11.4719 22.3797C11.6073 22.3797 11.7436 22.3363 11.8587 22.2467C12.1334 22.0329 12.1828 21.6368 11.9691 21.3621C8.84256 17.3447 9.20389 11.5963 12.8094 7.99072C15.9118 4.88822 20.6249 4.13212 24.5378 6.10924C24.8484 6.26642 25.2276 6.14158 25.3846 5.83088C25.5416 5.52017 25.4171 5.14103 25.1062 4.98408Z" fill="#FA4343"/>
<path d="M30.1397 10.0187C29.9827 9.70796 29.6037 9.58327 29.2927 9.74014C28.982 9.8971 28.8573 10.2762 29.0142 10.587C30.9899 14.4992 30.2334 19.2117 27.1318 22.3133C23.5262 25.9188 17.7778 26.28 13.7604 23.1537C13.4856 22.9399 13.0897 22.9893 12.8758 23.264C12.662 23.5388 12.7115 23.9348 12.9862 24.1486C15.0443 25.7503 17.5062 26.5382 19.9601 26.5382C22.8935 26.5382 25.8158 25.4123 28.0234 23.2047C31.5109 19.7172 32.3614 14.4181 30.1397 10.0187Z" fill="#FA4343"/>
<path d="M28.5109 7.6178C28.3547 7.44108 28.1907 7.26655 28.0233 7.0992C27.8558 6.93178 27.6814 6.76772 27.5047 6.61155C27.2438 6.38092 26.8454 6.40561 26.615 6.66647C26.3843 6.92725 26.4088 7.32561 26.6697 7.55616C26.8271 7.69522 26.9826 7.84147 27.1318 7.99061C27.2808 8.13983 27.4271 8.29522 27.5662 8.45265C27.6908 8.59358 27.8644 8.66554 28.0388 8.66554C28.1872 8.66554 28.3361 8.61343 28.456 8.50749C28.7169 8.27702 28.7415 7.87866 28.5109 7.6178Z" fill="#FA4343"/>
<path d="M34.8489 16.2821C35.2692 15.5925 35.2692 14.7359 34.8487 14.0464L34.0194 12.6865C33.9102 12.5073 33.8679 12.2945 33.9006 12.0873L34.1478 10.5167C34.2738 9.71636 33.945 8.92315 33.2898 8.44651L32.0046 7.51166C31.8346 7.38799 31.7139 7.2076 31.6644 7.00338L31.2901 5.45658C31.1001 4.67088 30.4939 4.06478 29.7083 3.87463L28.1614 3.50025C27.9572 3.4508 27.7767 3.33002 27.6532 3.16009L26.7181 1.87454C26.2416 1.21939 25.4483 0.890402 24.6481 1.0165L23.077 1.26368C22.8699 1.29626 22.657 1.25407 22.4779 1.14486L21.1177 0.315323C20.4282 -0.105147 19.5717 -0.105069 18.8821 0.315323L17.5221 1.14462C17.3431 1.25392 17.1303 1.29595 16.9229 1.26345L15.3523 1.01626C14.5521 0.890324 13.7587 1.21915 13.2822 1.87431L12.3473 3.15955C12.2237 3.32947 12.0432 3.45025 11.8389 3.4997L10.2921 3.874C9.50655 4.064 8.9003 4.67017 8.71014 5.4558L8.33577 7.00268C8.28632 7.2069 8.16561 7.38745 7.99561 7.51096L6.71006 8.44596C6.0549 8.92245 5.72615 9.71558 5.85201 10.516L6.0992 12.0871C6.13178 12.2944 6.08959 12.5072 5.98037 12.6863L5.15092 14.0465C4.73061 14.7361 4.73061 15.5926 5.151 16.2821L5.9803 17.6421C6.08951 17.8213 6.13178 18.0341 6.09912 18.2413L5.85194 19.8119C5.72592 20.6122 6.05475 21.4055 6.70991 21.8821L7.99514 22.8169C8.16507 22.9404 8.28585 23.121 8.3353 23.3252L8.7096 24.872C8.8996 25.6577 9.50577 26.2638 10.2914 26.454L10.9373 26.6103L6.56592 36.3614C6.47303 36.5687 6.49873 36.8098 6.63334 36.9927C6.76787 37.1757 6.9903 37.2722 7.21592 37.2452L10.7333 36.8246L12.7595 39.7302C12.8781 39.9001 13.0716 39.9999 13.2764 39.9999C13.296 39.9999 13.3159 39.999 13.3355 39.9972C13.5616 39.9759 13.7589 39.8346 13.8518 39.6275L18.3163 29.6682L18.882 30.0131C19.2267 30.2233 19.6132 30.3284 19.9998 30.3284C20.3863 30.3284 20.7728 30.2233 21.1176 30.0131L21.7037 29.6558L26.1738 39.6275C26.2667 39.8348 26.4639 39.9759 26.69 39.9972C26.7098 39.9991 26.7296 40 26.7492 40C26.9539 40 27.1475 39.9002 27.266 39.7302L29.2923 36.8247L32.8096 37.2452C33.0351 37.272 33.2577 37.1758 33.3922 36.9928C33.5268 36.8098 33.5526 36.5688 33.4596 36.3615L29.086 26.605L29.7076 26.4546C30.4932 26.2646 31.0994 25.6584 31.2896 24.8728L31.6639 23.3259C31.7134 23.1217 31.8342 22.9411 32.0041 22.8176L33.2896 21.8826C33.9448 21.4061 34.2736 20.613 34.1477 19.8126L33.9005 18.2415C33.8679 18.0342 33.9101 17.8214 34.0193 17.6423L34.8489 16.2821ZM13.1568 38.0959L11.551 35.7933C11.4179 35.6023 11.1902 35.5002 10.9591 35.528L8.17171 35.8613L12.1544 26.9766C12.2273 27.0301 12.2926 27.0943 12.3464 27.1684L13.2814 28.454C13.3702 28.5761 13.4701 28.6868 13.5789 28.7854L11.4826 33.4617C11.3402 33.7794 11.4823 34.1523 11.7999 34.2948C11.8837 34.3323 11.9712 34.3501 12.0573 34.3501C12.2981 34.3501 12.5281 34.2113 12.6329 33.9774L14.7218 29.3177C14.9273 29.3459 15.139 29.3455 15.3514 29.312L16.9225 29.0648C17.0166 29.0501 17.1116 29.0514 17.2042 29.0667L13.1568 38.0959ZM31.854 35.8611L29.0665 35.528C28.8352 35.5002 28.6078 35.6023 28.4746 35.7933L26.8689 38.0959L22.8197 29.0632C22.9046 29.0516 22.9913 29.0516 23.077 29.0651L24.6475 29.3123C24.8685 29.347 25.0888 29.3459 25.3021 29.3141L27.3926 33.9776C27.4975 34.2116 27.7274 34.3502 27.9682 34.3502C28.0543 34.3502 28.1419 34.3325 28.2256 34.2949C28.5432 34.1526 28.6853 33.7795 28.5429 33.4619L26.4386 28.7677C26.5401 28.6735 26.6339 28.5692 26.7176 28.4542L27.6524 27.169C27.7114 27.088 27.7835 27.0185 27.8646 26.9623L31.854 35.8611ZM33.7724 15.6257L32.9429 16.9859C32.6785 17.4198 32.5761 17.9353 32.6551 18.4373L32.9023 20.0084C32.9543 20.3388 32.8185 20.6662 32.5481 20.8629L31.2625 21.798C30.851 22.0974 30.5583 22.5347 30.4386 23.0293L30.0642 24.5762C29.9857 24.9004 29.7356 25.1507 29.4112 25.2292L27.8643 25.6035C27.3696 25.7232 26.9323 26.0158 26.6329 26.4274L25.6981 27.7126C25.5014 27.9832 25.174 28.1188 24.8435 28.0668L23.2728 27.8196C22.7707 27.7406 22.2552 27.8428 21.8212 28.1074L20.4613 28.9367C20.1767 29.1101 19.8229 29.1101 19.5384 28.9367L18.1782 28.1073C17.8399 27.901 17.4521 27.7935 17.0597 27.7935C16.9488 27.7935 16.8373 27.8021 16.7267 27.8195L15.1555 28.0667C14.8251 28.1187 14.4977 27.9829 14.301 27.7125L13.3659 26.4269C13.0666 26.0154 12.6293 25.7228 12.1347 25.6031L10.5878 25.2287C10.2635 25.1502 10.0133 24.9001 9.93476 24.5757L9.56046 23.0289C9.44077 22.5342 9.14819 22.0968 8.73655 21.7974L7.45139 20.8625C7.18092 20.6658 7.04522 20.3383 7.09725 20.0079L7.34444 18.4372C7.42342 17.9351 7.32124 17.4197 7.05663 16.9857L6.22733 15.6256C6.05381 15.341 6.05381 14.9873 6.22733 14.7028L7.05678 13.3425C7.32131 12.9086 7.42358 12.3932 7.34459 11.8911L7.09741 10.32C7.04545 9.98964 7.18124 9.66222 7.45163 9.4655L8.73725 8.53042C9.14874 8.23104 9.4414 7.79377 9.56108 7.29916L9.93546 5.75229C10.014 5.42799 10.2641 5.17775 10.5885 5.09924L12.1354 4.72494C12.6301 4.60525 13.0674 4.3126 13.3667 3.90103L14.3016 2.6158C14.4983 2.34533 14.8256 2.20947 15.1562 2.26158L16.7268 2.50876C17.229 2.58791 17.7445 2.48556 18.1784 2.22095L19.5384 1.39165C19.823 1.21822 20.1767 1.21822 20.4612 1.39165L21.8214 2.22103C22.2553 2.48572 22.771 2.58798 23.2729 2.50892L24.8441 2.26173C25.1744 2.20994 25.5019 2.34556 25.6986 2.61595L26.6337 3.9015C26.9331 4.31299 27.3703 4.60564 27.8649 4.72533L29.4118 5.09971C29.7361 5.17822 29.9864 5.42838 30.0649 5.75276L30.4392 7.29955C30.5589 7.79424 30.8514 8.23167 31.2631 8.53104L32.5483 9.46589C32.8188 9.66261 32.9545 9.99011 32.9025 10.3205L32.6553 11.8911C32.5763 12.3932 32.6785 12.9087 32.9431 13.3427L33.7724 14.7028C33.946 14.9874 33.946 15.3411 33.7724 15.6257Z" fill="#FA4343"/>
<path d="M27.3761 13.2029C27.2372 12.7753 26.8735 12.4767 26.427 12.4237L22.6339 11.9739L21.0341 8.50558C20.8457 8.0973 20.4494 7.84363 19.9997 7.84363C19.5501 7.84363 19.1537 8.0973 18.9653 8.50558L17.3655 11.974L13.5724 12.4238C13.1258 12.4768 12.7621 12.7754 12.6233 13.203C12.4844 13.6304 12.6031 14.0858 12.9331 14.3911L15.7374 16.9844L14.993 20.7308C14.9055 21.1719 15.077 21.6101 15.4409 21.8743C15.6416 22.0201 15.8744 22.0939 16.1088 22.0939C16.2994 22.0939 16.4908 22.0451 16.6666 21.9467L19.9996 20.0812L23.3326 21.9467C23.725 22.1664 24.1946 22.1387 24.5584 21.8744C24.9223 21.6101 25.0938 21.1719 25.0062 20.7308L24.2618 16.9845L27.0661 14.3911C27.3963 14.0859 27.515 13.6306 27.3761 13.2029ZM23.1469 16.2985C22.9859 16.4473 22.9139 16.6691 22.9566 16.8841L23.7183 20.7178L20.3075 18.8086C20.2119 18.7551 20.1058 18.7283 19.9996 18.7283C19.8934 18.7283 19.7874 18.7551 19.6917 18.8086L16.2809 20.7178L17.0427 16.8841C17.0855 16.669 17.0134 16.4473 16.8523 16.2985L13.9826 13.6446L17.8644 13.1843C18.082 13.1586 18.2707 13.0215 18.3626 12.8225L19.9997 9.27316L21.6368 12.8225C21.7287 13.0215 21.9173 13.1586 22.135 13.1843L26.0166 13.6446L23.1469 16.2985Z" fill="#FA4343"/>
</g>
<defs>
<clipPath id="clip0">
<rect width="40" height="40" fill="white"/>
</clipPath>
</defs>
</svg>
