<svg width="40" height="40" viewBox="0 0 40 40" fill="none" xmlns="http://www.w3.org/2000/svg">
<g clip-path="url(#clip0)">
<path d="M33.7237 6.57808C32.4856 6.42152 31.2755 6.14686 30.1278 5.76204C29.8208 5.65919 29.4887 5.8246 29.3859 6.1313C29.283 6.43831 29.4484 6.77034 29.7551 6.87318C30.9762 7.28273 32.2619 7.57448 33.5769 7.7408C35.5489 7.99043 36.9564 9.81051 36.7141 11.7978C36.3964 14.404 35.8147 18.2941 34.8479 22.0258C33.7948 26.0904 32.5588 28.9185 31.1742 30.4316C28.3309 33.5386 24.7661 36.2925 22.2765 38.0555C20.9682 38.982 19.2104 38.982 17.9024 38.0555C15.4128 36.2925 11.848 33.5386 9.00467 30.4316C7.62009 28.9185 6.38382 26.0904 5.33096 22.0258C4.36416 18.2941 3.7825 14.404 3.4645 11.7978C3.2225 9.81051 4.62966 7.99043 6.60202 7.7408C12.2872 7.0218 16.0552 4.16535 18.2152 1.89576C18.7075 1.37879 19.373 1.09375 20.0893 1.09375C20.8055 1.09375 21.4711 1.37879 21.9637 1.89576C23.5198 3.53089 25.3185 4.86421 27.3098 5.85878C27.5991 6.00343 27.9512 5.88594 28.0959 5.59632C28.2402 5.30671 28.1228 4.95484 27.8334 4.8105C25.9639 3.87666 24.2748 2.62421 22.8124 1.08795C22.0967 0.335999 21.1296 -0.078125 20.0893 -0.078125C19.0489 -0.078125 18.0818 0.335999 17.3662 1.08795C15.3374 3.21961 11.7976 5.90242 6.45493 6.57808C3.84445 6.90828 1.98104 9.31368 2.30117 11.9397C2.84682 16.4154 4.5082 27.2541 8.14011 31.2229C11.0533 34.4062 14.6886 37.2157 17.2249 39.0119C18.0815 39.6186 19.0853 39.922 20.0893 39.922C21.093 39.9216 22.097 39.6186 22.9537 39.0119C25.49 37.2157 29.1253 34.4062 32.0385 31.2229C35.6707 27.2541 37.3318 16.4154 37.8774 11.9397C38.1975 9.31368 36.3341 6.90828 33.7237 6.57808Z" fill="#FA4343"/>
<path d="M18.7675 5.42601C15.8033 7.99102 12.3429 9.66979 8.48271 10.4156C7.30656 10.643 6.51249 11.7551 6.67484 12.9477C6.94798 14.953 7.50645 18.7033 8.17631 21.2888C9.39732 26.0025 10.578 27.7973 11.1731 28.4473C13.1293 30.5848 16.7591 33.4409 18.7485 34.953C19.1434 35.253 19.6165 35.4029 20.0895 35.4029C20.5625 35.4029 21.0355 35.253 21.4304 34.953C23.4199 33.4409 27.0496 30.5848 29.0058 28.4473C29.6009 27.7973 30.7816 26.0025 32.0027 21.2888C32.6728 18.7027 33.231 14.9527 33.5044 12.9477C33.6668 11.7551 32.8724 10.643 31.6963 10.4156C27.8361 9.66979 24.3757 7.99102 21.4115 5.42601C20.6577 4.77385 19.5212 4.77385 18.7675 5.42601ZM32.3432 12.7893C32.0735 14.769 31.5232 18.4671 30.8683 20.9949C29.6339 25.7599 28.469 27.298 28.1416 27.6563C26.1765 29.8032 22.2977 32.8217 20.7212 34.0198C20.3492 34.3027 19.8298 34.3027 19.4578 34.0198C17.8812 32.8217 14.0024 29.8029 12.0377 27.6563C11.7099 27.298 10.5451 25.7599 9.31065 20.9949C8.65605 18.4677 8.10582 14.7693 7.83604 12.7893C7.7573 12.2128 8.13908 11.6757 8.70488 11.5662C12.7695 10.7809 16.413 9.01336 19.5344 6.31224C19.6924 6.17522 19.8911 6.10655 20.0895 6.10655C20.2878 6.10655 20.4865 6.17522 20.6446 6.31224C23.7659 9.01336 27.4094 10.7809 31.4741 11.5662C32.0399 11.6757 32.4217 12.2128 32.3432 12.7893Z" fill="#FA4343"/>
<path d="M16.8399 18.2083C16.3993 17.8494 14.9118 17.1085 13.8468 18.5156C12.782 19.9225 13.7134 21.1499 14.1541 21.5088L15.8533 22.8912C16.1042 23.0954 16.4734 23.0579 16.6776 22.8067C16.8818 22.5555 16.8439 22.1866 16.5931 21.9821L14.8938 20.5997C14.6961 20.4385 14.264 19.9139 14.7559 19.2551C15.2478 18.5965 15.9024 18.956 16.1002 19.1171L19.6186 21.98C19.8508 22.1689 20.188 22.1524 20.4007 21.9415L25.5494 16.8411C25.9238 16.47 26.5299 16.4731 26.901 16.8475C27.2718 17.2217 27.2688 17.8281 26.8946 18.1989L20.7621 24.2743C20.2765 24.7424 19.7419 24.5474 19.4864 24.3366L18.5129 23.5446C18.2618 23.3405 17.8928 23.3783 17.6883 23.6292C17.4842 23.88 17.522 24.2493 17.7732 24.4534L18.7467 25.2457C19.1248 25.5533 19.6015 25.723 20.0892 25.723C20.654 25.723 21.186 25.5042 21.587 25.1068L27.7192 19.0317C28.5526 18.2059 28.559 16.8561 27.7332 16.0226C26.9077 15.1895 25.5579 15.1831 24.7245 16.0086L19.9497 20.7388L16.8399 18.2083Z" fill="#FA4343"/>
</g>
<defs>
<clipPath id="clip0">
<rect width="40" height="40" fill="white"/>
</clipPath>
</defs>
</svg>
