<svg width="50" height="50" viewBox="0 0 50 50" fill="none" xmlns="http://www.w3.org/2000/svg">
<circle cx="25" cy="25" r="25" fill="#FA4343"/>
<g clip-path="url(#clip0)">
<path d="M37.6887 28.142L32.6461 9.32283C32.541 8.93067 32.2238 8.63223 31.826 8.55036L24.7846 7.10942C24.2045 6.99404 23.6396 7.36419 23.52 7.94438C23.4013 8.5243 23.775 9.09036 24.3549 9.20898L30.7477 10.5172L34.4842 24.4618C31.4415 25.7676 29.5929 28.9322 29.9867 32.2199L17.3031 35.6185C16.5524 34.5313 15.1819 33.9684 13.8344 34.3295C12.1223 34.7882 11.1028 36.5541 11.5615 38.2661C12.0203 39.9782 13.7861 40.9977 15.4982 40.5389C16.8457 40.1779 17.7512 39.0052 17.8577 37.6883L31.5023 34.0322C32.0744 33.8789 32.4133 33.292 32.26 32.72C31.5903 30.2206 32.811 27.6534 35.041 26.5402L35.6188 28.6966C34.5316 29.4473 33.9688 30.8179 34.3299 32.1654C34.7886 33.8774 36.5545 34.8969 38.2665 34.4382C39.9786 33.9794 40.9981 32.2136 40.5394 30.5015C40.1783 29.1541 39.0056 28.2486 37.6887 28.142ZM14.9437 38.4691C14.3726 38.6221 13.7844 38.2825 13.6314 37.7115C13.4784 37.1405 13.818 36.5522 14.3891 36.3992C14.9601 36.2462 15.5483 36.5858 15.7013 37.1569C15.8543 37.7279 15.5146 38.3161 14.9437 38.4691ZM37.7119 32.3684C37.1409 32.5214 36.5527 32.1818 36.3997 31.6108C36.2467 31.0397 36.5863 30.4515 37.1573 30.2985C37.7283 30.1455 38.3165 30.4851 38.4696 31.0561C38.6226 31.6272 38.2829 32.2154 37.7119 32.3684Z" fill="white"/>
</g>
<defs>
<clipPath id="clip0">
<rect width="30" height="30" fill="white" transform="translate(4.62891 12.3934) rotate(-15)"/>
</clipPath>
</defs>
</svg>
