<svg width="140" height="140" viewBox="0 0 140 140" fill="none" xmlns="http://www.w3.org/2000/svg">
<path d="M0 12.069V106.207H67.5862H135.172V12.069H0Z" fill="#DCD6CD"/>
<path d="M74.7431 65.4307C70.7917 68.9597 64.3831 68.9597 60.4293 65.4307L55.3917 60.9821C39.6321 75.0473 0 106.207 0 106.207H52.1548H83.02H135.172C135.172 106.207 95.5404 75.0473 79.7807 60.9821L74.7431 65.4307Z" fill="#E8E3D9"/>
<path d="M0 12.069L60.4293 65.4307C64.3807 68.9597 70.7893 68.9597 74.7431 65.4307L135.172 12.069H0Z" fill="#EFEBDE"/>
<path d="M111.034 127.931C127.032 127.931 140 114.963 140 98.9655C140 82.9683 127.032 70 111.034 70C95.0371 70 82.0688 82.9683 82.0688 98.9655C82.0688 114.963 95.0371 127.931 111.034 127.931Z" fill="#26B999"/>
<path d="M126.895 84.9148C125.797 84.152 124.296 84.4224 123.535 85.5182L110.028 104.925L100.496 97.0996C99.4673 96.2524 97.9442 96.4045 97.0994 97.4352C96.2521 98.4659 96.4018 99.9865 97.4349 100.831L108.987 110.315C109.422 110.67 109.962 110.863 110.518 110.863C110.626 110.863 110.737 110.856 110.848 110.841C111.515 110.747 112.113 110.383 112.499 109.83L127.499 88.2772C128.259 87.1813 127.989 85.6776 126.895 84.9148Z" fill="white"/>
</svg>
