<svg width="35" height="65" viewBox="0 0 35 65" fill="none" xmlns="http://www.w3.org/2000/svg">
<path d="M17.4999 0C11.0668 0 5.83325 5.23135 5.83325 11.661V23.3397C5.83325 29.7691 11.0668 35 17.4999 35C23.9331 35 29.1666 29.7693 29.1666 23.3397V11.661C29.1666 5.23135 23.9329 0 17.4999 0ZM27.8703 23.3397C27.8703 29.0546 23.2181 33.7037 17.4999 33.7037C11.7817 33.7037 7.12953 29.0546 7.12953 23.3397V11.661C7.12953 5.94611 11.7817 1.29628 17.4999 1.29628C23.2181 1.29628 27.8703 5.94594 27.8703 11.661V23.3397Z" fill="white"/>
<path d="M17.5 3.88879C17.1421 3.88879 16.8518 4.17872 16.8518 4.53702V10.4064C16.8518 10.7647 17.1421 11.0547 17.5 11.0547C17.858 11.0547 18.1483 10.7647 18.1483 10.4064V4.53702C18.1481 4.17872 17.858 3.88879 17.5 3.88879Z" fill="white"/>
<path d="M17.5 60.0001L7 49.5001L7.49978 48.9999L17.5 59.0002L27.5002 48.9999L28 49.5001L17.5 60.0001Z" fill="white"/>
</svg>
