<svg width="35" height="35" viewBox="0 0 35 35" fill="none" xmlns="http://www.w3.org/2000/svg">
<circle cx="17.5" cy="17.5" r="17.5" fill="#3DA3DE"/>
<path d="M8.30027 17.0972L12.2174 18.5592L13.7336 23.4352C13.8306 23.7475 14.2125 23.8629 14.466 23.6557L16.6494 21.8757C16.8783 21.6892 17.2043 21.6799 17.4435 21.8535L21.3817 24.7127C21.6529 24.9098 22.037 24.7613 22.105 24.4336L24.99 10.5564C25.0642 10.1985 24.7125 9.89995 24.3718 10.0318L8.29568 16.2334C7.89896 16.3864 7.90241 16.9481 8.30027 17.0972ZM13.4892 17.7809L21.1448 13.0659C21.2824 12.9814 21.4239 13.1674 21.3058 13.277L14.9877 19.1499C14.7657 19.3567 14.6224 19.6333 14.5818 19.9336L14.3666 21.5285C14.3381 21.7415 14.039 21.7626 13.9802 21.5565L13.1525 18.6481C13.0577 18.3164 13.1958 17.962 13.4892 17.7809Z" fill="white"/>
</svg>
