<svg width="35" height="35" viewBox="0 0 35 35" fill="none" xmlns="http://www.w3.org/2000/svg">
<circle cx="17.5" cy="17.5" r="17.5" fill="#8040BD"/>
<g clip-path="url(#clip0)">
<path d="M23.5423 16.1338C23.5627 13.737 21.5213 11.5398 18.9918 11.236C18.9415 11.23 18.8867 11.2209 18.8286 11.2113C18.7034 11.1906 18.5739 11.1692 18.4432 11.1692C17.9248 11.1692 17.7862 11.5334 17.7497 11.7506C17.7142 11.9618 17.7481 12.1391 17.8501 12.2779C18.0218 12.5114 18.3239 12.5528 18.5666 12.5861C18.6377 12.5959 18.7048 12.605 18.761 12.6176C21.0337 13.1255 21.7989 13.9239 22.1729 16.1773C22.1821 16.2323 22.1862 16.3002 22.1906 16.3721C22.2069 16.6415 22.2409 17.2019 22.8434 17.2019H22.8434C22.8936 17.2019 22.9475 17.1976 23.0036 17.189C23.5647 17.1038 23.5471 16.5915 23.5386 16.3454C23.5363 16.2761 23.534 16.2105 23.5399 16.1669C23.5414 16.1559 23.5422 16.1449 23.5423 16.1338Z" fill="white"/>
<path d="M18.2963 10.3562C18.3636 10.3611 18.4273 10.3657 18.4804 10.3738C22.2124 10.9478 23.9287 12.716 24.4044 16.4772C24.4125 16.5411 24.4137 16.6191 24.415 16.7017C24.4198 16.9955 24.4296 17.6069 25.0861 17.6195L25.1064 17.6197C25.3123 17.6197 25.4761 17.5577 25.5933 17.4351C25.7976 17.2213 25.7834 16.9037 25.7719 16.6485C25.7691 16.5859 25.7664 16.5269 25.7671 16.4753C25.8145 12.6285 22.4847 9.14033 18.6414 9.01061C18.6255 9.01008 18.6103 9.01093 18.5949 9.01309C18.5874 9.0142 18.5734 9.01557 18.5494 9.01557C18.5111 9.01557 18.4639 9.01225 18.4139 9.00887C18.3535 9.00475 18.2849 9 18.2155 9C17.6034 9 17.4871 9.43503 17.4722 9.69436C17.4378 10.2937 18.0176 10.3359 18.2963 10.3562Z" fill="white"/>
<path d="M24.2241 21.3383C24.1448 21.2777 24.0627 21.215 23.9859 21.1531C23.5785 20.8252 23.145 20.523 22.7257 20.2307C22.6387 20.17 22.5517 20.1094 22.465 20.0486C21.928 19.6713 21.4452 19.488 20.989 19.488C20.3746 19.488 19.839 19.8275 19.3969 20.4969C19.201 20.7937 18.9634 20.9379 18.6705 20.9379C18.4974 20.9379 18.3006 20.8885 18.0858 20.791C16.3523 20.005 15.1146 18.7998 14.4067 17.2089C14.0646 16.44 14.1755 15.9374 14.7777 15.5283C15.1196 15.2962 15.7561 14.8642 15.711 14.0367C15.66 13.0972 13.5868 10.27 12.7133 9.94894C12.3435 9.81294 11.9549 9.81167 11.5563 9.94577C10.5522 10.2833 9.83158 10.8762 9.47226 11.6601C9.12503 12.4175 9.14071 13.3069 9.51761 14.2321C10.6072 16.907 12.1391 19.2392 14.0709 21.1637C15.9618 23.0476 18.2859 24.5908 20.9786 25.7503C21.2213 25.8547 21.4758 25.9117 21.6617 25.9532C21.7251 25.9675 21.7798 25.9796 21.8196 25.9905C21.8416 25.9965 21.8641 25.9997 21.8868 25.9999L21.9081 26C21.9081 26 21.9081 26 21.9082 26C23.1746 26 24.6953 24.8428 25.1623 23.5234C25.5715 22.3682 24.8244 21.7971 24.2241 21.3383Z" fill="white"/>
<path d="M18.8563 13.4118C18.6394 13.4172 18.1882 13.4284 18.0299 13.888C17.9558 14.1028 17.9647 14.2893 18.0563 14.4423C18.1907 14.6667 18.4482 14.7355 18.6825 14.7733C19.532 14.9096 19.9683 15.3794 20.0555 16.2516C20.0961 16.6582 20.3699 16.9422 20.7216 16.9422H20.7216C20.7476 16.9422 20.7741 16.9407 20.8006 16.9375C21.2235 16.8872 21.4285 16.5765 21.41 16.0141C21.4167 15.4272 21.1096 14.7608 20.5871 14.2301C20.0629 13.6977 19.431 13.3979 18.8563 13.4118Z" fill="white"/>
</g>
<defs>
<clipPath id="clip0">
<rect width="17" height="17" fill="white" transform="translate(9 9)"/>
</clipPath>
</defs>
</svg>
