<svg width="35" height="35" viewBox="0 0 35 35" fill="none" xmlns="http://www.w3.org/2000/svg">
<circle cx="17.5" cy="17.5" r="17.5" fill="#51B050"/>
<path d="M26 17.2813C26 21.8546 22.2637 25.5621 17.6538 25.5621C16.1909 25.5621 14.8167 25.1879 13.6204 24.5327L9 26L10.5061 21.5558C9.7467 20.3086 9.30932 18.844 9.30932 17.2808C9.30988 12.7074 13.045 9 17.6549 9C22.2643 9.00111 26 12.708 26 17.2813ZM17.6533 10.3204C13.7845 10.3204 10.6375 13.4436 10.6375 17.283C10.6375 18.8063 11.1342 20.2166 11.974 21.364L11.0982 23.9489L13.7934 23.0925C14.9021 23.8198 16.2286 24.2433 17.6533 24.2433C21.522 24.2433 24.6701 21.1207 24.6701 17.2813C24.6712 13.4436 21.5226 10.3204 17.6533 10.3204ZM21.8685 19.1888C21.8164 19.1051 21.68 19.0541 21.476 18.9521C21.2726 18.8501 20.2653 18.3595 20.0785 18.293C19.89 18.2248 19.7537 18.1904 19.6173 18.3939C19.4826 18.5973 19.0901 19.0541 18.9698 19.1905C18.8507 19.3263 18.7315 19.3435 18.5269 19.2431C18.3224 19.14 17.6627 18.9272 16.8811 18.2359C16.273 17.6971 15.8622 17.0335 15.7436 16.8301C15.6233 16.6272 15.7314 16.5174 15.8328 16.4165C15.9243 16.3251 16.0374 16.1793 16.1399 16.0601C16.2425 15.942 16.2763 15.8583 16.3445 15.7225C16.4115 15.5867 16.3777 15.4686 16.3273 15.3661C16.2763 15.2641 15.8677 14.2662 15.6964 13.8599C15.5263 13.4541 15.3561 13.5212 15.2363 13.5212C15.1172 13.5212 14.9808 13.5046 14.8444 13.5046C14.7081 13.5046 14.4863 13.5539 14.2995 13.7574C14.1127 13.9608 13.5839 14.4514 13.5839 15.4503C13.5839 16.4504 14.3161 17.4144 14.4187 17.5496C14.5218 17.6843 15.8345 19.8013 17.9138 20.614C19.9943 21.4261 19.9943 21.1551 20.369 21.1207C20.7448 21.0863 21.5797 20.6301 21.7493 20.1567C21.92 19.6811 21.92 19.2736 21.8685 19.1888Z" fill="white"/>
</svg>
