<svg width="88" height="81" viewBox="0 0 88 81" fill="none" xmlns="http://www.w3.org/2000/svg">
<path d="M87.5 40.5C87.5 62.5532 68.0642 80.5 44 80.5C19.9358 80.5 0.5 62.5532 0.5 40.5C0.5 18.4468 19.9358 0.5 44 0.5C68.0642 0.5 87.5 18.4468 87.5 40.5Z" stroke="#FFD7E7"/>
<ellipse cx="44" cy="40.5" rx="39" ry="35.5" fill="#FA508F"/>
<path d="M55.7495 23.7646H50.7617C50.4906 22.962 49.731 22.3823 48.838 22.3823H46.7287C46.0885 21.5214 45.0743 21 44 21C42.9257 21 41.9115 21.5214 41.2714 22.3823H39.162C38.269 22.3823 37.5095 22.962 37.2384 23.7646H32.2506C30.75 23.7646 29.5292 24.9854 29.5292 26.486V58.2786C29.5292 59.7792 30.75 61 32.2506 61H55.7495C57.25 61 58.4709 59.7792 58.4709 58.2786V26.486C58.4709 24.9854 57.25 23.7646 55.7495 23.7646ZM37.2384 27.8251C37.5095 28.6276 38.269 29.2073 39.162 29.2073H48.838C49.731 29.2073 50.4906 28.6276 50.7617 27.8251H54.4104V56.9395H33.5896V27.8251H37.2384ZM39.162 23.6782H41.6188C41.8495 23.6782 42.0628 23.5555 42.1788 23.3561C42.5653 22.6923 43.2461 22.2959 44 22.2959C44.754 22.2959 45.4347 22.6923 45.8211 23.3561C45.9372 23.5555 46.1505 23.6782 46.3811 23.6782H48.838C49.243 23.6782 49.5724 24.0076 49.5724 24.4125V27.1755C49.5724 27.1761 49.5723 27.1766 49.5723 27.1771C49.5723 27.1774 49.5723 27.1776 49.5723 27.178C49.5718 27.5825 49.2426 27.9114 48.8379 27.9114H39.1619C38.7576 27.9114 38.4286 27.5829 38.4277 27.1787C38.4277 27.1781 38.4277 27.1776 38.4277 27.1771C38.4277 27.176 38.4276 27.1749 38.4276 27.1737V24.4125C38.4277 24.0076 38.7571 23.6782 39.162 23.6782ZM57.175 58.2786C57.175 59.0646 56.5355 59.7041 55.7495 59.7041H32.2506C31.4646 59.7041 30.8251 59.0646 30.8251 58.2786V26.486C30.8251 25.7 31.4646 25.0605 32.2506 25.0605H37.1318V26.5292H32.9417C32.5838 26.5292 32.2938 26.8192 32.2938 27.1771V57.5875C32.2938 57.9454 32.5838 58.2354 32.9417 58.2354H55.0583C55.4163 58.2354 55.7063 57.9454 55.7063 57.5875V27.1771C55.7063 26.8192 55.4163 26.5292 55.0583 26.5292H50.8683V25.0605H55.7495C56.5355 25.0605 57.175 25.7 57.175 26.486V58.2786Z" fill="white"/>
<path d="M44 26.4428C44.3579 26.4428 44.6479 26.1528 44.6479 25.7949V24.4126C44.6479 24.0547 44.3579 23.7646 44 23.7646C43.6421 23.7646 43.3521 24.0547 43.3521 24.4126V25.7949C43.3521 26.1528 43.6421 26.4428 44 26.4428Z" fill="white"/>
<path d="M44.6912 35.4277H48.838C49.196 35.4277 49.486 35.1377 49.486 34.7798C49.486 34.4219 49.196 34.1318 48.838 34.1318H44.6912C44.3332 34.1318 44.0432 34.4219 44.0432 34.7798C44.0432 35.1377 44.3332 35.4277 44.6912 35.4277Z" fill="white"/>
<path d="M44.6912 38.1924H51.6026C51.9605 38.1924 52.2506 37.9024 52.2506 37.5444C52.2506 37.1865 51.9605 36.8965 51.6026 36.8965H44.6912C44.3332 36.8965 44.0432 37.1865 44.0432 37.5444C44.0432 37.9024 44.3332 38.1924 44.6912 38.1924Z" fill="white"/>
<path d="M38.0126 38.0027C38.1392 38.1292 38.3051 38.1925 38.4709 38.1925C38.6367 38.1925 38.8025 38.1292 38.9291 38.0027L42.3848 34.547C42.6379 34.2939 42.6379 33.8837 42.3848 33.6306C42.1317 33.3777 41.7215 33.3777 41.4685 33.6306L38.4709 36.6282L36.8557 35.0129C36.6025 34.76 36.1923 34.76 35.9393 35.0129C35.6863 35.2661 35.6863 35.6763 35.9393 35.9293L38.0126 38.0027Z" fill="white"/>
<path d="M44.6912 42.3389H48.838C49.196 42.3389 49.486 42.0488 49.486 41.6909C49.486 41.333 49.196 41.043 48.838 41.043H44.6912C44.3332 41.043 44.0432 41.333 44.0432 41.6909C44.0432 42.0488 44.3332 42.3389 44.6912 42.3389Z" fill="white"/>
<path d="M44.6912 45.1035H51.6026C51.9605 45.1035 52.2506 44.8135 52.2506 44.4556C52.2506 44.0976 51.9605 43.8076 51.6026 43.8076H44.6912C44.3332 43.8076 44.0432 44.0976 44.0432 44.4556C44.0432 44.8135 44.3332 45.1035 44.6912 45.1035Z" fill="white"/>
<path d="M38.0126 44.9139C38.1392 45.0403 38.3051 45.1036 38.4709 45.1036C38.6367 45.1036 38.8025 45.0403 38.9291 44.9139L42.3848 41.4581C42.6379 41.205 42.6379 40.7948 42.3848 40.5418C42.1317 40.2888 41.7215 40.2888 41.4685 40.5418L38.4709 43.5394L36.8557 41.9241C36.6025 41.6711 36.1923 41.6711 35.9393 41.9241C35.6863 42.1772 35.6863 42.5874 35.9393 42.8404L38.0126 44.9139Z" fill="white"/>
<path d="M44.6912 49.2505H48.838C49.196 49.2505 49.486 48.9605 49.486 48.6025C49.486 48.2446 49.196 47.9546 48.838 47.9546H44.6912C44.3332 47.9546 44.0432 48.2446 44.0432 48.6025C44.0432 48.9605 44.3332 49.2505 44.6912 49.2505Z" fill="white"/>
<path d="M44.6912 52.0151H51.6026C51.9605 52.0151 52.2506 51.7251 52.2506 51.3672C52.2506 51.0093 51.9605 50.7192 51.6026 50.7192H44.6912C44.3332 50.7192 44.0432 51.0093 44.0432 51.3672C44.0432 51.7251 44.3332 52.0151 44.6912 52.0151Z" fill="white"/>
<path d="M38.0126 51.8255C38.1392 51.952 38.3051 52.0152 38.4709 52.0152C38.6367 52.0152 38.8025 51.952 38.9291 51.8255L42.3848 48.3698C42.6379 48.1166 42.6379 47.7064 42.3848 47.4534C42.1317 47.2004 41.7215 47.2004 41.4685 47.4534L38.4709 50.451L36.8557 48.8357C36.6025 48.5827 36.1923 48.5827 35.9393 48.8357C35.6863 49.0888 35.6863 49.499 35.9393 49.7521L38.0126 51.8255Z" fill="white"/>
</svg>
