<svg width="669" height="642" viewBox="0 0 669 642" fill="none" xmlns="http://www.w3.org/2000/svg">
<mask id="mask0" mask-type="alpha" maskUnits="userSpaceOnUse" x="0" y="0" width="669" height="642">
<rect x="0.449341" y="270.942" width="517.199" height="435.106" transform="rotate(-31.5919 0.449341 270.942)" fill="#C4C4C4"/>
</mask>
<g mask="url(#mask0)">
<path d="M-19.2926 565.12L564.084 201.274" stroke="#EED7DF"/>
<path d="M-11.208 571.006L572.168 207.159" stroke="#EED7DF"/>
<path d="M-7.9029 578.359L575.474 214.513" stroke="#EED7DF"/>
<path d="M-2.68599 585.126L580.69 221.279" stroke="#EED7DF"/>
<path d="M2.82457 592.848L586.201 229.001" stroke="#EED7DF"/>
<path d="M8.04149 599.614L591.418 235.768" stroke="#EED7DF"/>
<path d="M12.5961 607.63L595.973 243.783" stroke="#EED7DF"/>
<path d="M17.813 614.397L601.19 250.55" stroke="#EED7DF"/>
<path d="M22.074 621.456L605.45 257.61" stroke="#EED7DF"/>
<path d="M26.6287 629.473L610.005 265.626" stroke="#EED7DF"/>
<path d="M31.1833 637.488L614.56 273.642" stroke="#EED7DF"/>
<path d="M36.0316 646.46L619.408 282.613" stroke="#EED7DF"/>
<path d="M41.5422 654.183L624.919 290.336" stroke="#EED7DF"/>
<path d="M46.7591 660.949L630.136 297.103" stroke="#EED7DF"/>
<path d="M51.0201 668.009L634.397 304.162" stroke="#EED7DF"/>
<path d="M56.5306 675.732L639.907 311.885" stroke="#EED7DF"/>
<path d="M60.7916 682.791L644.168 318.945" stroke="#EED7DF"/>
<path d="M66.9644 689.264L650.341 325.417" stroke="#EED7DF"/>
<path d="M72.475 696.986L655.851 333.14" stroke="#EED7DF"/>
<path d="M77.0297 705.002L660.406 341.155" stroke="#EED7DF"/>
<path d="M80.3347 712.356L663.711 348.509" stroke="#EED7DF"/>
<path d="M84.8894 720.372L668.266 356.526" stroke="#EED7DF"/>
<path d="M87.5322 728.975L670.909 365.128" stroke="#EED7DF"/>
<path d="M-23.185 555.855L560.191 192.008" stroke="#EED7DF"/>
<path d="M-26.7837 547.545L556.593 183.698" stroke="#EED7DF"/>
<path d="M-30.3825 539.235L552.994 175.389" stroke="#EED7DF"/>
<path d="M-141.27 366.592L442.106 2.74531" stroke="#EED7DF"/>
<path d="M-133.186 372.478L450.191 8.63106" stroke="#EED7DF"/>
<path d="M-129.881 379.831L453.496 15.9846" stroke="#EED7DF"/>
<path d="M-124.664 386.598L458.713 22.7512" stroke="#EED7DF"/>
<path d="M-119.153 394.319L464.223 30.4729" stroke="#EED7DF"/>
<path d="M-113.936 401.086L469.44 37.2395" stroke="#EED7DF"/>
<path d="M-109.382 409.102L473.995 45.2551" stroke="#EED7DF"/>
<path d="M-104.165 415.868L479.212 52.0217" stroke="#EED7DF"/>
<path d="M-99.9037 422.928L483.473 59.0813" stroke="#EED7DF"/>
<path d="M-95.3491 430.944L488.027 67.0979" stroke="#EED7DF"/>
<path d="M-90.7944 438.96L492.582 75.1135" stroke="#EED7DF"/>
<path d="M-85.9461 447.932L497.43 84.0852" stroke="#EED7DF"/>
<path d="M-80.4356 455.654L502.941 91.8078" stroke="#EED7DF"/>
<path d="M-75.2186 462.421L508.158 98.5744" stroke="#EED7DF"/>
<path d="M-70.9577 469.481L512.419 105.634" stroke="#EED7DF"/>
<path d="M-65.4471 477.203L517.929 113.357" stroke="#EED7DF"/>
<path d="M-61.1861 484.263L522.19 120.416" stroke="#EED7DF"/>
<path d="M-55.0133 490.735L528.363 126.889" stroke="#EED7DF"/>
<path d="M-49.5027 498.458L533.874 134.612" stroke="#EED7DF"/>
<path d="M-44.9481 506.474L538.428 142.627" stroke="#EED7DF"/>
<path d="M-41.643 513.827L541.733 149.981" stroke="#EED7DF"/>
<path d="M-37.0884 521.844L546.288 157.997" stroke="#EED7DF"/>
<path d="M-34.4455 530.446L548.931 166.6" stroke="#EED7DF"/>
<path d="M-145.163 357.326L438.214 -6.52031" stroke="#EED7DF"/>
<path d="M-148.761 349.017L434.615 -14.8299" stroke="#EED7DF"/>
<path d="M-152.36 340.707L431.016 -23.1395" stroke="#EED7DF"/>
</g>
</svg>
