<svg width="664" height="634" viewBox="0 0 664 634" fill="none" xmlns="http://www.w3.org/2000/svg">
<mask id="mask0" mask-type="alpha" maskUnits="userSpaceOnUse" x="0" y="0" width="664" height="634">
<rect x="0.910461" y="273.903" width="516.481" height="424.289" transform="rotate(-32 0.910461 273.903)" fill="#C4C4C4"/>
</mask>
<g mask="url(#mask0)">
<path d="M23.6047 533.418L607.427 170.288" stroke="#EED7DF"/>
<path d="M31.6821 539.314L615.505 176.183" stroke="#EED7DF"/>
<path d="M34.9782 546.672L618.801 183.541" stroke="#EED7DF"/>
<path d="M40.1868 553.444L624.009 190.314" stroke="#EED7DF"/>
<path d="M45.6878 561.173L629.51 198.043" stroke="#EED7DF"/>
<path d="M50.8964 567.946L634.719 204.816" stroke="#EED7DF"/>
<path d="M55.4412 575.968L639.264 212.837" stroke="#EED7DF"/>
<path d="M60.6498 582.74L644.472 219.61" stroke="#EED7DF"/>
<path d="M64.9022 589.806L648.725 226.675" stroke="#EED7DF"/>
<path d="M69.447 597.827L653.27 234.697" stroke="#EED7DF"/>
<path d="M73.9918 605.849L657.814 242.718" stroke="#EED7DF"/>
<path d="M78.8291 614.827L662.652 251.696" stroke="#EED7DF"/>
<path d="M84.3301 622.556L668.153 259.425" stroke="#EED7DF"/>
<path d="M89.5387 629.328L673.361 266.198" stroke="#EED7DF"/>
<path d="M93.7911 636.393L677.614 273.263" stroke="#EED7DF"/>
<path d="M99.2921 644.122L683.115 280.992" stroke="#EED7DF"/>
<path d="M103.544 651.188L687.367 288.057" stroke="#EED7DF"/>
<path d="M109.709 657.668L693.532 294.538" stroke="#EED7DF"/>
<path d="M115.21 665.397L699.033 302.267" stroke="#EED7DF"/>
<path d="M119.755 673.419L703.578 310.288" stroke="#EED7DF"/>
<path d="M123.051 680.776L706.874 317.646" stroke="#EED7DF"/>
<path d="M127.596 688.798L711.419 325.668" stroke="#EED7DF"/>
<path d="M130.228 697.404L714.051 334.274" stroke="#EED7DF"/>
<path d="M19.7237 524.148L603.546 161.018" stroke="#EED7DF"/>
<path d="M16.1352 515.834L599.958 152.704" stroke="#EED7DF"/>
<path d="M12.5466 507.52L596.369 144.39" stroke="#EED7DF"/>
<path d="M-98.13 334.742L485.693 -28.3889" stroke="#EED7DF"/>
<path d="M-90.0526 340.637L493.77 -22.4933" stroke="#EED7DF"/>
<path d="M-86.7565 347.995L497.066 -15.1357" stroke="#EED7DF"/>
<path d="M-81.5479 354.767L502.275 -8.36298" stroke="#EED7DF"/>
<path d="M-76.0468 362.496L507.776 -0.633972" stroke="#EED7DF"/>
<path d="M-70.8382 369.269L512.984 6.13898" stroke="#EED7DF"/>
<path d="M-66.2934 377.291L517.529 14.1605" stroke="#EED7DF"/>
<path d="M-61.0848 384.064L522.738 20.9332" stroke="#EED7DF"/>
<path d="M-56.8325 391.129L526.99 27.9984" stroke="#EED7DF"/>
<path d="M-52.2877 399.15L531.535 36.0198" stroke="#EED7DF"/>
<path d="M-47.7429 407.172L536.08 44.0416" stroke="#EED7DF"/>
<path d="M-42.9056 416.15L540.917 53.0193" stroke="#EED7DF"/>
<path d="M-37.4045 423.879L546.418 60.7484" stroke="#EED7DF"/>
<path d="M-32.1959 430.651L551.627 67.5211" stroke="#EED7DF"/>
<path d="M-27.9436 437.717L555.879 74.5862" stroke="#EED7DF"/>
<path d="M-22.4425 445.446L561.38 82.3152" stroke="#EED7DF"/>
<path d="M-18.1902 452.511L565.632 89.3807" stroke="#EED7DF"/>
<path d="M-12.0253 458.991L571.797 95.8609" stroke="#EED7DF"/>
<path d="M-6.52427 466.72L577.298 103.59" stroke="#EED7DF"/>
<path d="M-1.97947 474.742L581.843 111.611" stroke="#EED7DF"/>
<path d="M1.31658 482.1L585.139 118.969" stroke="#EED7DF"/>
<path d="M5.86141 490.121L589.684 126.991" stroke="#EED7DF"/>
<path d="M8.49365 498.728L592.316 135.597" stroke="#EED7DF"/>
<path d="M-102.011 325.471L481.812 -37.6591" stroke="#EED7DF"/>
<path d="M-105.6 317.157L478.223 -45.9731" stroke="#EED7DF"/>
<path d="M-109.188 308.843L474.635 -54.287" stroke="#EED7DF"/>
</g>
</svg>
