<svg width="20" height="20" viewBox="0 0 20 20" fill="none" xmlns="http://www.w3.org/2000/svg">
<path d="M15.8594 7.69562V5.85938C15.8594 2.62848 13.2309 0 10 0C6.7691 0 4.14062 2.62848 4.14062 5.85938V7.69562C3.25012 7.87704 2.57812 8.66623 2.57812 9.60938V11.8269C2.57812 12.0427 2.75299 12.2176 2.96875 12.2176C3.18451 12.2176 3.35938 12.0427 3.35938 11.8269V9.60938C3.35938 8.96317 3.88504 8.4375 4.53125 8.4375H15.4688C16.115 8.4375 16.6406 8.96317 16.6406 9.60938V18.0469C16.6406 18.5561 16.3141 18.9903 15.8594 19.1516V16.7969C15.8594 16.5811 15.6845 16.4062 15.4688 16.4062C15.253 16.4062 15.0781 16.5811 15.0781 16.7969V19.2188H4.53125C3.88504 19.2188 3.35938 18.6931 3.35938 18.0469V14.9609C3.35938 14.7452 3.18451 14.5703 2.96875 14.5703C2.75299 14.5703 2.57812 14.7452 2.57812 14.9609V18.0469C2.57812 19.1238 3.45428 20 4.53125 20H15.4688C16.5457 20 17.4219 19.1238 17.4219 18.0469V9.60938C17.4219 8.66623 16.7499 7.87704 15.8594 7.69562ZM7.03125 7.65625V5.85938C7.03125 4.22241 8.36304 2.89062 10 2.89062C11.637 2.89062 12.9688 4.22241 12.9688 5.85938V7.65625H7.03125ZM13.75 7.65625V5.85938C13.75 3.79166 12.0677 2.10938 10 2.10938C7.93228 2.10938 6.25 3.79166 6.25 5.85938V7.65625H4.92188V5.85938C4.92188 3.05923 7.19986 0.78125 10 0.78125C12.8001 0.78125 15.0781 3.05923 15.0781 5.85938V7.65625H13.75Z" fill="#747474"/>
<path d="M2.96875 13.7695C3.07144 13.7695 3.1723 13.7279 3.24493 13.6551C3.31757 13.5825 3.35938 13.4818 3.35938 13.3789C3.35938 13.2762 3.31757 13.1754 3.24493 13.1029C3.1723 13.0301 3.07144 12.9883 2.96875 12.9883C2.86606 12.9883 2.7652 13.0301 2.69257 13.1029C2.61993 13.1754 2.57812 13.2762 2.57812 13.3789C2.57812 13.4818 2.61993 13.5825 2.69257 13.6551C2.7652 13.7279 2.86606 13.7695 2.96875 13.7695Z" fill="#747474"/>
<path d="M9.99997 17.8911C10.6462 17.8911 11.1718 17.3654 11.1718 16.7192V14.6449C11.7587 14.2564 12.1144 13.6033 12.1144 12.8877C12.1144 11.7247 11.168 10.7783 10.005 10.7783C8.84183 10.7783 7.89563 11.7247 7.89563 12.8877C7.89563 13.5981 8.24734 14.2488 8.82809 14.6382V16.7192C8.82809 17.3654 9.35376 17.8911 9.99997 17.8911ZM8.67688 12.8877C8.67688 12.1553 9.27258 11.5596 10.005 11.5596C10.7373 11.5596 11.3331 12.1553 11.3331 12.8877C11.3331 13.3906 11.0539 13.8446 10.6045 14.0727C10.4733 14.1392 10.3906 14.2738 10.3906 14.4211V16.7192C10.3906 16.9346 10.2154 17.1098 9.99997 17.1098C9.78452 17.1098 9.60934 16.9346 9.60934 16.7192V14.4159C9.60934 14.2697 9.52771 14.1357 9.39771 14.0687C8.95306 13.8395 8.67688 13.387 8.67688 12.8877Z" fill="#747474"/>
<path d="M15.4688 15.5859C15.5719 15.5859 15.6723 15.5441 15.7449 15.4715C15.8176 15.3989 15.8594 15.2985 15.8594 15.1953C15.8594 15.0922 15.8176 14.9918 15.7449 14.9191C15.6723 14.8465 15.5719 14.8047 15.4688 14.8047C15.3661 14.8047 15.2652 14.8465 15.1926 14.9191C15.1199 14.9918 15.0781 15.0926 15.0781 15.1953C15.0781 15.298 15.1199 15.3989 15.1926 15.4715C15.2652 15.5441 15.3661 15.5859 15.4688 15.5859Z" fill="#747474"/>
</svg>
