<svg width="65" height="60" viewBox="0 0 65 60" fill="none" xmlns="http://www.w3.org/2000/svg">
<path d="M64.0359 21.1212C64.6472 20.5617 64.9911 19.8 64.9911 19.0053C64.9815 17.3487 63.5273 16.0088 61.7326 16.0028H61.7215C60.8625 16.0039 60.0398 16.3229 59.4376 16.8884L55.7542 20.288C54.8762 20.0986 53.9777 20.0012 53.076 19.9977V10.2639L57.2659 3.49549C57.2767 3.47822 57.276 3.45856 57.2856 3.44093C57.3154 3.37982 57.3382 3.31621 57.3538 3.25081C57.375 3.18755 57.3893 3.12263 57.3963 3.05675C57.3976 3.03674 57.4088 3.01982 57.4088 2.99945C57.4022 2.93536 57.3914 2.87175 57.3763 2.80897C57.3698 2.77859 57.3703 2.74834 57.3609 2.71867C56.8645 0.0863658 49.5999 0 48.7432 0C47.8866 0 40.6219 0.0863658 40.1255 2.71879C40.1161 2.74846 40.1166 2.77883 40.1101 2.80909C40.095 2.87187 40.0842 2.93548 40.0776 2.99957C40.0776 3.01994 40.0888 3.03686 40.0901 3.05687C40.0971 3.12275 40.1113 3.18779 40.1326 3.25093C40.1482 3.31632 40.171 3.38006 40.2009 3.44105C40.2104 3.4588 40.2098 3.47834 40.2205 3.49561L44.4105 10.2641V19.9974H40.0777V13.3693C40.8593 12.3235 41.2405 11.067 41.1609 9.79852C41.1609 6.99908 37.8791 4.49447 37.5046 4.21822C37.4777 4.19833 37.4449 4.19356 37.4168 4.17641C37.2986 4.1072 37.1684 4.05752 37.0317 4.02953C36.7575 3.98438 36.475 4.03667 36.2408 4.17569C36.2121 4.19297 36.1787 4.19797 36.1514 4.2181C35.7769 4.49447 32.4951 6.99896 32.4951 9.7984C32.4156 11.0667 32.7969 12.3233 33.5783 13.3691V19.9973H30.3287V10.9986C30.3237 10.9668 30.3167 10.9352 30.3082 10.9041C30.3103 10.8715 30.3104 10.8388 30.3087 10.8062L29.1811 5.51383C28.9379 4.61407 28.0564 3.98664 27.0518 3.99855C26.0473 4.01047 25.1834 4.65839 24.9652 5.56362L23.8497 10.8061C23.848 10.8387 23.8481 10.8714 23.8502 10.904C23.8415 10.9351 23.8347 10.9667 23.8297 10.9985V19.9973H21.6633V15.9978C21.6618 14.8939 20.6928 13.9993 19.4969 13.998V11.7202C20.1647 11.3658 20.5776 10.7098 20.58 9.99865V1.99975C20.5788 0.895821 19.6097 0.00131038 18.4139 0H12.9979C11.802 0.00131038 10.8329 0.895821 10.8315 1.99975V9.99877C10.8341 10.7099 11.2468 11.366 11.9147 11.7204V13.9983C10.7187 13.9996 9.74968 14.8941 9.74826 15.998V20.186C4.09861 21.1501 0.00119883 25.7015 0.00855481 31.0049L0.0307518 57.9456C0.0146203 58.4853 0.235687 59.008 0.643621 59.395C1.05156 59.7819 1.61164 60.0001 2.19664 60H62.794C63.3736 60.0001 63.929 59.7859 64.3362 59.4051C64.7434 59.0244 64.9682 58.5088 64.9604 57.9738L64.9821 31.0047C64.9909 28.1453 63.7844 25.3968 61.6218 23.3496L64.0359 21.1212ZM60.9747 18.2974C61.173 18.1096 61.4448 18.0034 61.7288 18.0025H61.7321C62.1724 17.9975 62.5719 18.24 62.7415 18.6151C62.9111 18.9902 62.8167 19.4229 62.5031 19.7083L59.9732 22.0436C59.3652 21.6424 58.7174 21.2955 58.0383 21.0075L60.9747 18.2974ZM42.4173 3.0141C43.1165 2.5974 45.2989 1.99975 48.7432 1.99975C52.1875 1.99975 54.3699 2.5974 55.0691 3.0141L51.3644 8.99883H46.1222L42.4173 3.0141ZM46.5768 12.9983V10.9986H50.9096V12.9983H46.5768ZM50.9096 14.9981V19.9974H46.5768V14.9981H50.9096ZM34.6617 9.79852C34.6617 8.5788 35.9034 7.18396 36.8281 6.34639C37.7527 7.18396 38.9945 8.5788 38.9945 9.79852C39.0396 10.5616 38.86 11.3219 38.4749 11.9984H35.1811C34.7961 11.3218 34.6166 10.5616 34.6617 9.79852ZM35.7449 15.9979V13.9982H37.9113V15.9979H35.7449ZM37.9112 17.9977V19.9974H35.7448V17.9977H37.9112ZM27.0672 5.94839L27.929 9.99865H26.2242L27.0672 5.94839ZM25.9962 11.9984H28.1626V19.9974H25.9962V11.9984ZM12.9978 1.99975H18.4137L18.4148 9.99877H12.9977V1.99975H12.9978ZM11.9147 15.9979C13.1106 15.9966 14.0796 15.1021 14.0811 13.9982V11.9984H17.3306V13.9982C17.332 15.1021 18.3011 15.9966 19.497 15.9979V19.9974H11.9236L11.9145 19.9979V15.9979H11.9147ZM62.8157 31.0028L62.794 58.0002L2.19664 57.9719L2.17496 31.0027C2.17289 28.6148 3.19911 26.3242 5.02766 24.6351C6.85607 22.946 9.33697 21.9969 11.9237 21.9971H53.067C55.6538 21.9971 58.1346 22.946 59.963 24.6351C61.7916 26.3243 62.8178 28.6149 62.8157 31.0028Z" fill="#272727"/>
<path d="M40.7526 28.0039H40.7452C38.8762 28.0076 37.0936 28.7314 35.8276 30.0007L32.4955 33.2894L29.1607 29.9978C27.8949 28.7301 26.1134 28.0075 24.2457 28.0039H24.2383C22.3739 28.0087 20.5964 28.7322 19.3353 29.9997C16.673 32.688 16.6733 36.8075 19.3359 39.4956L31.7047 51.6844C31.9096 51.8862 32.1958 52.0008 32.4955 52.0008C32.7951 52.0008 33.0814 51.8864 33.2862 51.6844L45.655 39.4956C48.3175 36.8074 48.3175 32.6879 45.655 29.9997C44.3942 28.7321 42.6169 28.0086 40.7526 28.0039ZM44.0763 38.1266L44.0747 38.1286L32.4955 49.5382L20.9146 38.1266C19.0197 36.2125 19.0203 33.28 20.9161 31.3667C21.7699 30.5046 22.9749 30.0105 24.2402 30.0037H24.245C25.5139 30.0091 26.7228 30.5028 27.5808 31.3657L31.7041 35.4355C31.9137 35.6296 32.1984 35.7387 32.4953 35.7387C32.7923 35.7387 33.077 35.6296 33.2865 35.4355L37.4072 31.3687C38.2653 30.5042 39.4754 30.0094 40.7456 30.0037H40.7504C42.0158 30.0105 43.2205 30.5046 44.074 31.3668C45.9704 33.2798 45.9714 36.2125 44.0763 38.1266Z" fill="#FA5290"/>
<path d="M5.41566 31.0037C5.12839 31.0035 4.85274 31.109 4.64961 31.2965C4.44648 31.484 4.3324 31.7383 4.3324 32.0036V45.0018C4.3324 45.5541 4.81738 46.0016 5.41553 46.0016C6.01369 46.0016 6.49867 45.554 6.49867 45.0018V32.0036C6.4988 31.7384 6.38459 31.4841 6.18146 31.2965C5.97859 31.109 5.70293 31.0037 5.41566 31.0037Z" fill="#272727"/>
<path d="M5.41566 48.0017C5.12839 48.0016 4.85274 48.107 4.64961 48.2945C4.44648 48.482 4.3324 48.7364 4.3324 49.0016V53.0012C4.3324 53.5534 4.81738 54.001 5.41553 54.001C6.01369 54.001 6.49867 53.5533 6.49867 53.0012V49.0016C6.4988 48.7365 6.38459 48.482 6.18146 48.2945C5.97859 48.1069 5.70293 48.0016 5.41566 48.0017Z" fill="#272727"/>
</svg>
