<svg width="20" height="20" viewBox="0 0 20 20" fill="none" xmlns="http://www.w3.org/2000/svg">
<path d="M11.9046 0H8.09509C4.10506 0 0.858887 3.24542 0.858887 7.23467V10.6663C0.858887 13.6371 2.68441 16.3071 5.42936 17.3944V19.6191C5.42936 19.77 5.5181 19.9063 5.65598 19.9672C5.70549 19.9893 5.75805 20 5.81023 20C5.90278 20 5.99457 19.9661 6.0658 19.9014L8.27448 17.901H11.9046C15.8946 17.901 19.1408 14.6556 19.1408 10.6663V7.23467C19.1408 3.24542 15.8946 0 11.9046 0ZM18.379 10.6663C18.379 14.2355 15.4749 17.1393 11.9046 17.1393H8.12746C8.033 17.1393 7.94197 17.1743 7.87189 17.2379L6.1911 18.7603V17.1305C6.1911 16.969 6.08941 16.825 5.93706 16.7717C3.35551 15.8588 1.62063 13.4052 1.62063 10.6663V7.23467C1.62063 3.66552 4.52517 0.761745 8.09509 0.761745H11.9046C15.4749 0.761745 18.379 3.66552 18.379 7.23467V10.6663Z" fill="#FF6AA4"/>
<path d="M15.0335 11.6139L12.6926 10.0935C12.4367 9.92707 12.132 9.8707 11.8338 9.9324C11.5352 9.99524 11.2785 10.1716 11.112 10.4287L11.0019 10.5978C9.98883 10.263 8.87173 9.83527 8.20292 7.8993L8.47981 7.65859C8.95514 7.24534 9.00503 6.52245 8.59179 6.04636L6.76055 3.93975C6.62268 3.78093 6.38197 3.76455 6.22314 3.90204L5.07329 4.90145C4.06474 5.77822 4.53588 7.07509 4.69089 7.50129C4.69775 7.52033 4.70613 7.53861 4.71603 7.55651C4.75602 7.62812 5.71087 9.33214 7.25302 10.9029C8.80127 12.4801 11.5965 13.9365 11.6822 13.9788C12.0014 14.186 12.3605 14.2854 12.7159 14.2854C13.3397 14.2854 13.9514 13.9795 14.3163 13.4189L15.1458 12.1415C15.2601 11.9644 15.2098 11.7286 15.0335 11.6139ZM13.6772 13.0038C13.334 13.5324 12.6248 13.6825 12.065 13.3214C12.0372 13.3069 9.26022 11.8608 7.79653 10.3696C6.42843 8.97603 5.52005 7.42778 5.39627 7.21183C5.09462 6.36591 5.14794 5.84602 5.57299 5.47657L6.43567 4.72701L8.01705 6.54606C8.15759 6.70755 8.14121 6.94369 7.98049 7.08347L7.51316 7.48948C7.39928 7.58851 7.35433 7.74505 7.39889 7.88902C8.19568 10.4782 9.74507 10.9867 10.8763 11.358L11.0412 11.4125C11.2061 11.4681 11.3866 11.4045 11.4811 11.259L11.7511 10.8431C11.8067 10.757 11.892 10.6987 11.9911 10.6778C12.0905 10.6564 12.1918 10.6762 12.2779 10.7322L14.2995 12.0451L13.6772 13.0038Z" fill="#FF6AA4"/>
<path d="M10.8694 6.18803C10.6668 6.12976 10.4562 6.24745 10.3987 6.45007C10.3411 6.65231 10.4584 6.86294 10.6607 6.92045C11.2282 7.08194 11.6803 7.5348 11.8403 8.10268C11.8875 8.27026 12.0402 8.38033 12.2067 8.38033C12.2409 8.38033 12.2756 8.37576 12.3103 8.36624C12.5125 8.30911 12.6306 8.09887 12.5734 7.89624C12.3422 7.07585 11.689 6.42112 10.8694 6.18803Z" fill="#FF6AA4"/>
<path d="M13.7678 8.46261C13.8021 8.46261 13.8368 8.45804 13.8714 8.44852C14.074 8.39139 14.1917 8.18076 14.1346 7.97852C13.6852 6.38533 12.4173 5.11474 10.8252 4.6615C10.623 4.60323 10.4123 4.72168 10.3548 4.92392C10.2973 5.12617 10.4146 5.33679 10.6169 5.3943C11.9564 5.77517 13.0232 6.84504 13.4014 8.18533C13.449 8.35292 13.6014 8.46261 13.7678 8.46261Z" fill="#FF6AA4"/>
<path d="M10.661 2.88778C10.4584 2.8295 10.2478 2.94719 10.1903 3.1502C10.1328 3.35244 10.2501 3.56306 10.4523 3.62058C12.7219 4.26616 14.5299 6.07835 15.1706 8.34949C15.2178 8.51708 15.3705 8.62715 15.537 8.62715C15.5712 8.62715 15.6059 8.62258 15.6406 8.61306C15.8428 8.55592 15.9609 8.3453 15.9037 8.14306C15.1919 5.61902 13.1832 3.60572 10.661 2.88778Z" fill="#FF6AA4"/>
</svg>
