<svg width="258" height="589" viewBox="0 0 258 589" fill="none" xmlns="http://www.w3.org/2000/svg">
<path d="M142.6 438.64C142.6 414.368 147.928 391.872 158.584 371.152C169.24 350.432 182.264 332.672 197.656 317.872C213.048 302.48 228.44 287.976 243.832 274.36C259.224 260.152 272.248 245.056 282.904 229.072C293.56 212.496 298.888 195.328 298.888 177.568C298.888 152.704 290.304 133.76 273.136 120.736C255.968 107.12 232.88 100.312 203.872 100.312C176.048 100.312 152.072 107.416 131.944 121.624C111.816 135.832 97.312 155.96 88.432 182.008L0.520003 132.28C17.096 90.248 43.736 57.984 80.44 35.488C117.736 12.4 159.768 0.855947 206.536 0.855947C259.224 0.855947 304.808 15.9519 343.288 46.1439C381.768 76.336 401.008 118.072 401.008 171.352C401.008 196.216 395.68 219.6 385.024 241.504C374.368 262.816 361.344 281.168 345.952 296.56C330.56 311.952 315.168 327.048 299.776 341.848C284.384 356.056 271.36 371.448 260.704 388.024C250.048 404.6 244.72 421.472 244.72 438.64H142.6ZM241.168 625.12C228.144 638.144 212.456 644.656 194.104 644.656C175.752 644.656 160.064 638.144 147.04 625.12C134.016 612.096 127.504 596.408 127.504 578.056C127.504 559.704 133.72 544.016 146.152 530.992C159.176 517.968 175.16 511.456 194.104 511.456C212.456 511.456 228.144 517.968 241.168 530.992C254.192 544.016 260.704 559.704 260.704 578.056C260.704 596.408 254.192 612.096 241.168 625.12Z" fill="white" fill-opacity="0.5"/>
</svg>
