<svg width="723" height="394" viewBox="0 0 723 394" fill="none" xmlns="http://www.w3.org/2000/svg">
<path d="M4 205.5L668.5 29" stroke="#FFF2F9"/>
<path d="M10 213.5L674.5 37" stroke="#FFF2F9"/>
<path d="M11 221.5L675.5 45" stroke="#FFF2F9"/>
<path d="M14 229.5L678.5 53" stroke="#FFF2F9"/>
<path d="M17 238.5L681.5 62" stroke="#FFF2F9"/>
<path d="M20 246.5L684.5 70" stroke="#FFF2F9"/>
<path d="M22 255.5L686.5 79" stroke="#FFF2F9"/>
<path d="M25 263.5L689.5 87" stroke="#FFF2F9"/>
<path d="M27 271.5L691.5 95" stroke="#FFF2F9"/>
<path d="M29 280.5L693.5 104" stroke="#FFF2F9"/>
<path d="M31 289.5L695.5 113" stroke="#FFF2F9"/>
<path d="M33 299.5L697.5 123" stroke="#FFF2F9"/>
<path d="M36 308.5L700.5 132" stroke="#FFF2F9"/>
<path d="M39 316.5L703.5 140" stroke="#FFF2F9"/>
<path d="M41 324.5L705.5 148" stroke="#FFF2F9"/>
<path d="M44 333.5L708.5 157" stroke="#FFF2F9"/>
<path d="M46 341.5L710.5 165" stroke="#FFF2F9"/>
<path d="M50 349.5L714.5 173" stroke="#FFF2F9"/>
<path d="M53 358.5L717.5 182" stroke="#FFF2F9"/>
<path d="M55 367.5L719.5 191" stroke="#FFF2F9"/>
<path d="M56 375.5L720.5 199" stroke="#FFF2F9"/>
<path d="M58 384.5L722.5 208" stroke="#FFF2F9"/>
<path d="M58 393.5L722.5 217" stroke="#FFF2F9"/>
<path d="M3 195.5L667.5 19" stroke="#FFF2F9"/>
<path d="M2 186.5L666.5 10" stroke="#FFF2F9"/>
<path d="M1 177.5L665.5 1" stroke="#FFF2F9"/>
</svg>
