<svg width="88" height="81" viewBox="0 0 88 81" fill="none" xmlns="http://www.w3.org/2000/svg">
<path d="M87.5 40.5C87.5 62.5532 68.0642 80.5 44 80.5C19.9358 80.5 0.5 62.5532 0.5 40.5C0.5 18.4468 19.9358 0.5 44 0.5C68.0642 0.5 87.5 18.4468 87.5 40.5Z" stroke="#FFD7E7"/>
<ellipse cx="44" cy="40.5" rx="39" ry="35.5" fill="#FA508F"/>
<g clip-path="url(#clip0)">
<path d="M54.6506 38.6617C54.6506 37.3953 53.6204 36.3653 52.3541 36.3653H48.1336C49.159 35.2127 49.8292 33.9003 49.9586 32.7228C50.0377 32.0037 49.8155 31.2899 49.3488 30.7643C48.9224 30.2839 48.3392 30.0162 47.7067 30.0103C47.6993 30.0103 47.692 30.0103 47.6847 30.0103C47.0729 30.0103 46.4987 30.2459 46.0653 30.6753C45.6319 31.1047 45.392 31.6768 45.3892 32.2874C45.367 32.421 45.1318 32.8819 44.5564 33.4291C44.0853 33.8772 43.2716 34.4932 42.0701 34.8833C41.599 35.0363 41.1685 35.3179 40.7905 35.7204C40.5921 35.9315 40.2951 36.2231 39.9274 36.5157C39.7469 36.4201 39.5417 36.3654 39.3236 36.3654H35.3152C34.6015 36.3654 34.0209 36.946 34.0209 37.6598V48.3487C34.0209 49.0625 34.6015 49.6431 35.3152 49.6431H39.3236C39.8102 49.6431 40.2345 49.3729 40.4556 48.975H50.6839C51.766 48.975 52.6463 48.0947 52.6463 47.0126C52.6463 46.6488 52.5469 46.3078 52.3736 46.0153C52.9374 45.6702 53.3144 45.0485 53.3144 44.3403C53.3144 43.9765 53.2149 43.6356 53.0417 43.3431C53.6055 42.9979 53.9824 42.3762 53.9824 41.6681C53.9824 41.2585 53.8563 40.8779 53.641 40.5629C54.2498 40.1494 54.6506 39.4514 54.6506 38.6617ZM52.3541 39.7055H52.02C51.6742 39.7055 51.3937 39.9859 51.3937 40.3318C51.3937 40.6777 51.6741 40.9582 52.02 40.9582C52.4114 40.9582 52.7299 41.2766 52.7299 41.668C52.7299 42.0594 52.4114 42.3778 52.02 42.3778H51.352C51.0061 42.3778 50.7256 42.6582 50.7256 43.0042C50.7256 43.35 51.006 43.6305 51.352 43.6305C51.7434 43.6305 52.0618 43.9489 52.0618 44.3403C52.0618 44.7317 51.7434 45.0502 51.352 45.0502H50.6839C50.3381 45.0502 50.0576 45.3306 50.0576 45.6765C50.0576 46.0224 50.338 46.3028 50.6839 46.3028C51.0753 46.3028 51.3938 46.6213 51.3938 47.0127C51.3938 47.4041 51.0753 47.7225 50.6839 47.7225H40.618V41.6682C40.618 41.3224 40.3376 41.0419 39.9917 41.0419C39.6457 41.0419 39.3653 41.3223 39.3653 41.6682V48.3488C39.3653 48.3718 39.3467 48.3905 39.3236 48.3905H35.3152C35.2922 48.3905 35.2735 48.3718 35.2735 48.3488V37.6596C35.2735 37.6365 35.2922 37.6178 35.3152 37.6178H39.3236C39.3467 37.6178 39.3653 37.6365 39.3653 37.6596V38.9957C39.3653 39.3416 39.6457 39.6221 39.9917 39.6221C40.3376 39.6221 40.618 39.3417 40.618 38.9957V37.6596C40.618 37.6292 40.6155 37.5994 40.6134 37.5696C41.083 37.206 41.4585 36.8385 41.7035 36.5778C41.9353 36.3308 42.1888 36.1616 42.4568 36.0746C43.931 35.596 44.9231 34.8254 45.4957 34.2632C46.2134 33.5586 46.6417 32.8241 46.6417 32.2982C46.6417 32.0204 46.7501 31.76 46.9469 31.565C47.1461 31.3676 47.4099 31.2633 47.695 31.2629C48.0461 31.2662 48.2786 31.4458 48.412 31.596C48.6406 31.8534 48.7531 32.2235 48.7133 32.586C48.5765 33.8304 47.5813 35.3687 46.1778 36.5048C45.9717 36.6717 45.893 36.9505 45.9815 37.2006C46.07 37.4507 46.3066 37.6178 46.5719 37.6178H52.3539C52.9295 37.6178 53.3977 38.086 53.3977 38.6617C53.3977 39.2373 52.9296 39.7055 52.3541 39.7055Z" fill="white"/>
<path d="M37.3195 45.7114C36.9736 45.7114 36.6898 45.9952 36.6898 46.341C36.6898 46.6869 36.9736 46.9706 37.3195 46.9706C37.6653 46.9706 37.9491 46.6869 37.9491 46.341C37.9491 45.9953 37.6654 45.7114 37.3195 45.7114Z" fill="white"/>
<path d="M62.8833 41.0005L63.9593 38.1533C64.0376 37.9462 64.0007 37.7132 63.8621 37.5403L61.9591 35.165L62.1025 32.1248C62.113 31.9037 62.0058 31.6933 61.8208 31.5718L59.2769 29.9008L58.4739 26.965C58.4155 26.7514 58.2486 26.5845 58.0351 26.5262L55.0993 25.7232L53.4283 23.1794C53.3067 22.9943 53.0964 22.8876 52.8753 22.8976L49.8351 23.0411L47.4598 21.138C47.287 20.9996 47.0539 20.9626 46.8467 21.0409L43.9996 22.1169L41.1527 21.041C40.9454 20.9626 40.7125 20.9996 40.5396 21.1381L38.1643 23.0412L35.1241 22.8977C34.9019 22.8873 34.6926 22.9944 34.5711 23.1794L32.9002 25.7233L29.9644 26.5263C29.7508 26.5848 29.5839 26.7516 29.5256 26.9651L28.7226 29.9009L26.1787 31.5719C25.9936 31.6934 25.8865 31.9037 25.897 32.1248L26.0404 35.1651L24.1374 37.5404C23.9989 37.7132 23.962 37.9462 24.0403 38.1534L25.1161 41.0005L24.0402 43.8475C23.9618 44.0546 23.9988 44.2876 24.1373 44.4605L26.0403 46.8358L25.8969 49.8761C25.8864 50.0972 25.9936 50.3076 26.1786 50.4291L28.7225 52.1001L29.5255 55.0359C29.5839 55.2494 29.7508 55.4163 29.9643 55.4747L32.9001 56.2776L34.571 58.8216C34.6926 59.0066 34.9033 59.113 35.124 59.1033L38.1642 58.9598L40.5396 60.8629C40.7124 61.0014 40.9455 61.0383 41.1526 60.96L43.9997 59.8841L46.8468 60.96C46.9187 60.9871 46.9936 61.0004 47.0682 61.0004C47.2085 61.0004 47.347 60.9533 47.4598 60.8629L49.8351 58.9598L52.8753 59.1033C53.0971 59.1131 53.3067 59.0066 53.4283 58.8216L55.0993 56.2776L58.0351 55.4747C58.2487 55.4162 58.4156 55.2494 58.4739 55.0359L59.2769 52.1001L61.8208 50.4291C62.0059 50.3075 62.113 50.0972 62.1025 49.8761L61.9591 46.8358L63.8621 44.4605C64.0006 44.2877 64.0375 44.0547 63.9593 43.8475L62.8833 41.0005ZM61.6279 41.2219L62.6612 43.9562L60.8335 46.2373C60.7382 46.3563 60.6895 46.5061 60.6967 46.6584L60.8345 49.5782L58.3914 51.183C58.264 51.2666 58.1714 51.3941 58.1311 51.5412L57.36 54.3607L54.5405 55.1319C54.3934 55.1721 54.266 55.2647 54.1822 55.3922L52.5775 57.8352L49.6577 57.6974C49.5053 57.6904 49.3556 57.7389 49.2366 57.8343L46.9554 59.6619L44.2211 58.6287C44.1498 58.6017 44.0747 58.5883 43.9997 58.5883C43.9247 58.5883 43.8496 58.6018 43.7783 58.6287L41.044 59.6619L38.7628 57.8343C38.6439 57.7389 38.4939 57.6904 38.3418 57.6974L35.422 57.8352L33.8172 55.3922C33.7335 55.2648 33.6061 55.1721 33.4589 55.1319L30.6395 54.3607L29.8683 51.5412C29.8281 51.3941 29.7355 51.2668 29.608 51.183L27.165 49.5782L27.3028 46.6584C27.31 46.506 27.2613 46.3563 27.1659 46.2373L25.3382 43.9562L26.3716 41.2219C26.4255 41.0792 26.4255 40.9217 26.3716 40.7791L25.3382 38.0448L27.1659 35.7636C27.2613 35.6446 27.31 35.4948 27.3028 35.3425L27.165 32.4227L29.608 30.818C29.7354 30.7343 29.8281 30.6069 29.8683 30.4597L30.6395 27.6402L33.4589 26.8691C33.606 26.8288 33.7334 26.7362 33.8172 26.6087L35.422 24.1657L38.3418 24.3035C38.4939 24.3106 38.6439 24.262 38.7628 24.1666L41.044 22.339L43.7783 23.3723C43.921 23.4262 44.0785 23.4262 44.2211 23.3723L46.9554 22.339L49.2366 24.1666C49.3556 24.2621 49.5054 24.3107 49.6577 24.3035L52.5775 24.1657L54.1822 26.6087C54.2659 26.7362 54.3933 26.8288 54.5405 26.8691L57.36 27.6402L58.1311 30.4597C58.1714 30.6068 58.2639 30.7341 58.3914 30.818L60.8345 32.4227L60.6967 35.3425C60.6895 35.4949 60.7382 35.6446 60.8335 35.7636L62.6612 38.0448L61.6278 40.7791C61.574 40.9218 61.574 41.0792 61.6279 41.2219Z" fill="white"/>
<path d="M55.7682 30.1853C55.6124 30.0156 55.4507 29.8469 55.2875 29.6837C55.1243 29.5206 54.9557 29.3589 54.786 29.203C54.5312 28.9691 54.135 28.986 53.9011 29.2408C53.6672 29.4956 53.684 29.8919 53.9389 30.1258C54.0954 30.2695 54.2511 30.4187 54.4018 30.5694C54.5523 30.7199 54.7016 30.8758 54.8454 31.0323C54.9689 31.1669 55.1377 31.2351 55.307 31.2351C55.4583 31.2351 55.6101 31.1805 55.7304 31.0701C55.9852 30.8363 56.0022 30.4401 55.7682 30.1853Z" fill="white"/>
<path d="M52.5619 27.4942C49.5416 25.57 45.9052 24.7148 42.3229 25.0857C38.6881 25.4622 35.2608 27.0952 32.672 29.6839C29.8231 32.5329 28.1643 36.3175 28.0013 40.3407C27.8394 44.3403 29.1641 48.2234 31.7315 51.2746C31.8553 51.4218 32.0325 51.4977 32.2111 51.4977C32.3534 51.4977 32.4966 51.4494 32.614 51.3507C32.8786 51.1279 32.9127 50.7329 32.69 50.4682C30.3243 47.6566 29.1037 44.078 29.2529 40.3915C29.4031 36.6836 30.9318 33.1954 33.5577 30.5696C35.9436 28.1836 39.1024 26.6786 42.4519 26.3316C45.7546 25.9894 49.1059 26.7776 51.8888 28.5506C52.1806 28.7364 52.5676 28.6507 52.7534 28.3589C52.9394 28.0671 52.8535 27.68 52.5619 27.4942Z" fill="white"/>
<path d="M57.4774 32.4095C57.2916 32.1177 56.9042 32.032 56.6126 32.2178C56.3209 32.4037 56.2351 32.7909 56.421 33.0825C58.194 35.8655 58.982 39.2169 58.64 42.5194C58.293 45.8689 56.788 49.0276 54.402 51.4137C51.7762 54.0394 48.288 55.5683 44.5801 55.7184C40.8943 55.8683 37.315 54.6471 34.5034 52.2815C34.2388 52.0587 33.8437 52.0928 33.621 52.3575C33.3983 52.6221 33.4323 53.0172 33.697 53.2399C36.5815 55.6669 40.2088 56.9834 43.9756 56.9834C44.1935 56.9834 44.4123 56.9789 44.631 56.9701C48.6542 56.8072 52.4388 55.1484 55.2879 52.2994C57.8766 49.7107 59.5097 46.2833 59.8861 42.6485C60.257 39.066 59.4016 35.4298 57.4774 32.4095Z" fill="white"/>
</g>
<defs>
<clipPath id="clip0">
<rect width="40" height="40" fill="white" transform="translate(24 21)"/>
</clipPath>
</defs>
</svg>
