<svg width="20" height="20" viewBox="0 0 20 20" fill="none" xmlns="http://www.w3.org/2000/svg">
<path d="M12.0457 0H8.2362C4.24618 0 1 3.24542 1 7.23467V10.6663C1 13.6371 2.82552 16.3071 5.57047 17.3944V19.6191C5.57047 19.77 5.65921 19.9063 5.79709 19.9672C5.8466 19.9893 5.89916 20 5.95134 20C6.0439 20 6.13569 19.9661 6.20691 19.9014L8.41559 17.901H12.0457C16.0357 17.901 19.2819 14.6556 19.2819 10.6663V7.23467C19.2819 3.24542 16.0357 0 12.0457 0ZM18.5201 10.6663C18.5201 14.2355 15.616 17.1393 12.0457 17.1393H8.26857C8.17412 17.1393 8.08309 17.1743 8.01301 17.2379L6.33222 18.7603V17.1305C6.33222 16.969 6.23052 16.825 6.07817 16.7717C3.49662 15.8588 1.76175 13.4052 1.76175 10.6663V7.23467C1.76175 3.66552 4.66628 0.761745 8.2362 0.761745H12.0457C15.616 0.761745 18.5201 3.66552 18.5201 7.23467V10.6663Z" fill="#FF6AA4"/>
<path d="M15.5884 11.6139L13.2475 10.0935C12.9916 9.92707 12.6869 9.8707 12.3886 9.9324C12.09 9.99524 11.8333 10.1716 11.6669 10.4287L11.5568 10.5978C10.5437 10.263 9.4266 9.83527 8.75779 7.8993L9.03468 7.65859C9.51001 7.24534 9.5599 6.52245 9.14666 6.04636L7.31542 3.93975C7.17755 3.78093 6.93684 3.76455 6.77801 3.90204L5.62816 4.90145C4.61961 5.77822 5.09075 7.07509 5.24576 7.50129C5.25262 7.52033 5.261 7.53861 5.2709 7.55651C5.31089 7.62812 6.26574 9.33214 7.80789 10.9029C9.35614 12.4801 12.1514 13.9365 12.2371 13.9788C12.5562 14.186 12.9154 14.2854 13.2707 14.2854C13.8946 14.2854 14.5063 13.9795 14.8712 13.4189L15.7007 12.1415C15.815 11.9644 15.7647 11.7286 15.5884 11.6139ZM14.2321 13.0038C13.8889 13.5324 13.1797 13.6825 12.6198 13.3214C12.592 13.3069 9.81509 11.8608 8.3514 10.3696C6.9833 8.97603 6.07492 7.42778 5.95114 7.21183C5.64949 6.36591 5.70281 5.84602 6.12786 5.47657L6.99054 4.72701L8.57192 6.54606C8.71246 6.70755 8.69609 6.94369 8.53536 7.08347L8.06803 7.48948C7.95415 7.58851 7.9092 7.74505 7.95377 7.88902C8.75055 10.4782 10.2999 10.9867 11.4311 11.358L11.596 11.4125C11.761 11.4681 11.9415 11.4045 12.036 11.259L12.306 10.8431C12.3616 10.757 12.4469 10.6987 12.5459 10.6778C12.6454 10.6564 12.7467 10.6762 12.8327 10.7322L14.8544 12.0451L14.2321 13.0038Z" fill="#FF6AA4"/>
</svg>
