<svg width="29" height="29" viewBox="0 0 29 29" fill="none" xmlns="http://www.w3.org/2000/svg">
<g clip-path="url(#clip0)">
<path d="M28.5522 2.88071C28.198 2.44749 27.6674 2.20898 27.0581 2.20898C26.7269 2.20898 26.376 2.27868 26.0153 2.41652L1.46739 11.7872C0.164657 12.2844 -0.0107958 13.0304 0.00048802 13.4309C0.0117719 13.8314 0.229263 14.5664 1.55811 14.9892C1.56607 14.9916 1.57404 14.9941 1.582 14.9963L6.6739 16.4534L9.42761 24.3278C9.80308 25.4013 10.6458 26.0682 11.6273 26.0682C12.2461 26.0682 12.8548 25.8089 13.3876 25.3186L16.5371 22.4186L21.1053 26.0969C21.1058 26.0974 21.1064 26.0976 21.1069 26.0981L21.1502 26.133C21.1542 26.1361 21.1584 26.1394 21.1624 26.1425C21.6702 26.5364 22.2244 26.7443 22.7658 26.7446H22.766C23.8238 26.7446 24.6662 25.9615 24.9115 24.75L28.9337 4.88946C29.0952 4.09229 28.9598 3.37897 28.5522 2.88071ZM8.37733 16.1767L18.2012 11.158L12.0842 17.6577C11.984 17.7641 11.9129 17.8945 11.878 18.0363L10.6985 22.814L8.37733 16.1767ZM12.2364 24.0685C12.1957 24.1059 12.1548 24.1393 12.1138 24.1701L13.2082 19.7379L15.1988 21.3409L12.2364 24.0685ZM27.2683 4.55205L23.2462 24.4128C23.2074 24.6028 23.0838 25.0451 22.7658 25.0451C22.6087 25.0451 22.4114 24.9595 22.2094 24.8039L17.0329 20.636C17.0323 20.6353 17.0314 20.6347 17.0305 20.6342L13.9505 18.154L22.7963 8.75452C23.0795 8.45361 23.1052 7.99274 22.8572 7.66219C22.6089 7.33164 22.1591 7.22765 21.7912 7.41572L7.24208 14.8485L2.08092 13.3718L26.6214 4.00401C26.8287 3.9248 26.9734 3.9082 27.0581 3.9082C27.1101 3.9082 27.2026 3.9144 27.2369 3.95666C27.282 4.01175 27.3395 4.19959 27.2683 4.55205Z" fill="#FA6297"/>
</g>
<defs>
<clipPath id="clip0">
<rect width="29" height="29" fill="white"/>
</clipPath>
</defs>
</svg>
